<?xml version="1.0" encoding="UTF-8" standalone="no"?><!-- Generator: Gravit.io --><svg xmlns="http://www.w3.org/2000/svg" xmlns:xlink="http://www.w3.org/1999/xlink" style="isolation:isolate" viewBox="0 0 350 90" width="350pt" height="90pt"><defs><clipPath id="_clipPath_Mlrvw4Wca02FcSEUyprjx6ZVjZBG5sK6"><rect width="350" height="90"/></clipPath></defs><g clip-path="url(#_clipPath_Mlrvw4Wca02FcSEUyprjx6ZVjZBG5sK6)"><g><g><path d=" M 97.303 17.483 L 96.307 40.687 L 94.599 59.694 L 95.311 59.694 L 100.293 40.687 L 107.554 17.483 C 108.123 15.489 109.547 14.919 110.9 14.919 L 115.313 14.919 C 117.449 14.919 118.231 16.415 117.52 18.549 L 102.714 63.679 C 102.073 65.743 100.934 66.454 99.297 66.454 L 88.62 66.454 C 86.983 66.454 85.986 65.743 86.057 63.679 L 87.196 18.549 C 87.196 16.415 88.548 14.919 90.684 14.919 L 94.812 14.919 C 96.165 14.919 97.446 15.489 97.303 17.483 Z " fill="rgb(255,255,255)"/><path d=" M 121.646 63.538 C 121.29 65.389 120.08 66.455 118.229 66.455 L 114.67 66.455 C 112.819 66.455 111.894 65.389 112.25 63.538 L 118.372 28.729 C 118.728 26.879 119.938 25.811 121.789 25.811 L 125.348 25.811 C 127.199 25.811 128.124 26.88 127.768 28.729 L 121.646 63.538 Z " fill="rgb(255,255,255)"/><path d=" M 154.315 39.763 C 153.96 41.613 152.678 42.681 150.827 42.681 L 147.268 42.681 C 145.417 42.681 144.563 41.613 144.919 39.763 L 145.702 35.278 C 145.987 33.428 145.275 32.574 143.638 32.574 C 142.001 32.574 141.004 33.428 140.72 35.278 L 136.876 56.988 C 136.52 58.84 137.232 59.694 138.869 59.694 C 140.506 59.694 141.503 58.84 141.859 56.988 L 142.642 52.505 C 142.998 50.653 144.208 49.587 146.059 49.587 L 149.618 49.587 C 151.469 49.587 152.394 50.655 152.038 52.505 L 151.184 57.274 C 150.045 63.893 145.347 66.812 137.66 66.812 C 129.972 66.812 126.271 63.824 127.41 57.203 L 131.325 34.995 C 132.535 28.445 137.233 25.455 144.921 25.455 C 152.609 25.455 156.31 28.445 155.1 34.995 L 154.315 39.763 Z " fill="rgb(255,255,255)"/><path d=" M 163.566 25.811 L 164.989 17.837 C 165.345 15.987 166.555 14.919 168.406 14.919 L 171.965 14.919 C 173.816 14.919 174.74 15.988 174.385 17.837 L 172.961 25.811 L 176.094 25.811 C 177.944 25.811 178.869 26.879 178.514 28.729 L 178.3 30.009 C 177.944 31.86 176.735 32.928 174.883 32.928 L 171.751 32.928 L 167.551 56.631 C 167.196 58.483 167.907 59.337 169.545 59.337 L 171.609 59.337 C 173.459 59.337 174.314 60.403 174.029 62.255 L 173.816 63.538 C 173.46 65.389 172.251 66.455 170.399 66.455 L 168.335 66.455 C 160.648 66.455 156.946 63.466 158.085 56.918 L 162.356 32.929 L 160.648 32.929 C 158.797 32.929 157.872 31.862 158.228 30.011 L 158.441 28.73 C 158.797 26.88 160.007 25.812 161.858 25.812 L 163.566 25.812 L 163.566 25.811 Z " fill="rgb(255,255,255)"/><path d=" M 204.778 34.993 L 200.862 57.273 C 199.723 63.823 195.026 66.811 187.339 66.811 C 179.651 66.811 175.949 63.823 177.088 57.273 L 181.003 34.993 C 182.213 28.445 186.911 25.454 194.599 25.454 C 202.287 25.454 205.987 28.445 204.778 34.993 Z  M 190.399 35.278 L 186.555 56.988 C 186.199 58.84 186.91 59.694 188.547 59.694 C 190.185 59.694 191.182 58.84 191.537 56.988 L 195.381 35.278 C 195.666 33.428 194.953 32.574 193.317 32.574 C 191.681 32.574 190.683 33.428 190.399 35.278 Z " fill="rgb(255,255,255)"/><path d=" M 232.036 41.897 C 231.752 43.678 230.471 44.746 228.62 44.746 L 225.06 44.746 C 223.209 44.746 222.355 43.678 222.64 41.897 L 223.707 35.989 C 224.063 34.139 223.352 33.285 221.714 33.285 C 220.006 33.285 219.08 34.139 218.725 35.989 L 213.884 63.609 C 213.529 65.388 212.319 66.455 210.468 66.455 L 206.908 66.455 C 205.057 66.455 204.132 65.389 204.487 63.609 L 210.609 28.657 C 210.965 26.879 212.175 25.811 214.026 25.811 L 217.586 25.811 C 219.437 25.811 220.361 26.879 220.006 28.657 L 220.006 28.729 C 222.497 26.665 225.629 25.454 228.263 25.454 C 231.894 25.454 234.528 27.803 233.531 33.427 L 232.036 41.897 Z " fill="rgb(255,255,255)"/><path d=" M 241.933 63.538 C 241.577 65.389 240.367 66.455 238.516 66.455 L 234.957 66.455 C 233.105 66.455 232.181 65.389 232.536 63.538 L 238.658 28.729 C 239.013 26.879 240.223 25.811 242.075 25.811 L 245.634 25.811 C 247.485 25.811 248.41 26.88 248.054 28.729 L 241.933 63.538 Z " fill="rgb(255,255,255)"/><path d=" M 270.402 63.609 C 270.046 65.388 268.836 66.455 266.985 66.455 L 263.425 66.455 C 261.574 66.455 260.65 65.389 261.005 63.609 L 261.005 63.538 C 258.514 65.601 255.382 66.811 252.748 66.811 C 249.117 66.811 246.413 64.462 247.409 58.838 L 251.893 33.427 C 252.89 27.803 256.377 25.454 260.008 25.454 C 262.642 25.454 265.346 26.665 267.126 28.729 L 267.126 28.657 C 267.481 26.879 268.691 25.811 270.542 25.811 L 274.102 25.811 C 275.953 25.811 276.878 26.879 276.522 28.657 L 270.402 63.609 Z  M 257.304 56.277 C 256.948 58.127 257.659 58.982 259.297 58.982 C 261.005 58.982 261.931 58.127 262.286 56.277 L 265.846 35.989 C 266.201 34.139 265.561 33.285 263.853 33.285 C 262.215 33.285 261.219 34.139 260.863 35.989 L 257.304 56.277 Z " fill="rgb(255,255,255)"/><path d=" M 293.583 22.893 L 286.465 63.538 C 286.109 65.389 284.899 66.455 283.048 66.455 L 278.35 66.455 C 276.499 66.455 275.574 65.389 275.93 63.538 L 283.048 22.893 L 276.285 22.893 C 274.434 22.893 273.58 21.824 273.936 19.975 L 274.291 17.838 C 274.647 15.988 275.857 14.92 277.708 14.92 L 301.768 14.92 C 303.619 14.92 304.544 15.988 304.188 17.838 L 303.833 19.975 C 303.477 21.825 302.195 22.893 300.345 22.893 L 293.583 22.893 Z " fill="rgb(255,255,255)"/><path d=" M 300.391 63.538 C 300.035 65.389 298.825 66.455 296.974 66.455 L 293.415 66.455 C 291.563 66.455 290.639 65.389 290.994 63.538 L 297.116 28.729 C 297.471 26.879 298.681 25.811 300.533 25.811 L 304.092 25.811 C 305.943 25.811 306.868 26.88 306.512 28.729 L 300.391 63.538 Z " fill="rgb(255,255,255)"/><path d=" M 311.206 28.659 C 311.561 26.88 312.771 25.811 314.623 25.811 L 318.182 25.811 C 320.033 25.811 320.958 26.88 320.602 28.659 L 320.602 28.729 C 323.094 26.665 326.226 25.455 328.86 25.455 C 332.49 25.455 335.124 27.804 334.128 33.428 L 329.643 58.84 C 328.647 64.463 325.23 66.812 321.6 66.812 C 318.966 66.812 316.261 65.603 314.482 63.539 L 311.919 77.846 C 311.634 79.626 310.353 80.694 308.502 80.694 L 304.942 80.694 C 303.091 80.694 302.238 79.627 302.522 77.846 L 311.206 28.659 Z  M 324.304 35.991 C 324.659 34.139 323.948 33.285 322.311 33.285 C 320.602 33.285 319.677 34.139 319.321 35.991 L 315.762 56.277 C 315.406 58.129 316.046 58.983 317.755 58.983 C 319.392 58.983 320.389 58.129 320.744 56.277 L 324.304 35.991 Z " fill="rgb(255,255,255)"/></g><path d=" M 47.659 9.306 C 29.986 9.306 15.659 23.634 15.659 41.307 C 15.659 58.979 29.986 73.307 47.659 73.307 C 65.332 73.307 79.659 58.979 79.659 41.307 C 79.659 23.633 65.333 9.306 47.659 9.306 Z  M 35.187 41.881 C 35.742 41.6 38.873 40.074 39.273 40.254 C 39.53 40.367 40.258 41.685 40.409 41.988 C 40.677 42.521 40.22 43.639 40.096 44.304 C 39.148 49.42 41.603 49.998 41.937 50.6 C 42.132 50.952 41.689 52.509 41.391 52.797 C 40.662 53.496 37.891 54.328 37.05 53.832 C 35.001 52.622 33.81 48.022 33.47 45.785 C 33.085 43.248 33.195 42.893 35.187 41.881 Z  M 27.71 51.139 C 27.022 49.388 26.674 49.118 27.929 47.561 C 28.731 46.566 29.98 45.505 31.357 46.014 C 32.532 46.445 32.428 48.268 32.853 49.591 C 33.22 50.738 33.968 52.019 34.465 53.143 C 35.182 54.754 37.156 54.426 36.417 55.966 C 35.923 56.992 33.054 56.889 32.611 56.479 C 30.694 54.7 28.883 54.117 27.71 51.139 Z  M 63.699 26.561 C 62.863 29.612 58.799 44.078 58.715 46.143 C 58.626 48.405 59.606 49.224 59.826 51.088 C 60.023 52.75 59.358 54.729 59.008 56.366 C 58.046 60.841 58.232 61.336 54.919 64.634 C 53.706 65.843 51.575 67.258 49.565 67.519 C 47.638 67.616 47.053 66.679 46.541 66.148 C 46.407 66.009 46.211 65.785 45.984 65.526 C 44.811 64.182 43.859 63.149 43.172 63.069 C 43.117 63.061 43.067 63.058 43.021 63.058 C 42.612 63.058 42.462 63.303 42.417 63.406 C 42.194 63.918 42.694 64.591 44.213 66.217 L 44.748 66.747 C 41.831 66.416 38.697 66.663 36.011 64.958 C 34.979 64.302 33.603 63.523 32.993 62.444 C 32.451 61.483 32.504 58.518 33.168 57.609 C 33.877 57.729 36.364 57.815 37.036 57.54 C 38.155 57.083 37.792 55.426 38.723 55.077 C 39.911 54.633 40.649 54.764 41.95 54.156 C 42.842 53.739 43.164 52.462 43.384 51.763 C 44.469 52.478 45.098 53.893 45.497 54.949 C 45.362 55.129 45.157 55.368 44.928 55.636 C 43.771 56.987 42.187 58.836 43.059 60.035 L 43.166 60.182 L 43.348 60.199 C 44.007 60.259 44.206 59.754 44.424 59.221 C 44.632 58.717 44.945 57.953 45.746 56.992 C 46.027 56.656 46.336 56.347 46.663 56.022 C 46.77 55.915 46.878 55.807 46.987 55.699 C 47.239 55.441 47.614 55.229 47.916 55.06 C 48.215 54.892 48.431 54.771 48.554 54.604 L 48.674 54.445 L 48.62 54.254 C 48.432 53.595 48.016 53.497 47.785 53.497 C 47.523 53.497 47.277 53.616 47.06 53.721 C 47.004 53.748 46.933 53.784 46.868 53.811 C 46.717 53.6 46.606 53.351 46.473 53.057 C 46.181 52.41 45.817 51.603 44.804 50.691 C 44.35 50.281 43.867 49.987 43.4 49.7 C 42.737 49.294 42.164 48.944 41.872 48.384 C 41.32 47.324 41.537 43.854 42.286 41.752 C 42.572 40.953 42.84 40.612 43.013 40.466 C 43.395 40.679 44.385 41.269 45.077 41.682 C 45.728 42.07 46.29 42.406 46.511 42.527 C 48.03 43.368 48.847 43.712 50.331 44.336 L 50.627 44.461 C 51.39 44.781 51.39 44.781 51.534 45.177 C 51.591 45.333 51.669 45.547 51.794 45.825 C 51.84 45.927 51.897 46.054 51.963 46.208 C 53.369 49.413 54.531 51.548 55.624 51.548 C 55.706 51.548 55.786 51.536 55.863 51.513 L 56.25 51.397 L 55.837 50.005 L 57.486 49.907 L 57.469 49.511 C 57.435 48.704 56.963 48.242 56.175 48.242 C 55.861 48.242 55.543 48.307 55.263 48.366 C 55.122 48.396 54.977 48.426 54.882 48.435 C 54.332 47.896 53.148 45.622 52.871 44.829 C 52.782 44.574 52.725 44.384 52.682 44.239 C 52.51 43.668 52.42 43.57 51.884 43.36 C 51.718 43.295 51.49 43.208 51.162 43.054 C 50.769 42.872 50.378 42.734 49.998 42.6 C 49.619 42.466 49.26 42.341 48.909 42.174 C 47.273 41.401 46.094 40.636 45.146 40.023 C 44.08 39.333 43.375 38.877 42.71 38.877 C 41.903 38.877 41.657 39.37 41.27 40.178 C 41.27 40.178 40.936 39.901 41.078 39.564 C 41.444 38.692 41.374 38.596 41.512 37.652 C 41.793 35.732 41.743 33.613 41.715 31.666 C 41.68 29.131 41.456 23.521 41.545 20.25 C 41.633 16.979 48.051 14.332 48.276 19.308 C 48.502 24.285 48.898 27.301 49.208 31.333 C 49.29 32.393 49.478 34.498 49.82 36.514 C 50.197 38.729 52.238 38.427 52.979 36.338 C 53.72 34.251 55.976 28.458 56.374 26.791 C 56.917 24.519 58.369 19.562 61.003 19.015 C 62.087 18.79 64.252 20.629 64.551 21.476 C 64.875 22.393 63.994 25.488 63.699 26.561 Z " fill="rgb(255,255,255)"/></g></g></svg>