<svg version="1.1" id="Layer_1" xmlns="http://www.w3.org/2000/svg" xmlns:xlink="http://www.w3.org/1999/xlink" x="0px" y="0px" style="enable-background:new 0 0 418 201.9;" xml:space="preserve" viewBox="104.5 60.07 199.22 74.07">
<style type="text/css">
	.st0{fill:#787878;}
	.st1{opacity:0.5;fill:#787878;}
	.st2{opacity:0.2;}
	.st3{fill-rule:evenodd;clip-rule:evenodd;fill:#787878;}
</style>
<path class="st0" d="M222.2,103.6l-3.6-5.4h11.2c2.2,0,3.3-0.6,3.3-1.9V96c0-0.9-0.3-1.5-0.8-1.8c-0.6-0.2-1.4-0.3-2.6-0.3h-12.9  l-3.7-5.4h20c4.2,0,6.7,2.6,6.7,5.4v4.4c0,1.6-1.3,2.6-2.2,2.7c1,0.1,2.2,1,2.2,3.4v3.5c0,3-2.8,5.4-6.7,5.4h-25.1V96.6h6.7v11.3h15  c1.2,0,2-0.1,2.6-0.4c0.6-0.3,0.8-0.9,0.8-2c0-0.7-0.3-1.3-0.8-1.6c-0.5-0.3-1.4-0.4-2.6-0.4H222.2z"/>
<path class="st0" d="M220.6,103.6l-3.6-5.4h11.2c2.2,0,3.3-0.6,3.3-1.9V96c0-0.9-0.3-1.5-0.8-1.8c-0.6-0.2-1.4-0.3-2.6-0.3h-12.9  l-3.7-5.4h20c4.2,0,6.7,2.6,6.7,5.4v4.4c0,1.6-1.3,2.6-2.2,2.7c1,0.1,2.2,1,2.2,3.4v3.5c0,3-2.8,5.4-6.7,5.4h-25.1V96.6h6.7v11.3h15  c1.2,0,2-0.1,2.6-0.4c0.6-0.3,0.8-0.9,0.8-2c0-0.7-0.3-1.3-0.8-1.6c-0.5-0.3-1.4-0.4-2.6-0.4H220.6z"/>
<path class="st0" d="M221.4,103.6l-3.6-5.4h11.2c2.2,0,3.3-0.6,3.3-1.9V96c0-0.9-0.3-1.5-0.8-1.8c-0.6-0.2-1.4-0.3-2.6-0.3h-12.9  l-3.7-5.4h20c4.2,0,6.7,2.6,6.7,5.4v4.4c0,1.6-1.3,2.6-2.2,2.7c1,0.1,2.2,1,2.2,3.4v3.5c0,3-2.8,5.4-6.7,5.4h-25.1V96.6h6.7v11.3h15  c1.2,0,2-0.1,2.6-0.4c0.6-0.3,0.8-0.9,0.8-2c0-0.7-0.3-1.3-0.8-1.6c-0.5-0.3-1.4-0.4-2.6-0.4H221.4z"/>
<polygon class="st0" points="249.3,107.9 249.3,103.7 262.5,103.7 266.1,98.3 251.6,98.3 249.3,101.7 249.3,95.4 247.1,93.9   249.3,93.9 249.3,93.9 268.2,93.9 271.9,88.5 242.6,88.5 242.6,113.3 268.3,113.3 271.9,107.9 "/>
<polygon class="st0" points="247.7,107.9 247.7,103.7 260.9,103.7 264.5,98.3 250,98.3 247.7,101.7 247.7,95.4 245.5,93.9   247.7,93.9 247.7,93.9 266.6,93.9 270.3,88.5 241.1,88.5 241.1,113.3 266.7,113.3 270.3,107.9 "/>
<polygon class="st0" points="248.5,107.9 248.5,103.7 261.7,103.7 265.3,98.3 250.8,98.3 248.5,101.7 248.5,95.4 246.3,93.9   248.5,93.9 248.5,93.9 267.4,93.9 271.1,88.5 241.9,88.5 241.9,113.3 267.5,113.3 271.1,107.9 "/>
<polygon class="st0" points="135.3,88.5 106.1,88.5 106.1,113.3 112.8,113.3 112.8,103.7 125.9,103.7 129.5,98.3 115.1,98.3   112.8,101.7 112.8,95.4 110.5,93.9 112.8,93.9 112.8,93.9 131.6,93.9 "/>
<polygon class="st0" points="133.7,88.5 104.5,88.5 104.5,113.3 111.2,113.3 111.2,103.7 124.3,103.7 127.9,98.3 113.5,98.3   111.2,101.7 111.2,95.4 108.9,93.9 111.2,93.9 111.2,93.9 130,93.9 "/>
<polygon class="st0" points="134.5,88.5 105.3,88.5 105.3,113.3 112,113.3 112,103.7 125.1,103.7 128.7,98.3 114.3,98.3 112,101.7   112,95.4 109.7,93.9 112,93.9 112,93.9 130.8,93.9 "/>
<path class="st0" d="M300,93.9h-18c-1.2,0-2,0.2-2.6,0.5c-0.6,0.3-0.8,0.9-0.8,1.8c0,0.7,0.3,1.2,0.8,1.5c0.5,0.3,1.4,0.5,2.4,0.5  H297c3.9,0,6.7,2.2,6.7,5.3v4.4c0,3.1-2.8,5.4-6.7,5.4h-25.1l3.6-5.4h18.1c1.2,0,2-0.2,2.6-0.5c0.6-0.3,0.8-0.9,0.8-1.8  c0-1.4-1.1-2.1-3.3-2.1h-15.2c-3.9,0-6.7-2.2-6.7-5.2v-4.4c0-3,2.6-5.4,6.7-5.4h25.1L300,93.9z"/>
<path class="st0" d="M298.4,93.9h-18c-1.2,0-2,0.2-2.6,0.5c-0.6,0.3-0.8,0.9-0.8,1.8c0,0.7,0.3,1.2,0.8,1.5c0.5,0.3,1.4,0.5,2.4,0.5  h15.2c3.9,0,6.7,2.2,6.7,5.3v4.4c0,3.1-2.8,5.4-6.7,5.4h-25.1l3.6-5.4H292c1.2,0,2-0.2,2.6-0.5c0.6-0.3,0.8-0.9,0.8-1.8  c0-1.4-1.1-2.1-3.3-2.1H277c-3.9,0-6.7-2.2-6.7-5.2v-4.4c0-3,2.6-5.4,6.7-5.4h25.1L298.4,93.9z"/>
<path class="st0" d="M299.2,93.9h-18c-1.2,0-2,0.2-2.6,0.5c-0.6,0.3-0.8,0.9-0.8,1.8c0,0.7,0.3,1.2,0.8,1.5c0.5,0.3,1.4,0.5,2.4,0.5  h15.2c3.9,0,6.7,2.2,6.7,5.3v4.4c0,3.1-2.8,5.4-6.7,5.4h-25.1l3.6-5.4h18.1c1.2,0,2-0.2,2.6-0.5c0.6-0.3,0.8-0.9,0.8-1.8  c0-1.4-1.1-2.1-3.3-2.1h-15.2c-3.9,0-6.7-2.2-6.7-5.2v-4.4c0-3,2.6-5.4,6.7-5.4h25.1L299.2,93.9z"/>
<path class="st0" d="M161.2,88.5h-18.4c-4,0-6.7,2.3-6.7,5.4V108c0,3.1,2.9,5.3,6.7,5.3h18.4c4.1,0,6.7-2,6.7-5.3V93.9  C167.8,90.9,165.3,88.5,161.2,88.5z M161.2,105c0,2-1.1,3-3.3,3H146c-2.2,0-3.3-1-3.3-3v-9.1l-2.9-2l3.3,0c0.1,0,0.2,0,0.3,0h14.3  c2.3,0,3.4,1.1,3.4,3.2V105z"/>
<path class="st0" d="M159.6,88.5h-18.4c-4,0-6.7,2.3-6.7,5.4V108c0,3.1,2.9,5.3,6.7,5.3h18.4c4.1,0,6.7-2,6.7-5.3V93.9  C166.2,90.9,163.7,88.5,159.6,88.5z M159.6,105c0,2-1.1,3-3.3,3h-11.9c-2.2,0-3.3-1-3.3-3v-9.1l-2.9-2l3.3,0c0.1,0,0.2,0,0.3,0h14.3  c2.3,0,3.4,1.1,3.4,3.2V105z"/>
<path class="st0" d="M160.4,88.5h-18.4c-4,0-6.7,2.3-6.7,5.4V108c0,3.1,2.9,5.3,6.7,5.3h18.4c4.1,0,6.7-2,6.7-5.3V93.9  C167,90.9,164.5,88.5,160.4,88.5z M160.4,105c0,2-1.1,3-3.3,3h-11.9c-2.2,0-3.3-1-3.3-3v-9.1l-2.9-2l3.3,0c0.1,0,0.2,0,0.3,0H157  c2.3,0,3.4,1.1,3.4,3.2V105z"/>
<path class="st0" d="M203.2,100.3v-6.4c-0.5-3-2.7-4.8-6.7-5.4h-25.1v24.9h6.7v-18l-2.2-1.5l2.2,0v0h15c2.3,0,3.4,1.1,3.4,3.2v0.1  c0,2-1.1,3-3.3,3h-7.5l-3.6,5.4h10.1l3.6,7.8h8.4l-4.6-8.5C201.7,103.9,202.9,102.4,203.2,100.3z"/>
<path class="st0" d="M201.6,100.3v-6.4c-0.5-3-2.7-4.8-6.7-5.4h-25.1v24.9h6.7v-18l-2.2-1.5l2.2,0v0h15c2.3,0,3.4,1.1,3.4,3.2v0.1  c0,2-1.1,3-3.3,3h-7.5l-3.6,5.4h10.1l3.6,7.8h8.4l-4.6-8.5C200.1,103.9,201.3,102.4,201.6,100.3z"/>
<path class="st0" d="M202.4,100.3v-6.4c-0.5-3-2.7-4.8-6.7-5.4h-25.1v24.9h6.7v-18l-2.2-1.5l2.2,0v0h15c2.3,0,3.4,1.1,3.4,3.2v0.1  c0,2-1.1,3-3.3,3H185l-3.6,5.4h10.1l3.6,7.8h8.4l-4.6-8.5C200.9,103.9,202.1,102.4,202.4,100.3z"/>
<g>
	<path class="st1" d="M222.5,83.6h-25.1v-1.5h25.1V83.6z M223.4,80.4h-26.8c-0.5,0-0.8,0.4-0.8,0.8v3.2c0,0.5,0.4,0.8,0.8,0.8h26.8   c0.5,0,0.8-0.4,0.8-0.8v-3.2C224.2,80.8,223.8,80.4,223.4,80.4z M228.1,69.8c0-0.6-0.5-1.2-1.2-1.2s-1.2,0.5-1.2,1.2c0,0,0,0,0,0   l-4.1,2.9l-1.3-7.3c0,0,0,0,0,0c0.4-0.2,0.6-0.6,0.6-1c0-0.6-0.5-1.2-1.2-1.2s-1.2,0.5-1.2,1.2c0,0.3,0.1,0.5,0.2,0.7l-4.5,5.6   l-3.7-8.6c0.2-0.2,0.3-0.4,0.3-0.7c0-0.6-0.5-1.2-1.2-1.2c-0.6,0-1.2,0.5-1.2,1.2c0,0.3,0.2,0.7,0.4,0.9l-3.6,8.2l-4.3-5.4   c0,0,0,0,0,0c0.1-0.2,0.2-0.4,0.2-0.7c0-0.6-0.5-1.2-1.2-1.2s-1.2,0.5-1.2,1.2c0,0.5,0.3,0.9,0.7,1c0,0,0,0,0,0l-1.2,7l-3.8-2.6   c0,0,0,0,0,0c0-0.1,0-0.2,0-0.2c0-0.6-0.5-1.2-1.2-1.2c-0.6,0-1.2,0.5-1.2,1.2c0,0.6,0.5,1.1,1,1.2c0,0,0,0,0,0l2.7,8.1   c0.1,0.3,0.4,0.6,0.8,0.6h26.8c0.4,0,0.7-0.2,0.8-0.6l2.9-7.9C227.6,70.9,228.1,70.4,228.1,69.8z M222.8,77.7h-25.6l-1.7-5.2l2.8,2   c0.2,0.2,0.5,0.2,0.8,0.1c0.3-0.1,0.5-0.3,0.5-0.6l1.1-6.5l4,5.1c0.2,0.2,0.5,0.3,0.8,0.3c0.3,0,0.5-0.2,0.7-0.5l3.5-8l3.6,8.3   c0.1,0.3,0.4,0.5,0.7,0.5c0.3,0,0.6-0.1,0.8-0.3l4.2-5.3l1.2,6.7c0,0.3,0.2,0.5,0.5,0.6c0.3,0.1,0.6,0.1,0.8-0.1l3.2-2.2   L222.8,77.7z"/>
</g>
<path class="st0" d="M228.1,69.8c0-0.6-0.5-1.2-1.2-1.2c-0.6,0-1.2,0.5-1.2,1.2c0,0,0,0,0,0l-4.2,2.9l-1.3-7.3c0,0,0-0.1-0.1-0.1  c0.4-0.2,0.6-0.5,0.6-1c0-0.6-0.5-1.2-1.2-1.2s-1.2,0.5-1.2,1.2c0,0.3,0.1,0.5,0.3,0.7c0,0,0,0,0,0l-4.5,5.7l-3.8-8.7  c0.1-0.2,0.3-0.4,0.3-0.7c0-0.6-0.5-1.2-1.2-1.2c-0.6,0-1.2,0.5-1.2,1.2c0,0.3,0.2,0.6,0.4,0.9l-3.6,8.3l-4.3-5.4c0,0,0,0,0,0  c0.1-0.2,0.3-0.4,0.3-0.6c0-0.6-0.5-1.2-1.2-1.2c-0.6,0-1.2,0.5-1.2,1.2c0,0.5,0.3,0.8,0.7,1c0,0,0,0.1,0,0.1l-1.2,7l-3.8-2.6  c0,0,0,0-0.1,0c0-0.1,0.1-0.1,0.1-0.2c0-0.6-0.5-1.2-1.2-1.2c-0.6,0-1.2,0.5-1.2,1.2c0,0.6,0.5,1.1,1.1,1.1c0,0,0,0,0,0.1l2.7,8.1  c0.1,0.3,0.4,0.6,0.8,0.6h26.8c0.4,0,0.7-0.2,0.8-0.6l2.9-8C227.6,70.8,228.1,70.4,228.1,69.8z M222.8,77.7h-25.6l-1.7-5.2l2.8,2  c0.2,0.2,0.5,0.2,0.8,0.1c0.3-0.1,0.5-0.3,0.5-0.6l1.1-6.5l4,5.1c0.2,0.2,0.5,0.3,0.8,0.3c0.3,0,0.5-0.2,0.7-0.5l3.5-8l3.6,8.3  c0.1,0.3,0.4,0.5,0.7,0.5c0.3,0,0.6-0.1,0.8-0.3l4.2-5.3l1.2,6.7c0,0.3,0.2,0.5,0.5,0.6c0.3,0.1,0.6,0.1,0.8-0.1l3.2-2.2L222.8,77.7  z M223.4,80.4h-26.8c-0.5,0-0.8,0.4-0.8,0.8v3.2c0,0.5,0.4,0.8,0.8,0.8h26.8c0.5,0,0.8-0.4,0.8-0.8v-3.2  C224.2,80.8,223.8,80.4,223.4,80.4z M222.5,83.6h-25.1v-1.5h25.1V83.6z"/>
<g>
</g>
<g>
</g>
<g>
	<g>
		<g>
			<g>
				<g>
					<g>
						<path class="st0" d="M193.3,133.9c-0.1,0-0.1,0-0.2,0c-0.7-0.1-2.4-0.5-2.9-3.2c-0.4,0.1-0.8,0-1-0.4c-0.2-0.4,0-0.8,0.3-1.1        c2.4-1.3,4.4-2.6,5.9-3.6c0.1,0,0.1-0.2,0.1-0.3c-0.2-1.6,0.1-2.9,0.8-3.8c0.6-0.7,1.4-1,2.4-0.9c1.4,0.2,1.7,1,1.7,1.4        c0.1,1-0.9,2.3-3,4c-0.1,0-0.1,0.2-0.1,0.2c0,0.2,0.1,0.4,0.2,0.6c0.4,1.2,0.7,2.9,0,4.2C196.7,132.7,194.9,133.9,193.3,133.9        z M191.5,130c0.1,0.1,0.2,0.2,0.2,0.4c0.2,1.2,0.7,1.9,1.5,1.9c1,0.1,2.3-0.8,3-2c0.4-0.6,0.1-1.9-0.2-2.9        c0-0.1,0-0.1-0.1-0.2C194.7,128.1,193.2,129,191.5,130z M198.4,122.3c-0.3,0-0.6,0.1-0.8,0.3c-0.3,0.3-0.5,1-0.5,1.7        c1.4-1.2,1.7-1.8,1.8-2c-0.1,0-0.2-0.1-0.4-0.1C198.5,122.3,198.4,122.3,198.4,122.3z"/>
					</g>
				</g>
			</g>
		</g>
		<g>
			<g>
				<g>
					<g>
						<path class="st0" d="M181.1,133.4c-0.6,0-1.1-0.1-1.6-0.4c-1.1-0.7-1.5-2.2-1.1-3.9c0.9-3.3,4.9-7.4,8.1-8.4        c1.4-0.4,2.7-0.2,3.5,0.5c0.7,0.6,0.9,1.6,0.7,2.5c-0.1,0.4-0.5,0.7-0.9,0.6c-0.2,0-0.4-0.2-0.5-0.3c-0.1-0.2-0.2-0.4-0.1-0.6        c0.1-0.4,0-0.8-0.2-1c-0.4-0.3-1.1-0.4-1.9-0.2c-2.6,0.8-6.3,4.6-7,7.2c-0.3,1-0.1,1.9,0.4,2.2c0.2,0.1,0.4,0.2,0.7,0.2        c0.8,0,1.8-0.4,2.9-1.2c0,0,0,0,0.1,0c0,0,0-0.1,0.1-0.2c0.4-1.3,1.3-2.6,2.5-3.8c1.8-1.7,2.5-1.9,2.9-1.9c0.1,0,0.2,0,0.3,0        c0.4,0.1,0.6,0.4,0.7,0.8c0.2,1.6-3.9,5.1-4.8,5.8c-0.1,0-0.1,0.1-0.2,0.1c0,0.2,0,0.4,0.1,0.4c0,0,0,0,0.1,0        c0.3,0,1.2-0.2,3.5-2.2c0.3-0.3,0.9-0.3,1.1,0c0.3,0.3,0.3,0.8-0.1,1.1c-1.9,1.7-3.4,2.6-4.6,2.6c-0.7,0-1.1-0.3-1.3-0.5        c-0.1-0.1-0.2-0.3-0.3-0.5C183,133.1,182,133.4,181.1,133.4z"/>
					</g>
				</g>
			</g>
		</g>
		<g>
			<g>
				<g>
					<g>
						<path class="st0" d="M167.9,133.6c-0.9,0-1.5-0.3-1.9-0.8c-2.1-2.9,4.4-11.4,8.5-15c2.2-1.9,4.3-2.9,5.9-2.9        c0.4,0,0.8,0.1,1.2,0.2c0.9,0.4,1.4,1.3,1.3,2.3c-0.1,1.3-1.2,3.2-4.1,4.5c-0.4,0.2-0.9,0-1.1-0.4c-0.1-0.4,0-0.8,0.4-1        c2.3-1.1,3-2.5,3.1-3.1c0-0.4-0.1-0.6-0.4-0.8c-0.1,0-0.3-0.1-0.6-0.1c-0.7,0-2.3,0.3-4.8,2.5c-4.9,4.2-9.2,11.4-8.2,12.8        c0.1,0.2,0.5,0.2,0.7,0.2c1.3,0,4.2-1,11-5.6c0.4-0.2,0.9-0.1,1.1,0.2c0.2,0.4,0.1,0.8-0.2,1.1        C174,131.6,170.1,133.6,167.9,133.6z"/>
					</g>
				</g>
			</g>
		</g>
		<g>
			<g>
				<g>
					<g>
						<path class="st0" d="M202.4,133.6c-0.3,0-0.5-0.1-0.7-0.2c-0.4-0.3-1.6-1.3,3.3-8.7c0.7-1.1,1.1-1.8,1.3-2.2        c-0.7,0.4-2,1.3-4.4,3.4c-0.3,0.3-0.8,0.3-1.1,0c-0.3-0.3-0.3-0.8,0.1-1.1c4.5-4.2,5.7-4.2,6.1-4.2c0.3,0,0.5,0.1,0.7,0.2        c0.8,0.7,0.5,1.9-1.4,4.7c-2.2,3.4-3.2,5.4-3.4,6.3c0.7-0.3,2.3-1.5,6.2-5.1c0.3-0.3,0.8-0.3,1.1,0c0.1,0.1,0.2,0.3,0.2,0.6        c0,0.2-0.1,0.4-0.3,0.6C204.8,133,203.2,133.6,202.4,133.6z"/>
					</g>
				</g>
			</g>
			<g>
				<g>
					<g>
						<path class="st0" d="M208.7,120.5c-0.1,0-0.3,0-0.4-0.1c-0.2-0.1-0.3-0.3-0.4-0.5c-0.1-0.2,0-0.4,0.1-0.6        c0.4-0.6,0.8-1.5,1-1.8c0.2-0.4,0.6-0.6,1-0.4c0.2,0.1,0.4,0.2,0.4,0.4c0.1,0.2,0.1,0.4,0,0.6c-0.2,0.5-0.7,1.4-1.1,2        C209.3,120.4,209,120.5,208.7,120.5z"/>
					</g>
				</g>
			</g>
		</g>
		<g>
			<g>
				<g>
					<g>
						<path class="st0" d="M226.2,133.9c-0.9,0-1.6-0.4-2-1.2c-0.6-1.3-0.1-3.4,1.4-5.8c2.2-3.4,5.7-6.1,8-6.1        c0.6,0,1.1,0.3,1.4,0.8c0.1,0.2,0.3,0.6,0.1,1.2c0.1,0.1,0.2,0.1,0.3,0.2c0.3,0.3,0.5,1,0.2,2.1c0.3-0.1,0.7-0.3,1.1-0.5        c0.1-0.1,0.3-0.1,0.4-0.1c0.3,0,0.6,0.2,0.7,0.4c0.2,0.4,0,0.8-0.4,1.1c-1,0.5-1.8,0.8-2.5,0.9l-0.2,0c0,0,0,0,0,0        c-0.1,0.2-0.3,0.5-0.5,0.8C232,131.2,228.5,133.9,226.2,133.9z M233.5,122.4c-1.5,0-4.6,2.1-6.6,5.3c-1.3,2.1-1.6,3.6-1.3,4.2        c0,0.1,0.1,0.3,0.6,0.3c1.5,0,4.6-2.1,6.6-5.3c0.1-0.1,0.2-0.3,0.2-0.4c-0.5-0.4-0.7-1.1-0.5-1.9c0.1-0.7,0.5-1.3,0.8-1.6        C233.3,122.8,233.4,122.6,233.5,122.4C233.5,122.4,233.5,122.4,233.5,122.4z"/>
					</g>
				</g>
				<g class="st2">
					<path class="st3" d="M234.3,123.6c-0.3,0.1-0.6,0.5-0.7,1.1c0,0.3-0.1,0.8,0.3,1.1c0,0,0.1,0,0.1,0.1c0.1,0,0.1,0,0.1,0       c0,0,0,0,0,0c0.6-1.2,0.6-1.9,0.4-2.1c0,0-0.1-0.1-0.1-0.1C234.3,123.6,234.3,123.6,234.3,123.6z"/>
				</g>
			</g>
		</g>
		<g>
			<g>
				<g>
					<g>
						<path class="st0" d="M219.1,133.9c-0.4,0-0.6-0.1-0.9-0.3c-1.4-1.2,0.7-4.4,1-4.8c0.2-0.4,0.5-0.7,0.8-1.1        c2.9-4.1,2.8-5,2.7-5.2c0,0-0.1,0-0.3,0c-2.6,0.1-4.7,2.7-6.4,5.3c-0.5,0.7-0.9,1.4-1.4,2.1c-1.8,2.8-2.6,4-3.6,4        c-0.4,0-0.7-0.2-0.8-0.5c-0.1-0.2-0.4-0.8,0.7-2.5c0.5-0.7,1.1-1.7,1.9-2.9c1.3-1.9,2.6-4.1,3.6-5.6c-1.1,0.1-3.2,0.7-4.7,1.5        c-0.2,0.1-0.4,0.2-0.5,0.3c0,0,0.1,0,0.1,0c0.2,0,0.4,0.1,0.5,0.3c0.1,0.2,0.2,0.4,0.1,0.6c-0.1,0.4-0.5,0.7-0.9,0.6        c-0.4-0.1-1.8-0.2-1.9-1.3c-0.1-0.9,1-1.6,1.9-2c1.4-0.7,4.2-1.6,5.8-1.6c0.6,0,1,0.1,1.3,0.4c0.1,0.1,0.5,0.7,0,1.4        c0,0.1-0.1,0.1-0.1,0.2c1.3-1.1,2.7-1.9,4.3-2c0.1,0,0.1,0,0.2,0c1,0,1.4,0.5,1.6,0.9c0.6,1.2-0.3,3.1-2.9,6.9        c-0.3,0.4-0.5,0.8-0.8,1.1c-0.8,1.1-1.1,2.2-1.2,2.6c0.5-0.1,1.8-0.7,5-3.6c0.3-0.3,0.9-0.3,1.1,0c0.3,0.3,0.3,0.8-0.1,1.1        C222.3,132.6,220.3,133.9,219.1,133.9z"/>
					</g>
				</g>
			</g>
		</g>
	</g>
	<path class="st0" d="M240,134.1c-0.6,0-1-0.3-1.2-0.5c-1.2-1.6,2.2-6.2,4.5-8.1c1.2-1.1,2.3-1.6,3.2-1.6c0.3,0,0.5,0,0.7,0.1   c0.6,0.2,0.9,0.8,0.8,1.4c-0.1,0.8-0.7,1.8-2.3,2.5c-0.1,0-0.2,0.1-0.3,0.1c-0.3,0-0.5-0.2-0.6-0.4c-0.1-0.3,0-0.7,0.3-0.8   c1.1-0.5,1.5-1.2,1.5-1.5c0-0.2,0-0.2-0.1-0.2c0,0-0.1,0-0.2,0c-0.3,0-1,0.1-2.4,1.3c-2.6,2.2-4.6,5.9-4.3,6.4c0,0,0.1,0,0.2,0   c0.5,0,1.9-0.4,5.6-2.9c0.3-0.2,0.7-0.1,0.9,0.2c0.2,0.3,0.1,0.7-0.2,0.9C243.3,133.1,241.2,134.1,240,134.1z"/>
	<circle class="st0" cx="235.9" cy="133.1" r="1"/>
	<path class="st0" d="M252.4,131.9c0.2,0.1,0.3,0.2,0.4,0.4s0,0.4,0,0.6c-0.1,0.2-0.3,0.5-0.5,0.6c-0.3,0.2-0.5,0.3-0.8,0.2   c-0.4-0.1-0.8-0.1-1.2-0.2c-0.4,0-0.8-0.1-1.2-0.1c-0.5,0-0.9,0-1.4,0c-0.5,0-0.9,0.1-1.4,0.1c-0.3,0-0.4-0.1-0.5-0.3   c-0.1-0.2-0.1-0.3,0-0.6c0.1-0.2,0.2-0.4,0.4-0.6c0.9-1,1.7-1.9,2.7-2.8c0.9-0.9,1.9-1.8,2.8-2.6l0.6-0.5c-0.6,0-1.1,0-1.7,0   c-0.5,0-1.1,0.1-1.7,0.1c-0.3,0-0.4-0.1-0.5-0.3c-0.1-0.2-0.1-0.4,0-0.6c0.1-0.2,0.2-0.4,0.3-0.5c0.2-0.2,0.3-0.3,0.6-0.4   c0.6-0.1,1.3-0.1,1.9-0.2s1.2,0,1.9,0c0.3,0,0.6,0,0.8,0s0.5,0,0.8,0c0.4,0.2,0.5,0.5,0.3,0.9c0,0.1-0.1,0.2-0.2,0.4   c-0.1,0.1-0.2,0.2-0.3,0.4l-1.5,1.4c-0.8,0.7-1.6,1.4-2.4,2.2c-0.8,0.8-1.6,1.5-2.3,2.2c0.2,0,0.4,0,0.6,0c0.2,0,0.4,0,0.6,0   c0.5,0,1,0,1.4,0.1C251.4,131.7,251.9,131.8,252.4,131.9L252.4,131.9z"/>
</g>
</svg>