<svg width="24" height="22" viewBox="0 0 24 22" fill="none" xmlns="http://www.w3.org/2000/svg">
<g clip-path="url(#clip0_441_1159)">
<path d="M1.10402 1.88366H22.8927C23.2478 1.88366 23.5363 1.5937 23.5363 1.23506C23.5363 0.876932 23.2478 0.585938 22.8927 0.585938H1.10402C0.748941 0.585938 0.460938 0.876932 0.460938 1.23506C0.460938 1.5937 0.748941 1.88366 1.10402 1.88366Z" fill="black"/>
<path d="M1.10402 11.6529H22.8927C23.2478 11.6529 23.5363 11.363 23.5363 11.0046C23.5363 10.6459 23.2478 10.3555 22.8927 10.3555H1.10402C0.748941 10.3555 0.460938 10.6459 0.460938 11.0046C0.460938 11.363 0.748941 11.6529 1.10402 11.6529Z" fill="black"/>
<path d="M1.10402 21.4183H22.8927C23.2478 21.4183 23.5363 21.1278 23.5363 20.7697C23.5363 20.4111 23.2478 20.1211 22.8927 20.1211H1.10402C0.748941 20.1211 0.460938 20.4111 0.460938 20.7697C0.460938 21.1278 0.748941 21.4183 1.10402 21.4183Z" fill="black"/>
</g>
<defs>
<clipPath id="clip0_441_1159">
<rect width="24" height="22" fill="white"/>
</clipPath>
</defs>
</svg>
