<svg width="30" height="31" viewBox="0 0 30 31" fill="none" xmlns="http://www.w3.org/2000/svg">
<path d="M10.7551 14.6726H4.90698V20.1616H10.7551V14.6726ZM9.32105 18.8951C9.33845 19.0666 9.26513 19.2356 9.12719 19.34C8.9905 19.4444 8.80907 19.4705 8.64752 19.4084L7.83232 19.0952L7.01836 19.4084C6.9612 19.4307 6.90031 19.4407 6.84066 19.4407C6.73379 19.4407 6.62692 19.4059 6.53993 19.3388C6.40323 19.2344 6.32868 19.0666 6.34607 18.8939L6.42436 18.0887L5.84031 17.3679C5.73096 17.2337 5.69989 17.0535 5.75705 16.8907C5.81422 16.7279 5.95091 16.6061 6.11991 16.5701L6.91274 16.3961L7.41602 15.6195C7.50798 15.4778 7.66456 15.3933 7.83232 15.3933C8.00133 15.3933 8.15789 15.4778 8.24986 15.6195L8.75438 16.3961L9.54597 16.5701C9.71498 16.6074 9.85167 16.7292 9.90883 16.8907C9.96599 17.0535 9.93493 17.2337 9.82681 17.3679L9.244 18.0887L9.32105 18.8951Z" fill="black"/>
<path d="M17.5901 20.1616V14.6726H11.7496V20.1616H17.5901ZM12.9575 16.5703L13.7478 16.3963L14.2524 15.6196C14.3443 15.478 14.5009 15.3934 14.6699 15.3934C14.8389 15.3934 14.9955 15.4779 15.0874 15.6196L15.592 16.3963L16.3836 16.5703C16.5526 16.6075 16.6893 16.7293 16.7464 16.8909C16.8036 17.0537 16.7713 17.2338 16.6632 17.3681L16.0791 18.0888L16.1574 18.8941C16.1748 19.0655 16.1015 19.2345 15.9635 19.3389C15.8753 19.406 15.7697 19.4408 15.6628 19.4408C15.6032 19.4408 15.5423 19.4309 15.4851 19.4085L14.6699 19.0954L13.8559 19.4085C13.6944 19.4706 13.5142 19.4446 13.3763 19.3402C13.2396 19.2358 13.165 19.068 13.1824 18.8953L13.2607 18.0901L12.6767 17.3693C12.5673 17.2351 12.5362 17.0549 12.5934 16.8921C12.6518 16.7293 12.7885 16.6075 12.9575 16.5703Z" fill="black"/>
<path d="M18.5842 14.6726V20.1616H24.4311V14.6726H18.5842ZM22.9918 18.8951C23.0092 19.0666 22.9359 19.2356 22.798 19.34C22.6601 19.4444 22.4799 19.4705 22.3183 19.4084L21.5031 19.0952L20.6892 19.4084C20.632 19.4307 20.5711 19.4407 20.5115 19.4407C20.4046 19.4407 20.2977 19.4059 20.2107 19.3388C20.074 19.2344 19.9995 19.0666 20.0169 18.8939L20.0952 18.0887L19.5111 17.3679C19.4017 17.2337 19.3707 17.0535 19.4278 16.8907C19.485 16.7279 19.6217 16.6061 19.7907 16.5701L20.5835 16.3961L21.0868 15.6195C21.1788 15.4778 21.3353 15.3933 21.5031 15.3933C21.6721 15.3933 21.8287 15.4778 21.9207 15.6195L22.4252 16.3961L23.2168 16.5701C23.3858 16.6074 23.5225 16.7292 23.5796 16.8907C23.6368 17.0535 23.6057 17.2337 23.4976 17.3679L22.9148 18.0887L22.9918 18.8951Z" fill="black"/>
<path d="M25.5779 26.8744H22.1905C22.1569 26.8744 22.1284 26.9042 22.1284 26.9365L22.1271 30.8186H25.6402V26.9365C25.6402 26.903 25.6115 26.8744 25.5779 26.8744Z" fill="black"/>
<path d="M16.8046 6.6199L15.0164 4.88013C14.8225 4.69248 14.5168 4.69248 14.323 4.88013L12.5335 6.6199C11.3678 7.75323 11.307 9.02821 11.6388 9.84348C11.9159 10.5257 12.4788 10.9718 13.1362 11.0489L12.8317 12.3885C12.7982 12.5351 12.833 12.6905 12.9274 12.8085C13.0219 12.9266 13.1648 12.9949 13.3151 12.9949H16.0329C16.3075 12.9949 16.53 12.7725 16.53 12.4978C16.53 12.4258 16.515 12.3562 16.4865 12.294L16.2031 11.0476C16.8605 10.9706 17.4234 10.5232 17.7006 9.84221C18.0311 9.02825 17.9702 7.75326 16.8046 6.6199Z" fill="black"/>
<path d="M28.436 24.0275H0.903036L0.0182623 29.176C-0.0463556 29.5538 0.0617567 29.9316 0.322719 30.2423C0.627176 30.6026 1.09319 30.8189 1.56914 30.8189H21.1339V26.9368C21.1339 26.354 21.6086 25.8805 22.1902 25.8805H25.5776C26.1604 25.8805 26.6339 26.3552 26.6339 26.9368V30.8189H27.7672C28.2432 30.8189 28.7092 30.6026 29.0149 30.2423C29.2758 29.9328 29.384 29.5551 29.3181 29.1773L28.436 24.0275ZM8.23999 27.6923H5.40669C5.13206 27.6923 4.90962 27.4699 4.90962 27.1952C4.90962 26.9206 5.13206 26.6982 5.40669 26.6982H8.23999C8.51463 26.6982 8.73707 26.9206 8.73707 27.1952C8.73707 27.4699 8.51463 27.6923 8.23999 27.6923ZM13.673 27.6923H10.8371C10.5625 27.6923 10.3401 27.4699 10.3401 27.1952C10.3401 26.9206 10.5625 26.6982 10.8371 26.6982H13.673C13.9476 26.6982 14.17 26.9206 14.17 27.1952C14.17 27.4699 13.9476 27.6923 13.673 27.6923ZM19.1059 27.6923H16.2701C15.9955 27.6923 15.773 27.4699 15.773 27.1952C15.773 26.9206 15.9955 26.6982 16.2701 26.6982H19.1059C19.3806 26.6982 19.603 26.9206 19.603 27.1952C19.603 27.4699 19.3806 27.6923 19.1059 27.6923Z" fill="black"/>
<path d="M3.91315 23.0333V13.702C3.91315 7.77056 8.7385 2.94554 14.6697 2.94554C20.5999 2.94554 25.4252 7.77088 25.4252 13.702V23.0321H28.4362V13.7653C28.4362 6.17516 22.2601 0 14.6699 0C7.07972 0 0.903609 6.17484 0.903609 13.7653V23.0333H3.91315Z" fill="black"/>
<path d="M4.90698 21.1554H24.4295V23.0331H4.90698V21.1554Z" fill="black"/>
</svg>
