<svg xmlns="http://www.w3.org/2000/svg" xml:space="preserve" id="Layer_1" x="0" y="0" viewBox="104.5 60.07 199.22 74.07"><style>.st0{fill:#787878}</style><path d="m222.2 103.6-3.6-5.4h11.2c2.2 0 3.3-.6 3.3-1.9V96c0-.9-.3-1.5-.8-1.8-.6-.2-1.4-.3-2.6-.3h-12.9l-3.7-5.4h20c4.2 0 6.7 2.6 6.7 5.4v4.4c0 1.6-1.3 2.6-2.2 2.7 1 .1 2.2 1 2.2 3.4v3.5c0 3-2.8 5.4-6.7 5.4H208V96.6h6.7v11.3h15c1.2 0 2-.1 2.6-.4s.8-.9.8-2c0-.7-.3-1.3-.8-1.6s-1.4-.4-2.6-.4h-7.5z" class="st0"/><path d="m220.6 103.6-3.6-5.4h11.2c2.2 0 3.3-.6 3.3-1.9V96c0-.9-.3-1.5-.8-1.8-.6-.2-1.4-.3-2.6-.3h-12.9l-3.7-5.4h20c4.2 0 6.7 2.6 6.7 5.4v4.4c0 1.6-1.3 2.6-2.2 2.7 1 .1 2.2 1 2.2 3.4v3.5c0 3-2.8 5.4-6.7 5.4h-25.1V96.6h6.7v11.3h15c1.2 0 2-.1 2.6-.4s.8-.9.8-2c0-.7-.3-1.3-.8-1.6s-1.4-.4-2.6-.4h-7.5z" class="st0"/><path d="m221.4 103.6-3.6-5.4H229c2.2 0 3.3-.6 3.3-1.9V96c0-.9-.3-1.5-.8-1.8-.6-.2-1.4-.3-2.6-.3H216l-3.7-5.4h20c4.2 0 6.7 2.6 6.7 5.4v4.4c0 1.6-1.3 2.6-2.2 2.7 1 .1 2.2 1 2.2 3.4v3.5c0 3-2.8 5.4-6.7 5.4h-25.1V96.6h6.7v11.3h15c1.2 0 2-.1 2.6-.4s.8-.9.8-2c0-.7-.3-1.3-.8-1.6s-1.4-.4-2.6-.4h-7.5zM249.3 107.9v-4.2h13.2l3.6-5.4h-14.5l-2.3 3.4v-6.3l-2.2-1.5h21.1l3.7-5.4h-29.3v24.8h25.7l3.6-5.4z" class="st0"/><path d="M247.7 107.9v-4.2h13.2l3.6-5.4H250l-2.3 3.4v-6.3l-2.2-1.5h21.1l3.7-5.4h-29.2v24.8h25.6l3.6-5.4z" class="st0"/><path d="M248.5 107.9v-4.2h13.2l3.6-5.4h-14.5l-2.3 3.4v-6.3l-2.2-1.5h21.1l3.7-5.4h-29.2v24.8h25.6l3.6-5.4zM135.3 88.5h-29.2v24.8h6.7v-9.6h13.1l3.6-5.4h-14.4l-2.3 3.4v-6.3l-2.3-1.5h21.1z" class="st0"/><path d="M133.7 88.5h-29.2v24.8h6.7v-9.6h13.1l3.6-5.4h-14.4l-2.3 3.4v-6.3l-2.3-1.5H130z" class="st0"/><path d="M134.5 88.5h-29.2v24.8h6.7v-9.6h13.1l3.6-5.4h-14.4l-2.3 3.4v-6.3l-2.3-1.5h21.1zM300 93.9h-18c-1.2 0-2 .2-2.6.5s-.8.9-.8 1.8c0 .7.3 1.2.8 1.5s1.4.5 2.4.5H297c3.9 0 6.7 2.2 6.7 5.3v4.4c0 3.1-2.8 5.4-6.7 5.4h-25.1l3.6-5.4h18.1c1.2 0 2-.2 2.6-.5s.8-.9.8-1.8q0-2.1-3.3-2.1h-15.2c-3.9 0-6.7-2.2-6.7-5.2v-4.4c0-3 2.6-5.4 6.7-5.4h25.1z" class="st0"/><path d="M298.4 93.9h-18c-1.2 0-2 .2-2.6.5s-.8.9-.8 1.8c0 .7.3 1.2.8 1.5s1.4.5 2.4.5h15.2c3.9 0 6.7 2.2 6.7 5.3v4.4c0 3.1-2.8 5.4-6.7 5.4h-25.1l3.6-5.4H292c1.2 0 2-.2 2.6-.5s.8-.9.8-1.8q0-2.1-3.3-2.1H277c-3.9 0-6.7-2.2-6.7-5.2v-4.4c0-3 2.6-5.4 6.7-5.4h25.1z" class="st0"/><path d="M299.2 93.9h-18c-1.2 0-2 .2-2.6.5s-.8.9-.8 1.8c0 .7.3 1.2.8 1.5s1.4.5 2.4.5h15.2c3.9 0 6.7 2.2 6.7 5.3v4.4c0 3.1-2.8 5.4-6.7 5.4h-25.1l3.6-5.4h18.1c1.2 0 2-.2 2.6-.5s.8-.9.8-1.8q0-2.1-3.3-2.1h-15.2c-3.9 0-6.7-2.2-6.7-5.2v-4.4c0-3 2.6-5.4 6.7-5.4h25.1zM161.2 88.5h-18.4c-4 0-6.7 2.3-6.7 5.4V108c0 3.1 2.9 5.3 6.7 5.3h18.4c4.1 0 6.7-2 6.7-5.3V93.9c-.1-3-2.6-5.4-6.7-5.4m0 16.5q0 3-3.3 3H146q-3.3 0-3.3-3v-9.1l-2.9-2h17.9c2.3 0 3.4 1.1 3.4 3.2v7.9z" class="st0"/><path d="M159.6 88.5h-18.4c-4 0-6.7 2.3-6.7 5.4V108c0 3.1 2.9 5.3 6.7 5.3h18.4c4.1 0 6.7-2 6.7-5.3V93.9c-.1-3-2.6-5.4-6.7-5.4m0 16.5q0 3-3.3 3h-11.9q-3.3 0-3.3-3v-9.1l-2.9-2h17.9c2.3 0 3.4 1.1 3.4 3.2v7.9z" class="st0"/><path d="M160.4 88.5H142c-4 0-6.7 2.3-6.7 5.4V108c0 3.1 2.9 5.3 6.7 5.3h18.4c4.1 0 6.7-2 6.7-5.3V93.9c-.1-3-2.6-5.4-6.7-5.4m0 16.5q0 3-3.3 3h-11.9q-3.3 0-3.3-3v-9.1l-2.9-2h18c2.3 0 3.4 1.1 3.4 3.2zM203.2 100.3v-6.4c-.5-3-2.7-4.8-6.7-5.4h-25.1v24.9h6.7v-18l-2.2-1.5h17.2c2.3 0 3.4 1.1 3.4 3.2v.1q0 3-3.3 3h-7.5l-3.6 5.4h10.1l3.6 7.8h8.4l-4.6-8.5c2.1-1 3.3-2.5 3.6-4.6" class="st0"/><path d="M201.6 100.3v-6.4c-.5-3-2.7-4.8-6.7-5.4h-25.1v24.9h6.7v-18l-2.2-1.5h17.2c2.3 0 3.4 1.1 3.4 3.2v.1q0 3-3.3 3h-7.5l-3.6 5.4h10.1l3.6 7.8h8.4l-4.6-8.5c2.1-1 3.3-2.5 3.6-4.6" class="st0"/><path d="M202.4 100.3v-6.4c-.5-3-2.7-4.8-6.7-5.4h-25.1v24.9h6.7v-18l-2.2-1.5h17.2c2.3 0 3.4 1.1 3.4 3.2v.1q0 3-3.3 3H185l-3.6 5.4h10.1l3.6 7.8h8.4l-4.6-8.5c2-1 3.2-2.5 3.5-4.6" class="st0"/><path d="M222.5 83.6h-25.1v-1.5h25.1zm.9-3.2h-26.8c-.5 0-.8.4-.8.8v3.2c0 .5.4.8.8.8h26.8c.5 0 .8-.4.8-.8v-3.2c0-.4-.4-.8-.8-.8m4.7-10.6c0-.6-.5-1.2-1.2-1.2s-1.2.5-1.2 1.2l-4.1 2.9-1.3-7.3c.4-.2.6-.6.6-1 0-.6-.5-1.2-1.2-1.2s-1.2.5-1.2 1.2c0 .3.1.5.2.7l-4.5 5.6-3.7-8.6c.2-.2.3-.4.3-.7 0-.6-.5-1.2-1.2-1.2-.6 0-1.2.5-1.2 1.2 0 .3.2.7.4.9l-3.6 8.2-4.3-5.4c.1-.2.2-.4.2-.7 0-.6-.5-1.2-1.2-1.2s-1.2.5-1.2 1.2c0 .5.3.9.7 1l-1.2 7-3.8-2.6v-.2c0-.6-.5-1.2-1.2-1.2-.6 0-1.2.5-1.2 1.2 0 .6.5 1.1 1 1.2l2.7 8.1c.1.3.4.6.8.6h26.8c.4 0 .7-.2.8-.6L227 71c.6-.1 1.1-.6 1.1-1.2m-5.3 7.9h-25.6l-1.7-5.2 2.8 2c.2.2.5.2.8.1s.5-.3.5-.6l1.1-6.5 4 5.1c.2.2.5.3.8.3s.5-.2.7-.5l3.5-8 3.6 8.3c.1.3.4.5.7.5s.6-.1.8-.3l4.2-5.3 1.2 6.7c0 .3.2.5.5.6s.6.1.8-.1l3.2-2.2z" style="opacity:.5;fill:#787878"/><path d="M228.1 69.8c0-.6-.5-1.2-1.2-1.2-.6 0-1.2.5-1.2 1.2l-4.2 2.9-1.3-7.3s0-.1-.1-.1c.4-.2.6-.5.6-1 0-.6-.5-1.2-1.2-1.2s-1.2.5-1.2 1.2c0 .3.1.5.3.7l-4.5 5.7-3.8-8.7c.1-.2.3-.4.3-.7 0-.6-.5-1.2-1.2-1.2-.6 0-1.2.5-1.2 1.2 0 .3.2.6.4.9l-3.6 8.3-4.3-5.4c.1-.2.3-.4.3-.6 0-.6-.5-1.2-1.2-1.2-.6 0-1.2.5-1.2 1.2 0 .5.3.8.7 1v.1l-1.2 7-3.8-2.6h-.1c0-.1.1-.1.1-.2 0-.6-.5-1.2-1.2-1.2-.6 0-1.2.5-1.2 1.2 0 .6.5 1.1 1.1 1.1v.1l2.7 8.1c.1.3.4.6.8.6h26.8c.4 0 .7-.2.8-.6l2.9-8c.6-.3 1.1-.7 1.1-1.3m-5.3 7.9h-25.6l-1.7-5.2 2.8 2c.2.2.5.2.8.1s.5-.3.5-.6l1.1-6.5 4 5.1c.2.2.5.3.8.3s.5-.2.7-.5l3.5-8 3.6 8.3c.1.3.4.5.7.5s.6-.1.8-.3l4.2-5.3 1.2 6.7c0 .3.2.5.5.6s.6.1.8-.1l3.2-2.2zm.6 2.7h-26.8c-.5 0-.8.4-.8.8v3.2c0 .5.4.8.8.8h26.8c.5 0 .8-.4.8-.8v-3.2c0-.4-.4-.8-.8-.8m-.9 3.2h-25.1v-1.5h25.1zM193.3 133.9h-.2c-.7-.1-2.4-.5-2.9-3.2-.4.1-.8 0-1-.4s0-.8.3-1.1c2.4-1.3 4.4-2.6 5.9-3.6.1 0 .1-.2.1-.3-.2-1.6.1-2.9.8-3.8q.9-1.05 2.4-.9c1.4.2 1.7 1 1.7 1.4.1 1-.9 2.3-3 4-.1 0-.1.2-.1.2 0 .2.1.4.2.6.4 1.2.7 2.9 0 4.2-.8 1.7-2.6 2.9-4.2 2.9m-1.8-3.9c.1.1.2.2.2.4.2 1.2.7 1.9 1.5 1.9 1 .1 2.3-.8 3-2 .4-.6.1-1.9-.2-2.9 0-.1 0-.1-.1-.2-1.2.9-2.7 1.8-4.4 2.8m6.9-7.7c-.3 0-.6.1-.8.3-.3.3-.5 1-.5 1.7 1.4-1.2 1.7-1.8 1.8-2-.1 0-.2-.1-.4-.1 0 .1-.1.1-.1.1" class="st0"/><path d="M181.1 133.4c-.6 0-1.1-.1-1.6-.4-1.1-.7-1.5-2.2-1.1-3.9.9-3.3 4.9-7.4 8.1-8.4 1.4-.4 2.7-.2 3.5.5.7.6.9 1.6.7 2.5-.1.4-.5.7-.9.6-.2 0-.4-.2-.5-.3-.1-.2-.2-.4-.1-.6.1-.4 0-.8-.2-1-.4-.3-1.1-.4-1.9-.2-2.6.8-6.3 4.6-7 7.2-.3 1-.1 1.9.4 2.2.2.1.4.2.7.2.8 0 1.8-.4 2.9-1.2h.1s0-.1.1-.2c.4-1.3 1.3-2.6 2.5-3.8 1.8-1.7 2.5-1.9 2.9-1.9h.3c.4.1.6.4.7.8.2 1.6-3.9 5.1-4.8 5.8-.1 0-.1.1-.2.1 0 .2 0 .4.1.4h.1c.3 0 1.2-.2 3.5-2.2.3-.3.9-.3 1.1 0 .3.3.3.8-.1 1.1-1.9 1.7-3.4 2.6-4.6 2.6-.7 0-1.1-.3-1.3-.5-.1-.1-.2-.3-.3-.5-1.2.8-2.2 1.1-3.1 1.1" class="st0"/><path d="M167.9 133.6c-.9 0-1.5-.3-1.9-.8-2.1-2.9 4.4-11.4 8.5-15 2.2-1.9 4.3-2.9 5.9-2.9.4 0 .8.1 1.2.2.9.4 1.4 1.3 1.3 2.3-.1 1.3-1.2 3.2-4.1 4.5-.4.2-.9 0-1.1-.4-.1-.4 0-.8.4-1 2.3-1.1 3-2.5 3.1-3.1 0-.4-.1-.6-.4-.8-.1 0-.3-.1-.6-.1-.7 0-2.3.3-4.8 2.5-4.9 4.2-9.2 11.4-8.2 12.8.1.2.5.2.7.2 1.3 0 4.2-1 11-5.6.4-.2.9-.1 1.1.2.2.4.1.8-.2 1.1-5.8 3.9-9.7 5.9-11.9 5.9M202.4 133.6c-.3 0-.5-.1-.7-.2-.4-.3-1.6-1.3 3.3-8.7.7-1.1 1.1-1.8 1.3-2.2-.7.4-2 1.3-4.4 3.4-.3.3-.8.3-1.1 0s-.3-.8.1-1.1c4.5-4.2 5.7-4.2 6.1-4.2.3 0 .5.1.7.2.8.7.5 1.9-1.4 4.7-2.2 3.4-3.2 5.4-3.4 6.3.7-.3 2.3-1.5 6.2-5.1.3-.3.8-.3 1.1 0 .1.1.2.3.2.6q0 .3-.3.6c-5.3 5.1-6.9 5.7-7.7 5.7M208.7 120.5c-.1 0-.3 0-.4-.1-.2-.1-.3-.3-.4-.5s0-.4.1-.6c.4-.6.8-1.5 1-1.8.2-.4.6-.6 1-.4.2.1.4.2.4.4q.15.3 0 .6c-.2.5-.7 1.4-1.1 2 0 .3-.3.4-.6.4M226.2 133.9c-.9 0-1.6-.4-2-1.2-.6-1.3-.1-3.4 1.4-5.8 2.2-3.4 5.7-6.1 8-6.1.6 0 1.1.3 1.4.8.1.2.3.6.1 1.2.1.1.2.1.3.2.3.3.5 1 .2 2.1.3-.1.7-.3 1.1-.5.1-.1.3-.1.4-.1.3 0 .6.2.7.4.2.4 0 .8-.4 1.1-1 .5-1.8.8-2.5.9h-.2c-.1.2-.3.5-.5.8-2.2 3.5-5.7 6.2-8 6.2m7.3-11.5c-1.5 0-4.6 2.1-6.6 5.3-1.3 2.1-1.6 3.6-1.3 4.2 0 .1.1.3.6.3 1.5 0 4.6-2.1 6.6-5.3.1-.1.2-.3.2-.4-.5-.4-.7-1.1-.5-1.9.1-.7.5-1.3.8-1.6 0-.2.1-.4.2-.6" class="st0"/><g style="opacity:.2"><path d="M234.3 123.6c-.3.1-.6.5-.7 1.1 0 .3-.1.8.3 1.1 0 0 .1 0 .1.1h.1c.6-1.2.6-1.9.4-2.1l-.1-.1z" style="fill-rule:evenodd;clip-rule:evenodd;fill:#787878"/></g><path d="M219.1 133.9c-.4 0-.6-.1-.9-.3-1.4-1.2.7-4.4 1-4.8.2-.4.5-.7.8-1.1 2.9-4.1 2.8-5 2.7-5.2h-.3c-2.6.1-4.7 2.7-6.4 5.3-.5.7-.9 1.4-1.4 2.1-1.8 2.8-2.6 4-3.6 4-.4 0-.7-.2-.8-.5-.1-.2-.4-.8.7-2.5.5-.7 1.1-1.7 1.9-2.9 1.3-1.9 2.6-4.1 3.6-5.6-1.1.1-3.2.7-4.7 1.5-.2.1-.4.2-.5.3h.1c.2 0 .4.1.5.3s.2.4.1.6c-.1.4-.5.7-.9.6s-1.8-.2-1.9-1.3c-.1-.9 1-1.6 1.9-2 1.4-.7 4.2-1.6 5.8-1.6.6 0 1 .1 1.3.4.1.1.5.7 0 1.4 0 .1-.1.1-.1.2 1.3-1.1 2.7-1.9 4.3-2h.2c1 0 1.4.5 1.6.9.6 1.2-.3 3.1-2.9 6.9-.3.4-.5.8-.8 1.1-.8 1.1-1.1 2.2-1.2 2.6.5-.1 1.8-.7 5-3.6.3-.3.9-.3 1.1 0 .3.3.3.8-.1 1.1-2.9 2.8-4.9 4.1-6.1 4.1M240 134.1c-.6 0-1-.3-1.2-.5-1.2-1.6 2.2-6.2 4.5-8.1 1.2-1.1 2.3-1.6 3.2-1.6.3 0 .5 0 .7.1.6.2.9.8.8 1.4-.1.8-.7 1.8-2.3 2.5-.1 0-.2.1-.3.1-.3 0-.5-.2-.6-.4-.1-.3 0-.7.3-.8 1.1-.5 1.5-1.2 1.5-1.5 0-.2 0-.2-.1-.2h-.2c-.3 0-1 .1-2.4 1.3-2.6 2.2-4.6 5.9-4.3 6.4h.2c.5 0 1.9-.4 5.6-2.9.3-.2.7-.1.9.2s.1.7-.2.9c-2.8 2.1-4.9 3.1-6.1 3.1" class="st0"/><circle cx="235.9" cy="133.1" r="1" class="st0"/><path d="M252.4 131.9c.2.1.3.2.4.4s0 .4 0 .6c-.1.2-.3.5-.5.6-.3.2-.5.3-.8.2-.4-.1-.8-.1-1.2-.2-.4 0-.8-.1-1.2-.1h-1.4c-.5 0-.9.1-1.4.1-.3 0-.4-.1-.5-.3s-.1-.3 0-.6c.1-.2.2-.4.4-.6.9-1 1.7-1.9 2.7-2.8.9-.9 1.9-1.8 2.8-2.6l.6-.5h-1.7c-.5 0-1.1.1-1.7.1-.3 0-.4-.1-.5-.3q-.15-.3 0-.6c.1-.2.2-.4.3-.5.2-.2.3-.3.6-.4.6-.1 1.3-.1 1.9-.2s1.2 0 1.9 0h1.6q.6.3.3.9c0 .1-.1.2-.2.4-.1.1-.2.2-.3.4l-1.5 1.4c-.8.7-1.6 1.4-2.4 2.2s-1.6 1.5-2.3 2.2h1.2c.5 0 1 0 1.4.1.5-.1 1 0 1.5.1" class="st0"/></svg>