<svg width="65" height="50" viewBox="0 0 65 50" fill="none" xmlns="http://www.w3.org/2000/svg">
<path d="M51.0722 21.2948C51.0722 20.9924 50.9339 20.6899 50.7126 20.47C50.4913 20.25 50.1871 20.14 49.8552 20.14C49.5233 20.14 49.2466 20.25 48.9977 20.47C48.7764 20.6899 48.6381 20.9924 48.6381 21.2948C48.6381 21.2948 48.6381 21.2948 48.6381 21.3498L44.2954 24.3192L42.9676 16.7582C42.9676 16.7582 42.9123 16.6757 42.9123 16.6482C43.1059 16.5657 43.2719 16.4283 43.3825 16.2633C43.4932 16.0983 43.5762 15.8784 43.5762 15.6859C43.5762 15.521 43.5762 15.356 43.4932 15.2185C43.4379 15.0535 43.3548 14.9161 43.2443 14.8061C43.1336 14.6961 42.9953 14.5861 42.857 14.5312C42.7187 14.4762 42.5527 14.4212 42.3868 14.4212C42.2208 14.4212 42.0548 14.4487 41.9165 14.5312C41.7782 14.5861 41.6399 14.6961 41.5293 14.8061C41.4186 14.9161 41.3356 15.0535 41.2803 15.2185C41.225 15.3835 41.1973 15.521 41.1973 15.6859C41.1973 15.9334 41.308 16.1808 41.5016 16.4008L36.7716 22.2846L32.8437 13.2939C33.0097 13.1014 33.1204 12.854 33.148 12.6065C33.148 12.4416 33.148 12.2766 33.0651 12.1391C33.0097 11.9742 32.9268 11.8367 32.8161 11.7267C32.7055 11.6167 32.5672 11.5068 32.4289 11.4518C32.2905 11.3968 32.1246 11.3418 31.9586 11.3418C31.7926 11.3418 31.6267 11.3693 31.4884 11.4518C31.3501 11.5068 31.2118 11.6167 31.1011 11.7267C30.9905 11.8367 30.9075 11.9742 30.8522 12.1391C30.7969 12.3041 30.7692 12.4416 30.7692 12.6065C30.7692 12.7715 30.7969 12.9365 30.8798 13.1014C30.9628 13.2664 31.0458 13.3764 31.1841 13.4864L27.4499 22.0371L22.9135 16.4283C22.9135 16.4283 22.8582 16.4283 22.8582 16.3733C23.0242 16.1808 23.1348 15.9609 23.1348 15.7134C23.1348 15.5484 23.1348 15.3835 23.0518 15.246C22.9965 15.081 22.9135 14.9436 22.8029 14.8336C22.6922 14.7236 22.5539 14.6136 22.4157 14.5586C22.2773 14.5037 22.1114 14.4487 21.9454 14.4487C21.7794 14.4487 21.6135 14.4762 21.4751 14.5586C21.3369 14.6136 21.1986 14.7236 21.0879 14.8336C20.9773 14.9436 20.8943 15.081 20.839 15.246C20.7836 15.411 20.756 15.5484 20.756 15.7134C20.756 15.9334 20.839 16.1533 20.9773 16.3183C21.1156 16.4833 21.2815 16.6482 21.4751 16.7032C21.4751 16.7307 21.4199 16.7582 21.4199 16.7857L20.1198 24.0443L16.1366 21.2948C16.1366 21.2948 16.0813 21.2948 16.0537 21.2948C16.0537 21.2123 16.1366 21.1573 16.1366 21.0748C16.1366 20.9099 16.1366 20.7449 16.0537 20.6074C15.9983 20.4425 15.9153 20.305 15.8047 20.195C15.6941 20.085 15.5558 19.9751 15.4175 19.9201C15.2792 19.8651 15.1132 19.8101 14.9472 19.8101C14.7813 19.8101 14.6153 19.8376 14.477 19.9201C14.3387 19.9751 14.2004 20.085 14.0897 20.195C13.9791 20.305 13.8961 20.4425 13.8408 20.6074C13.7855 20.7724 13.7578 20.9099 13.7578 21.0748C13.7578 21.3773 13.8685 21.6522 14.0897 21.8722C14.2834 22.0921 14.56 22.2296 14.8642 22.2571C14.8642 22.2571 14.8642 22.3121 14.8642 22.3396L17.658 30.7529C17.7133 30.9179 17.8239 31.0828 17.9899 31.1928C18.1282 31.3028 18.3218 31.3578 18.5155 31.3578H46.4529C46.6188 31.3578 46.8125 31.3028 46.9508 31.1928C47.0891 31.0828 47.1997 30.9453 47.2827 30.7804L50.2701 22.532C50.5467 22.5045 50.64 22.0136 50.8336 21.7937C51.0273 21.5737 50.8336 21.4048 50.8336 21.1299L51.0722 21.2948ZM45.5401 29.5431H18.8751L17.1048 24.1817L20.0645 26.2163C20.0645 26.2163 20.3134 26.3538 20.4794 26.3538C20.6177 26.3538 20.7836 26.3538 20.8943 26.2988C21.0326 26.2438 21.1432 26.1613 21.2262 26.0513C21.3092 25.9414 21.3646 25.8039 21.3922 25.6664L22.5816 18.9578L26.8137 24.2092C26.8137 24.2092 27.035 24.4292 27.1733 24.4842C27.3116 24.5392 27.4776 24.5667 27.6158 24.5392C27.7542 24.5392 27.9201 24.4567 28.0308 24.3742C28.1414 24.2917 28.2521 24.1542 28.3074 24.0168L31.931 15.7134L35.6651 24.2642C35.7205 24.4017 35.8311 24.5117 35.9418 24.6216C36.0524 24.7041 36.2184 24.7591 36.3567 24.7866C36.495 24.7866 36.6609 24.7866 36.7993 24.7316C36.9376 24.6766 37.0759 24.5941 37.1589 24.4567L41.5845 18.9578L42.8293 25.9414C42.8293 26.0788 42.9123 26.2163 42.9953 26.3263C43.0783 26.4362 43.2166 26.5187 43.3272 26.5737C43.4655 26.6287 43.6038 26.6562 43.7421 26.6287C43.8804 26.6287 44.0187 26.5737 44.157 26.4912L47.4487 24.2367L45.5124 29.5157L45.5401 29.5431ZM46.1763 32.32H18.2389C18.0176 32.32 17.7963 32.4025 17.6303 32.5675C17.4644 32.7325 17.3814 32.9524 17.3814 33.1724V36.4717C17.3814 36.6917 17.4644 36.9116 17.6303 37.0766C17.7963 37.2416 18.0176 37.324 18.2389 37.324H46.1486C46.3699 37.324 46.5912 37.2416 46.7572 37.0766C46.9231 36.9116 47.0061 36.6917 47.0061 36.4717V33.1724C47.0061 33.1724 47.0061 32.9524 46.9508 32.8424C46.8955 32.7325 46.8401 32.65 46.7572 32.5675C46.6741 32.485 46.5912 32.43 46.4805 32.375C46.3699 32.32 46.2593 32.32 46.1486 32.32H46.1763ZM45.2911 35.6194H19.124V34.0522H45.2911V35.6194Z" fill="black"/>
</svg>
