<svg width="25" height="21" viewBox="0 0 25 21" fill="none" xmlns="http://www.w3.org/2000/svg">
<path d="M23.1495 3.12831C23.9554 3.12831 24.6094 3.78234 24.6094 4.58819V16.2672C24.6094 16.6544 24.4556 17.0257 24.1818 17.2995C23.908 17.5733 23.5367 17.7271 23.1495 17.7271H1.45988C1.07269 17.7271 0.701369 17.5733 0.427588 17.2995C0.153808 17.0257 0 16.6544 0 16.2672V4.58819C0 3.78234 0.654025 3.12831 1.45988 3.12831H23.1495ZM7.99429 4.37963H1.45988C1.40457 4.37963 1.35152 4.40161 1.31241 4.44072C1.2733 4.47983 1.25132 4.53288 1.25132 4.58819V16.2672C1.25132 16.3823 1.34476 16.4758 1.45988 16.4758H7.99429V4.37963ZM15.78 4.37963H8.82851V16.4758H15.78V4.37963ZM23.1495 4.37963H16.6142V16.4758H23.1495C23.2048 16.4758 23.2579 16.4538 23.297 16.4147C23.3361 16.3756 23.3581 16.3225 23.3581 16.2672V4.58819C23.3581 4.53288 23.3361 4.47983 23.297 4.44072C23.2579 4.40161 23.2048 4.37963 23.1495 4.37963M4.35211 7.7165C4.61071 7.7165 4.98444 7.86082 5.2906 8.16531C5.35511 8.22982 5.47468 8.28126 5.64931 8.31964L6.00135 7.86082H6.67373C6.67373 8.21341 6.59809 8.68002 6.44682 9.26063C6.35172 9.62602 5.84702 10.3284 5.56172 10.9574C5.42268 11.2633 5.33231 11.8514 5.2906 12.7218H3.2743C3.18198 12.1345 3.28125 11.6267 3.57211 11.1985C3.86353 10.7692 4.35461 10.3215 5.04534 9.85543C4.78951 9.79592 4.61572 9.74003 4.52395 9.68775C4.23532 9.52424 4.01925 9.31069 3.9083 9.26063C3.69975 9.16803 3.61132 9.21225 3.57211 9.1964C3.48591 9.16136 3.38664 9.36296 3.2743 9.8012H2.50265L2.54853 7.78824H3.43447V8.05853C3.70976 7.83051 4.01564 7.7165 4.35211 7.7165M12.0686 7.7165C12.3272 7.7165 12.7009 7.86082 13.0071 8.16531C13.0716 8.22982 13.1912 8.28126 13.3658 8.31964L13.7179 7.86082H14.3902C14.3902 8.21341 14.3146 8.68002 14.1633 9.26063C14.0682 9.62602 13.5635 10.3284 13.2782 10.9574C13.1392 11.2633 13.0488 11.8514 13.0071 12.7218H10.9908C10.8985 12.1345 10.9977 11.6267 11.2886 11.1985C11.58 10.7692 12.0711 10.3215 12.7618 9.85543C12.506 9.79592 12.3319 9.74003 12.2396 9.68775C11.9518 9.52424 11.7358 9.31069 11.6248 9.26063C11.4162 9.16803 11.3278 9.21225 11.2886 9.1964C11.2024 9.16136 11.1031 9.36296 10.9908 9.8012H10.2191L10.265 7.78824H11.151V8.05853C11.4257 7.83051 11.7316 7.7165 12.0686 7.7165M19.7851 7.7165C20.0437 7.7165 20.4174 7.86082 20.7236 8.16531C20.7881 8.22982 20.9077 8.28126 21.0823 8.31964L21.4343 7.86082H22.1067C22.1067 8.21341 22.0311 8.68002 21.8798 9.26063C21.7847 9.62602 21.28 10.3284 20.9947 10.9574C20.8557 11.2633 20.7653 11.8514 20.7236 12.7218H18.7073C18.615 12.1345 18.7142 11.6267 19.0051 11.1985C19.2965 10.7692 19.7876 10.3215 20.4783 9.85543C20.2225 9.79592 20.0487 9.74003 19.957 9.68775C19.6683 9.52424 19.4523 9.31069 19.3413 9.26063C19.1327 9.16803 19.0443 9.21225 19.0051 9.1964C18.9189 9.16136 18.8196 9.36296 18.7073 9.8012H17.9356L17.9815 7.78824H18.8675V8.05853C19.1428 7.83051 19.4486 7.7165 19.7851 7.7165M21.064 0C21.1746 0 21.2807 0.0439453 21.3589 0.122168C21.4371 0.200391 21.4811 0.306484 21.4811 0.417108C21.4811 0.527732 21.4371 0.633825 21.3589 0.712048C21.2807 0.790271 21.1746 0.834216 21.064 0.834216H3.12831C3.01769 0.834216 2.91159 0.790271 2.83337 0.712048C2.75515 0.633825 2.7112 0.527732 2.7112 0.417108C2.7112 0.306484 2.75515 0.200391 2.83337 0.122168C2.91159 0.0439453 3.01769 0 3.12831 0H21.064ZM21.064 20.0212C21.1746 20.0212 21.2807 20.0651 21.3589 20.1434C21.4371 20.2216 21.4811 20.3277 21.4811 20.4383C21.4811 20.5489 21.4371 20.655 21.3589 20.7332C21.2807 20.8115 21.1746 20.8554 21.064 20.8554H3.12831C3.01769 20.8554 2.91159 20.8115 2.83337 20.7332C2.75515 20.655 2.7112 20.5489 2.7112 20.4383C2.7112 20.3277 2.75515 20.2216 2.83337 20.1434C2.91159 20.0651 3.01769 20.0212 3.12831 20.0212H21.064Z" fill="black"/>
</svg>
