<svg width="33" height="20" viewBox="0 0 33 20" fill="none" xmlns="http://www.w3.org/2000/svg">
<g clip-path="url(#clip0_456_2)">
<path fill-rule="evenodd" clip-rule="evenodd" d="M2.01904 0H30.9809C32.096 0 33 0.912497 33 2.03763V17.9624C33 19.0875 32.096 20 30.9809 20H2.01904C0.904042 20 0 19.0875 0 17.9624V2.03763C0 0.912497 0.904042 0 2.01904 0ZM10.8798 4.48764C10.7628 4.08456 10.3631 3.88301 9.6807 3.88301H4.41649C4.0558 3.88301 3.77309 3.94666 3.56837 4.07395C3.44164 4.1482 3.34903 4.2861 3.29054 4.48764C3.23205 4.68919 3.2028 4.95437 3.2028 5.28321C3.2028 5.61204 3.23205 5.87723 3.29054 6.07877C3.34903 6.28031 3.46601 6.43412 3.64149 6.5402C3.81696 6.64627 4.09967 6.69931 4.48961 6.69931H7.82361C7.82361 6.83721 7.71637 7.08118 7.50191 7.43123C7.28744 7.77067 7.0291 8.18436 6.7269 8.67231C6.42469 9.14965 6.12249 9.67472 5.82028 10.2475C5.51808 10.8203 5.25974 11.4727 5.04528 12.2046C4.83081 12.9259 4.72357 13.6313 4.72357 14.3208C4.72357 14.5648 4.72845 14.7451 4.7382 14.8618C4.75769 14.9679 4.80644 15.0846 4.88442 15.2118C4.96241 15.3391 5.08914 15.424 5.26462 15.4664C5.44984 15.5089 5.69843 15.5301 6.01038 15.5301C6.32233 15.5301 6.56605 15.5089 6.74152 15.4664C6.92674 15.424 7.05835 15.3444 7.13634 15.2278C7.21432 15.1005 7.26307 14.9838 7.28256 14.8777C7.30206 14.761 7.31181 14.586 7.31181 14.3526C7.31181 13.4298 7.74074 12.2099 8.59862 10.693C8.95931 10.0672 9.31513 9.44666 9.66608 8.83142C10.0268 8.21619 10.3339 7.59565 10.5873 6.9698C10.8408 6.33335 10.9675 5.80298 10.9675 5.37867C10.9675 4.95437 10.9383 4.65736 10.8798 4.48764ZM19.3865 3.88301C20.0689 3.88301 20.4686 4.08456 20.5856 4.48764C20.6441 4.65736 20.6733 4.95437 20.6733 5.37867C20.6733 5.80298 20.5466 6.33335 20.2931 6.9698C20.0397 7.59565 19.7326 8.21619 19.3719 8.83142C19.0209 9.44666 18.6651 10.0672 18.3044 10.693C17.4466 12.2099 17.0176 13.4298 17.0176 14.3526C17.0176 14.586 17.0079 14.761 16.9884 14.8777C16.9689 14.9838 16.9201 15.1005 16.8421 15.2278C16.7642 15.3444 16.6325 15.424 16.4473 15.4664C16.2719 15.5089 16.0281 15.5301 15.7162 15.5301C15.4042 15.5301 15.1556 15.5089 14.9704 15.4664C14.795 15.424 14.6682 15.3391 14.5902 15.2118C14.5122 15.0846 14.4635 14.9679 14.444 14.8618C14.4343 14.7451 14.4294 14.5648 14.4294 14.3208C14.4294 13.6313 14.5366 12.9259 14.7511 12.2046C14.9655 11.4727 15.2239 10.8203 15.5261 10.2475C15.8283 9.67472 16.1305 9.14965 16.4327 8.67231C16.7349 8.18436 16.9932 7.77067 17.2077 7.43123C17.4222 7.08118 17.5294 6.83721 17.5294 6.69931H14.1954C13.8055 6.69931 13.5228 6.64627 13.3473 6.5402C13.1718 6.43412 13.0548 6.28031 12.9963 6.07877C12.9379 5.87723 12.9086 5.61204 12.9086 5.28321C12.9086 4.95437 12.9379 4.68919 12.9963 4.48764C13.0548 4.2861 13.1474 4.1482 13.2742 4.07395C13.4789 3.94666 13.7616 3.88301 14.1223 3.88301H19.3865ZM30.2915 4.48764C30.1745 4.08456 29.7749 3.88301 29.0925 3.88301H23.8283C23.4676 3.88301 23.1848 3.94666 22.9801 4.07395C22.8534 4.1482 22.7608 4.2861 22.7023 4.48764C22.6438 4.68919 22.6146 4.95437 22.6146 5.28321C22.6146 5.61204 22.6438 5.87723 22.7023 6.07877C22.7608 6.28031 22.8778 6.43412 23.0532 6.5402C23.2287 6.64627 23.5114 6.69931 23.9014 6.69931H27.2354C27.2354 6.83721 27.1281 7.08118 26.9137 7.43123C26.6992 7.77067 26.4409 8.18436 26.1387 8.67231C25.8364 9.14965 25.5342 9.67472 25.232 10.2475C24.9298 10.8203 24.6715 11.4727 24.457 12.2046C24.2426 12.9259 24.1353 13.6313 24.1353 14.3208C24.1353 14.5648 24.1402 14.7451 24.15 14.8618C24.1695 14.9679 24.2182 15.0846 24.2962 15.2118C24.3742 15.3391 24.5009 15.424 24.6764 15.4664C24.8616 15.5089 25.1102 15.5301 25.4221 15.5301C25.7341 15.5301 25.9778 15.5089 26.1533 15.4664C26.3385 15.424 26.4701 15.3444 26.5481 15.2278C26.6261 15.1005 26.6748 14.9838 26.6943 14.8777C26.7138 14.761 26.7236 14.586 26.7236 14.3526C26.7236 13.4298 27.1525 12.2099 28.0104 10.693C28.3711 10.0672 28.7269 9.44666 29.0778 8.83142C29.4385 8.21619 29.7456 7.59565 29.9991 6.9698C30.2525 6.33335 30.3793 5.80298 30.3793 5.37867C30.3793 4.95437 30.35 4.65736 30.2915 4.48764Z" fill="black"/>
</g>
<defs>
<clipPath id="clip0_456_2">
<rect width="33" height="20" fill="white"/>
</clipPath>
</defs>
</svg>
