<svg width="36" height="26" viewBox="0 0 36 26" fill="none" xmlns="http://www.w3.org/2000/svg">
<path d="M36 5.11579C36 3.41053 34.5979 2.00842 32.8926 2.00842C31.1874 2.00842 29.7853 3.41053 29.7853 5.11579C29.7853 6.59368 30.8463 7.84421 32.2484 8.14737V13.1116C32.2484 13.7937 31.7179 14.3242 31.0358 14.3242H29.7474V11.1789C29.7474 9.96632 28.7621 8.98105 27.5495 8.98105H27.1705V7.80631C27.1705 5.76 25.5032 4.13053 23.4947 4.13053H21.8653C20.6526 1.70526 18 0 14.8926 0C11.7853 0 9.09474 1.70526 7.92 4.09263H6.25263C4.20632 4.09263 2.57684 5.76 2.57684 7.76842V8.94316H2.19789C0.985263 8.94316 0 9.92842 0 11.1411V18.9095C0 20.1221 0.985263 21.1074 2.19789 21.1074H2.57684V22.2442C2.57684 24.2905 4.24421 25.92 6.25263 25.92H23.4947C25.5411 25.92 27.1705 24.2526 27.1705 22.2442V21.1074H27.5495C28.7621 21.1074 29.7474 20.1221 29.7474 18.9095V15.7263H30.9979C32.4758 15.7263 33.6505 14.5137 33.6505 13.0737V8.10947C35.0147 7.76842 36 6.55579 36 5.11579ZM14.8926 1.47789C17.1284 1.47789 19.0989 2.53895 20.1979 4.13053H9.58737C10.6863 2.53895 12.6568 1.47789 14.8926 1.47789ZM4.05474 7.80631C4.05474 6.59368 5.04 5.57053 6.29053 5.57053H23.5326C24.7453 5.57053 25.7684 6.55579 25.7684 7.80631V8.98105H4.05474V7.80631ZM18.8716 10.4211V19.7053H10.9137V10.4211H18.8716ZM1.47789 18.9474V11.1411C1.47789 10.7242 1.81895 10.3832 2.23579 10.3832H9.47368V19.6674H2.19789C1.78105 19.7053 1.47789 19.3642 1.47789 18.9474ZM25.7305 22.32C25.7305 23.5326 24.7453 24.5558 23.4947 24.5558H6.25263C5.04 24.5558 4.01684 23.5705 4.01684 22.32V21.1832H25.6926V22.32H25.7305ZM28.3074 18.9474C28.3074 19.3642 27.9663 19.7053 27.5495 19.7053H20.3116V10.4211H27.5495C27.9663 10.4211 28.3074 10.7621 28.3074 11.1789V18.9474ZM32.8926 6.74526C31.9832 6.74526 31.2253 5.98737 31.2253 5.07789C31.2253 4.16842 31.9832 3.41053 32.8926 3.41053C33.8021 3.41053 34.56 4.16842 34.56 5.07789C34.56 5.98737 33.8021 6.74526 32.8926 6.74526Z" fill="black"/>
<path d="M6.63123 14.0599C6.66912 13.9841 6.66912 13.8705 6.66912 13.7947C6.66912 13.1126 6.1386 12.582 5.45649 12.582C4.77439 12.582 4.24386 13.1126 4.24386 13.7947C4.24386 13.9083 4.24386 13.9841 4.28176 14.0599C3.67544 14.1357 3.2207 14.6283 3.2207 15.2347C3.2207 15.9168 3.75123 16.4473 4.43333 16.4473C4.6607 16.4473 4.88807 16.3715 5.07755 16.2578L4.58491 17.3189C4.54702 17.3947 4.62281 17.5083 4.6986 17.5083H6.17649C6.29018 17.5083 6.32807 17.3947 6.29018 17.3189L5.79755 16.2578C5.98702 16.3715 6.21439 16.4473 6.44176 16.4473C7.12386 16.4473 7.65439 15.9168 7.65439 15.2347C7.65439 14.6283 7.19965 14.1357 6.63123 14.0599Z" fill="black"/>
<path d="M24.481 12.6193C24.4052 12.5436 24.2537 12.5436 24.1779 12.6193L22.3968 14.4004C21.9042 14.893 21.9042 15.6509 22.3968 16.1436C22.6242 16.3709 22.9652 16.4846 23.2684 16.4846C23.4958 16.4846 23.7231 16.4088 23.9126 16.2951L23.4579 17.3183C23.42 17.3941 23.4958 17.5078 23.5716 17.5078H25.0494C25.1631 17.5078 25.201 17.3941 25.1631 17.3183L24.7084 16.2951C24.8979 16.4088 25.1631 16.4846 25.3905 16.4846C25.7316 16.4846 26.0347 16.3709 26.2621 16.1057C26.7168 15.613 26.6789 14.8551 26.2242 14.3625L24.481 12.6193Z" fill="black"/>
<path d="M14.6658 17.2431C14.7795 17.3946 14.9689 17.3946 15.0826 17.2431L16.5605 15.1967C16.6363 15.121 16.6363 15.0073 16.5605 14.9315L15.0826 12.8852C14.9689 12.7336 14.7795 12.7336 14.6658 12.8852L13.2258 14.8936C13.15 14.9694 13.15 15.0831 13.2258 15.1589L14.6658 17.2431Z" fill="black"/>
</svg>
