<svg xmlns="http://www.w3.org/2000/svg" style="display: none;" xmlns:xlink="http://www.w3.org/1999/xlink">
        <symbol id="icon-alert" viewBox="0 0 32 32">
            <path
                d="M24.64 26.58H7.36c-1.46 0-2.65-1.19-2.65-2.65 0-.44.11-.87.32-1.26L13.67 6.8a2.65 2.65 0 014.66 0l8.64 15.87a2.648 2.648 0 01-2.33 3.91zm1.17-3.27L17.17 7.43c-.24-.43-.68-.69-1.17-.69s-.93.26-1.16.69L6.19 23.31a1.319 1.319 0 001.16 1.95h17.29c.73 0 1.32-.59 1.32-1.32.01-.22-.05-.44-.15-.63zm-9.81.63c-1.09 0-1.98-.89-1.98-1.98 0-1.09.89-1.98 1.98-1.98 1.09 0 1.98.89 1.98 1.98 0 1.09-.89 1.98-1.98 1.98zm0-2.65a.66.66 0 10-.001 1.321A.66.66 0 0016 21.29zm0-1.98c-.9 0-1.66-.71-1.71-1.61l-.27-4.97v-.04c0-1.09.89-1.98 1.98-1.98 1.09 0 1.98.89 1.98 1.98l-.27 5c-.05.91-.81 1.62-1.71 1.62zm0-7.28c-.36 0-.65.29-.66.65l.27 4.94c.01.21.19.37.39.37s.38-.16.39-.37l.27-4.94a.664.664 0 00-.66-.65z" />
        </symbol>

        <symbol id="icon-arrow-left" viewBox="0 0 24 24">
            <rect id="Base" width="24" height="24" fill="none" />
            <g id="icon" transform="translate(-2.5 -11.093)">
                <path id="Icon_ionic-ios-arrow-back" data-name="Icon ionic-ios-arrow-back"
                    d="M3.018,8.758l6.626,6.621a1.252,1.252,0,0,1-1.773,1.767L.364,9.645A1.249,1.249,0,0,1,.328,7.919L7.866.365A1.252,1.252,0,1,1,9.639,2.132Z"
                    transform="translate(9.494 14.375)" />
            </g>
        </symbol>

        <symbol id="icon-arrow-right" viewBox="0 0 24 24">
            <rect id="Base" width="24" height="24" fill="none" />
            <g id="icon" transform="translate(6.994 3.282)">
                <path id="Icon_ionic-ios-arrow-back" data-name="Icon ionic-ios-arrow-back"
                    d="M3.018,8.758l6.626,6.621a1.252,1.252,0,1,1-1.773,1.767L.364,9.645A1.249,1.249,0,0,1,.328,7.919L7.866.365A1.252,1.252,0,0,1,9.639,2.132Z"
                    transform="translate(10.012 17.512) rotate(180)" />
            </g>
        </symbol>

        <symbol id="icon-bulp" viewBox="0 0 32 32">
            <path
                d="M30.12 7.89c-.37.37-.96.37-1.33 0a.936.936 0 010-1.33l1.33-1.33c.37-.37.96-.37 1.33 0 .37.37.37.96 0 1.33l-1.33 1.33zm.94 3.36a.939.939 0 110 1.88h-1.87a.939.939 0 110-1.88h1.87zm-8.5 12.25v1.88c0 1.25-.82 2.31-1.94 2.67C20.25 30.24 18.35 32 16 32s-4.25-1.76-4.62-3.95a2.814 2.814 0 01-1.94-2.67V23.5c0-1.72-.67-3.47-1.85-4.79-2.4-2.7-3.34-6.31-2.58-9.91.9-4.26 4.34-7.66 8.57-8.55 7.17-1.5 13.67 3.9 13.67 11 0 2.72-.99 5.35-2.78 7.4-1.23 1.4-1.91 3.12-1.91 4.85zM16 30.12c1.21 0 2.26-.83 2.65-1.94h-5.3c.39 1.12 1.45 1.94 2.65 1.94zm-4.69-4.75c0 .52.42.94.94.94h7.5c.52 0 .94-.42.94-.94v-.94h-9.37v.94zm2.66-23.28c-3.52.73-6.38 3.59-7.12 7.1-.64 3.01.14 6.03 2.15 8.28a9.269 9.269 0 012.27 5.1h9.48c.2-1.86 1.01-3.66 2.32-5.15 1.5-1.71 2.32-3.9 2.32-6.17-.02-5.91-5.42-10.42-11.42-9.16zm7.65 9.16c0-3.1-2.52-5.63-5.63-5.63-.52 0-.94-.42-.94-.94s.43-.93.95-.93c4.14 0 7.5 3.36 7.5 7.5a.939.939 0 11-1.88 0zM2.81 13.12H.94c-.52 0-.94-.42-.94-.93 0-.52.42-.94.94-.94h1.87c.52 0 .94.42.94.94 0 .51-.42.93-.94.93zm-.93-5.23L.55 6.56a.936.936 0 010-1.33c.37-.37.96-.37 1.33 0L3.2 6.56c.37.37.37.96 0 1.33-.36.36-.96.36-1.32 0zm0 8.6c.37-.37.96-.37 1.33 0 .37.37.37.96 0 1.33l-1.33 1.33c-.37.37-.96.37-1.33 0a.936.936 0 010-1.33l1.33-1.33zm28.24 0l1.33 1.33c.37.37.37.96 0 1.33-.37.37-.96.37-1.33 0l-1.33-1.33a.936.936 0 010-1.33c.37-.37.97-.37 1.33 0z" />
        </symbol>

        <symbol id="icon-close" viewBox="0 0 32 32">
            <path
                d="M32 26.08L26.07 32s-9.38-10.06-10.08-10.06C15.31 21.94 5.93 32 5.93 32L0 26.08s10.07-9.24 10.07-10.07C10.07 15.18 0 5.93 0 5.93L5.93 0S15.39 10.07 16 10.07C16.61 10.07 26.07 0 26.07 0L32 5.93s-10.07 9.38-10.07 10.08c0 .67 10.07 10.07 10.07 10.07z" />
        </symbol>

        <symbol id="icon-close-circle" viewBox="0 0 32 32">
            <path
                d="M27.31 4.69c-6.25-6.25-16.38-6.25-22.63 0s-6.25 16.38 0 22.63 16.38 6.25 22.63 0 6.25-16.38 0-22.63zm-5.6 15.36c.46.43.48 1.15.05 1.61l-.05.05c-.22.21-.51.33-.81.33-.3 0-.59-.12-.8-.33l-4.1-4.1-4.05 4.1c-.21.21-.5.33-.8.33-.3 0-.6-.12-.81-.33-.44-.45-.44-1.17 0-1.61l4.05-4.1-4.05-4.05c-.41-.48-.35-1.2.12-1.61.43-.37 1.06-.37 1.49 0L16 14.39l4.05-4.05c.44-.46 1.18-.47 1.64-.03.46.45.47 1.18.03 1.64L17.61 16l4.1 4.05z" />
        </symbol>

        <symbol id="icon-crown" viewBox="0 0 32 32">
            <path
                d="M32 13.4a1.04 1.04 0 10-2.08 0c0 .01.01.02.01.03l-3.69 2.53-1.14-6.45c-.01-.04-.04-.06-.05-.09.32-.18.57-.45.57-.84 0-.57-.47-1.04-1.04-1.04-.58 0-1.04.46-1.04 1.04 0 .23.12.43.25.6l-4.03 5.01-3.36-7.67c.13-.17.25-.36.25-.6 0-.57-.47-1.04-1.04-1.04-.58 0-1.04.46-1.04 1.04 0 .3.14.56.35.75l-3.18 7.31-3.86-4.79c-.01-.01-.03-.02-.05-.03.12-.17.24-.35.24-.57 0-.57-.47-1.04-1.04-1.04-.58 0-1.04.46-1.04 1.04 0 .41.27.69.61.86-.01.03-.03.05-.04.08l-1.1 6.2-3.4-2.33c-.01-.02-.04-.01-.06-.02.02-.07.08-.12.08-.2 0-.57-.47-1.04-1.04-1.04-.57 0-1.04.47-1.04 1.04 0 .53.42.93.94.99.01.02-.01.04 0 .07l2.37 7.18c.1.3.39.51.71.51h23.8c.31 0 .59-.2.7-.49l2.55-7.04c.51-.06.93-.46.93-1zm-4.71 7.04H4.56l-1.51-4.57 2.53 1.74c.21.14.48.17.71.07.23-.1.4-.31.45-.56l1.01-5.72 3.6 4.47c.16.2.42.31.68.27.26-.03.48-.2.59-.44l3.09-7.08 3.18 7.3c.1.24.33.41.59.44.26.03.52-.07.68-.27l3.77-4.69 1.06 5.97c.04.25.21.46.45.56.23.1.5.07.71-.07l2.8-1.92-1.66 4.5zm.53 2.37H4.02c-.41 0-.75.33-.75.74v2.82c0 .41.33.74.75.74h23.8c.41 0 .75-.33.75-.74v-2.82a.753.753 0 00-.75-.74zm-.75 2.82H4.76V24.3h22.31v1.33z" />
        </symbol>

        <symbol id="icon-cup" viewBox="0 0 32 32">
            <path
                d="M24.14 12.64a13.797 13.797 0 01-4.85 5.74 1.8 1.8 0 00-.78 1.51v3.44c1.08.28 1.88 1.26 1.88 2.42H21c1.03 0 1.87.84 1.87 1.87v3.75c0 .35-.28.62-.63.62H9.75c-.35 0-.63-.28-.63-.62v-3.75c0-1.03.84-1.87 1.87-1.87h.63c0-.67.26-1.29.73-1.77.32-.32.71-.54 1.14-.65v-3.44a1.8 1.8 0 00-.78-1.51c-2.12-1.43-3.8-3.41-4.85-5.74-3.08-.84-4.98-3.82-4.98-7.89 0-1.03.84-1.87 1.87-1.87h1.88v-1A1.87 1.87 0 018.5 0h15c1.03 0 1.88.84 1.88 1.88v1h1.87c1.03 0 1.88.84 1.88 1.87-.01 4.07-1.91 7.05-4.99 7.89zM6.62 6.92V4.13H4.75c-.34 0-.63.28-.63.63 0 3.07 1.15 5.35 3.14 6.33-.42-1.35-.64-2.75-.64-4.17zM11 27c-.34 0-.63.28-.63.62v3.13h11.25v-3.13c0-.34-.28-.62-.62-.62H11zM24.12 1.88c0-.34-.28-.63-.63-.63h-15c-.34 0-.63.28-.63.63v5.04c0 1.71.34 3.37 1.01 4.94a12.49 12.49 0 004.53 5.48c.83.56 1.33 1.51 1.33 2.55v3.99c0 .35-.28.63-.63.63h-.05c-.32.01-.61.14-.83.37-.24.24-.37.55-.37.88h6.25c0-.69-.56-1.25-1.25-1.25-.35 0-.63-.28-.63-.63v-3.99c0-1.03.5-1.99 1.33-2.55 2.01-1.36 3.58-3.25 4.53-5.48a12.51 12.51 0 001.01-4.94V1.88zm3.13 2.25h-1.87v2.79c0 1.42-.22 2.82-.64 4.16 1.99-.99 3.14-3.26 3.14-6.33a.639.639 0 00-.63-.62zm-8.41 5.8l.46 2.69a.63.63 0 01-.91.66l-2.41-1.27-2.41 1.27a.63.63 0 01-.91-.66l.46-2.69-1.95-1.9a.617.617 0 01-.16-.64.63.63 0 01.5-.43l2.7-.39 1.21-2.44c.11-.21.32-.35.56-.35.24 0 .46.13.56.35l1.21 2.44 2.7.39c.24.03.43.2.5.43.07.23.01.47-.16.64l-1.95 1.9zm-1.6-2.17a.638.638 0 01-.47-.34l-.79-1.6-.79 1.6c-.09.18-.27.31-.47.34l-1.77.26 1.28 1.25c.15.14.21.35.18.55l-.3 1.76 1.58-.83c.18-.1.4-.1.58 0l1.58.83-.3-1.76c-.03-.2.03-.41.18-.55l1.28-1.25-1.77-.26zM18.5 29.5c-.34 0-.63-.28-.63-.63 0-.34.28-.63.63-.63.34 0 .63.28.63.63s-.29.63-.63.63zm-2.5 0h-2.5c-.35 0-.63-.28-.63-.63s.28-.63.63-.63H16c.35 0 .63.28.63.63a.64.64 0 01-.63.63z" />
        </symbol>

        <symbol id="icon-deposit" viewBox="0 0 32 32">
            <path
                d="M30.94 20.03c-.39.36-.89.6-1.46.6h.09v3.12c0 1.26-.51 2.4-1.34 3.24-.83.84-1.96 1.35-3.21 1.35h-20c-1.25 0-2.38-.51-3.21-1.35a4.591 4.591 0 01-1.34-3.24V8.25c0-1.26.51-2.4 1.34-3.24s1.96-1.35 3.21-1.35h20c1.25 0 2.38.51 3.21 1.35.83.84 1.34 1.98 1.34 3.24v3.09h-.09c.57 0 1.07.24 1.46.6.36.39.6.9.6 1.47v5.16c0 .56-.24 1.1-.6 1.46zM27.93 8.25c0-.81-.33-1.53-.86-2.07-.54-.54-1.25-.87-2.05-.87h-20c-.8 0-1.52.33-2.05.87-.54.54-.87 1.26-.87 2.07v15.47c0 .81.33 1.53.86 2.07.54.54 1.25.87 2.05.87h20c.8 0 1.52-.33 2.05-.87.54-.54.86-1.26.86-2.07V20.6h-9.23c-1.25 0-2.38-.51-3.18-1.32-.8-.84-1.31-1.95-1.31-3.21v-.21c0-1.26.51-2.4 1.31-3.21.83-.81 1.93-1.32 3.18-1.32h9.23V8.25zm1.97 5.19c0-.12-.03-.21-.12-.3a.458.458 0 00-.3-.12H18.71c-.77 0-1.49.3-2.02.84a2.87 2.87 0 00-.83 2.04v.21c0 .78.33 1.53.83 2.04.51.51 1.25.84 2.02.84h10.77c.12 0 .21-.03.3-.12.06-.06.12-.18.12-.3v-5.13zm-10.98 3.83c-.36 0-.68-.15-.92-.39s-.39-.57-.39-.93c0-.36.15-.69.39-.93.24-.24.57-.39.92-.39.36 0 .68.15.95.33.24.27.39.6.39.96 0 .39-.15.72-.39.96-.27.24-.6.39-.95.39z" />
            <path
                d="M8.34 20.99l3.06-3.07c.19-.19.19-.49 0-.68a.477.477 0 00-.68 0l-2.25 2.25V11.3c0-.26-.21-.48-.48-.48s-.48.21-.48.48v8.19l-2.25-2.25a.477.477 0 00-.68 0c-.09.09-.14.22-.14.34 0 .12.05.24.14.34l3.06 3.07c.21.19.51.19.7 0z" />
        </symbol>

        <symbol id="icon-doc-pen" viewBox="0 0 32 32">
            <path
                d="M28.65 10.72l-1.33 1.33-1.21 1.21-8.63 8.62c-.01.01-.02.02-.04.03 0 0-.01 0-.01.01-.01.01-.02.01-.03.02h-.01l-4.27 2.51a.69.69 0 01-.45.16c-.19 0-.37-.07-.5-.21a.706.706 0 01-.05-.95l2.51-4.27v-.01c.01-.01.01-.02.02-.03 0 0 0-.01.01-.01.01-.01.02-.03.03-.04l8.63-8.62 1.21-1.21 1.33-1.33c.37-.37.86-.57 1.39-.57s1.02.2 1.39.57c.78.78.78 2.03.01 2.79zM13.62 22.63l-.5.85.86-.5-.36-.35zm.44-.76l.66.66 1.77-1.04-1.39-1.39-1.04 1.77zm1.56-2.46l1.57 1.57 8.02-8.02-1.57-1.57-8.02 8.02zm8.63-8.63l1.57 1.57.6-.6-1.57-1.57-.6.6zm3.8-2.23c-.21-.21-.49-.32-.78-.32-.3 0-.58.11-.78.32l-1.03 1.03 1.57 1.57 1.03-1.03a1.112 1.112 0 00-.01-1.57zM11.9 18.99H6.04c-.24 0-.43-.19-.43-.43s.19-.43.43-.43h5.86c.24 0 .43.19.43.43s-.19.43-.43.43zm3.83-2.28H6.04c-.24 0-.43-.19-.43-.43s.19-.43.43-.43h9.69c.24 0 .43.19.43.43s-.19.43-.43.43zm2.03-2.27H6.04c-.24 0-.43-.19-.43-.43s.19-.43.43-.43h11.71c.24 0 .43.19.43.43s-.19.43-.42.43zm0-2.28H6.04c-.24 0-.43-.19-.43-.43s.19-.43.43-.43h11.71c.24 0 .43.19.43.43s-.19.43-.42.43zm0-4.55H6.04c-.24 0-.43-.19-.43-.43s.19-.43.43-.43h11.71c.24 0 .43.19.43.43s-.19.43-.42.43zm0 2.28H6.04c-.24 0-.43-.19-.43-.43s.19-.43.43-.43h11.71c.24 0 .43.19.43.43s-.19.43-.42.43zm-3.67 15.92c-.24 0-.43-.19-.43-.43s.19-.43.43-.43h3.66c.24 0 .43.19.43.43s-.19.43-.43.43h-3.66zm6.51-13.97c-.24 0-.43-.19-.43-.43V3.63H3.63v20.76h3.56c.24 0 .43.19.43.43v3.55h12.57v-7.79c0-.24.19-.43.43-.43s.43.19.43.43v8.21c0 .24-.19.43-.43.43H7.11 7.1c-.01 0-.02-.01-.04-.01h-.01c-.01 0-.02-.01-.03-.01-.01 0-.02-.01-.03-.02h-.01c-.01 0-.02-.01-.03-.02h-.01c-.01-.01-.02-.01-.02-.02 0 0-.01 0-.01-.01l-.03-.03-3.98-3.98-.03-.03s0-.01-.01-.01c-.01-.01-.01-.02-.02-.03v-.01c-.01-.01-.01-.02-.02-.03V25c-.01 0-.01-.01-.02-.02 0-.01-.01-.02-.01-.03v-.01c0-.01-.01-.02-.01-.04v-.01-.03V3.2c0-.24.19-.43.43-.43h17.4c.24 0 .43.19.43.43v8.21c-.01.24-.2.43-.44.43zM6.75 27.77v-2.53H4.23l2.52 2.53z" />
        </symbol>

        <symbol id="icon-docs" viewBox="0 0 32 32">
            <path
                d="M25.78 29.96H9.02c-.77 0-1.4-.62-1.4-1.4v-1.4h-1.4c-.37 0-.73-.15-.99-.41s-.41-.62-.41-.99V7.16c0-.01.01-.02.01-.03 0-.04.01-.08.02-.12 0-.02.01-.03.02-.04.02-.05.05-.1.09-.14l4.66-4.65c.04-.04.08-.08.13-.1.02-.01.03-.01.05-.01.04-.01.08-.02.12-.02.01 0 .02-.01.03-.01h13.04c.77 0 1.4.62 1.4 1.4v1.4h1.4c.77 0 1.4.63 1.4 1.4v22.34c-.01.76-.64 1.38-1.41 1.38zM9.48 3.63L6.41 6.69h2.6c.26 0 .47-.21.47-.47V3.63zm13.97-.2a.47.47 0 00-.47-.47H10.41v3.26c0 .77-.63 1.4-1.4 1.4H5.75v18.15c0 .26.21.47.47.47h16.77c.26 0 .47-.21.47-.47V3.43zm2.8 2.8a.47.47 0 00-.47-.47h-1.4v20.01c0 .77-.63 1.4-1.4 1.4H8.55v1.4c0 .26.21.47.47.47h16.77c.26 0 .47-.21.47-.47V6.23zm-5.13 13.96H8.08a.47.47 0 110-.94h13.04a.47.47 0 110 .94zm0-2.33h-1.4a.47.47 0 110-.94h1.4a.47.47 0 110 .94zm0-2.33h-8.38a.47.47 0 110-.94h8.38c.26 0 .47.21.47.47 0 .27-.21.47-.47.47zm0-2.32H18.8a.47.47 0 110-.94h2.33c.26 0 .47.21.47.47-.01.26-.22.47-.48.47zm0-2.33H8.08a.47.47 0 110-.94h13.04a.47.47 0 110 .94zm-3.72 6.05a.47.47 0 110 .94h-5.59a.47.47 0 110-.94h5.59zm-9.32-4.65h8.38a.47.47 0 110 .94H8.08a.47.47 0 01-.47-.47c.01-.27.22-.47.47-.47zm0 4.65h1.4a.47.47 0 110 .94h-1.4a.47.47 0 01-.47-.47c.01-.26.22-.47.47-.47zm0-2.33h2.33a.47.47 0 110 .94H8.08a.47.47 0 01-.47-.47c.01-.26.22-.47.47-.47zm0 6.98h2.79a.47.47 0 110 .94H8.08a.47.47 0 01-.47-.47c.01-.26.22-.47.47-.47zm5.13 0h.47a.47.47 0 110 .94h-.47a.47.47 0 110-.94z" />
        </symbol>

        <symbol id="icon-edit-circle" viewBox="0 0 24 24">
            <path
                d="M12 22A10.01 10.01 0 0 1 2 12 10.01 10.01 0 0 1 12 2a10.01 10.01 0 0 1 10 10 10.01 10.01 0 0 1-10 10Zm.53-13.33L7.49 13.7l-.6 2.61a.65.65 0 0 0 .12.55.65.65 0 0 0 .51.25.53.53 0 0 0 .07 0 .51.51 0 0 0 .07 0l2.63-.6 5.05-5.03-2.82-2.81Zm2.06-1.78a.66.66 0 0 0-.47.19l-1.05 1.04 2.82 2.82 1.05-1.05a.66.66 0 0 0 .19-.46.66.66 0 0 0-.2-.47l-1.88-1.88a.66.66 0 0 0-.46-.2Z" />
        </symbol>

        <symbol id="icon-email" viewBox="0 0 32 32">
            <path
                d="M21.21 16.16L32 9.06v13.93l-10.79-6.83zM.06 6.7C.21 5.74 1 5 2 5h28c1 0 1.79.74 1.94 1.7L16 17.2.06 6.7zM0 22.98V9.06l10.79 7.11L0 22.98zm15.45-3.74c.17.11.36.16.55.16.19 0 .38-.05.55-.16l2.83-1.86 12.56 7.94c-.16.94-.95 1.68-1.94 1.68H2c-.99 0-1.78-.74-1.93-1.69l12.56-7.94 2.82 1.87z" />
        </symbol>

        <symbol id="icon-email-check" viewBox="0 0 32 32">
            <path
                d="M28.61 13.79v10.35H4V9.37h16.57a5.747 5.747 0 015.68-6.56c3.16 0 5.75 2.58 5.75 5.74 0 2.33-1.39 4.34-3.39 5.24zM5.64 22.5h21.33v-8.25c-.23.03-.47.04-.71.04-.68 0-1.33-.12-1.93-.34l-8.02 6.3-10.67-8.37V22.5zm1.55-11.48l9.11 7.16 6.45-5.07c-.72-.55-1.3-1.27-1.69-2.09H7.19zm19.07-6.57c-2.26 0-4.1 1.84-4.1 4.1s1.84 4.1 4.1 4.1 4.1-1.84 4.1-4.1-1.84-4.1-4.1-4.1zm-.82 6.91l-2.22-2.22 1.16-1.16 1.06 1.06 2.7-2.7L29.3 7.5l-3.86 3.86z" />
        </symbol>

        <symbol id="icon-eye" viewBox="0 0 32 32">
            <path
                d="M31.63 17.07C29.89 19.23 23.67 26.3 16 26.3S2.11 19.23.37 17.07c-.5-.64-.5-1.53 0-2.13C2.11 12.77 8.33 5.7 16 5.7s13.89 7.07 15.63 9.23c.49.64.49 1.53 0 2.14zM16 8.54a7.46 7.46 0 100 14.92 7.46 7.46 0 000-14.92zm0 12.61c-2.84 0-5.15-2.31-5.15-5.15 0-2.84 2.31-5.15 5.15-5.15s5.15 2.31 5.15 5.15c0 2.84-2.31 5.15-5.15 5.15zm-.39-8.38c-1.56 0-2.84 1.28-2.88 2.88h1.7c0-.64.53-1.17 1.17-1.17v-1.71z" />
        </symbol>

        <symbol id="icon-eye-slash" viewBox="0 0 32 32">
            <path
                d="m21.58 25.82-3.23-3.23c-3.64 1.3-7.65-.59-8.95-4.23a7.05 7.05 0 0 1 0-4.71L5.28 9.53C1.88 12.56 0 16 0 16s6 11 16 11c1.92-.01 3.82-.41 5.58-1.18zM10.42 6.18C12.18 5.41 14.08 5.01 16 5c10 0 16 11 16 11s-1.88 3.44-5.28 6.48l-4.12-4.12c1.3-3.64-.59-7.65-4.23-8.95a7.05 7.05 0 0 0-4.71 0l-3.24-3.23z" />
            <path
                d="M11.05 15.29a5.006 5.006 0 0 0 5.66 5.66l-5.66-5.66zm9.9 1.42-5.66-5.66a5.006 5.006 0 0 1 5.66 5.66zm6.34 12-24-24 1.42-1.42 24 24-1.42 1.42z" />
        </symbol>

        <symbol id="icon-facebook" viewBox="0 0 32 32">
            <path
                d="M4.69 32h10.44V20.63h-3.75v-3.75h3.75v-4.69c0-2.59 2.1-4.69 4.69-4.69h4.69v3.75h-3.75c-1.03 0-1.87.84-1.87 1.87v3.75h5.46l-.62 3.75H18.9V32h8.44C29.9 32 32 29.9 32 27.31V4.69C32 2.1 29.9 0 27.31 0H4.69A4.69 4.69 0 000 4.69v22.63C0 29.9 2.1 32 4.69 32zM1.87 4.69c0-1.55 1.26-2.81 2.81-2.81h22.63c1.55 0 2.81 1.26 2.81 2.81v22.63c0 1.55-1.26 2.81-2.81 2.81h-6.56V22.5h4.54l1.25-7.5h-5.79v-1.87h5.63v-7.5h-6.56c-3.62 0-6.56 2.94-6.56 6.56V15H9.5v7.5h3.75v7.63H4.69c-1.55 0-2.81-1.26-2.81-2.81V4.69z" />
        </symbol>

        <symbol id="icon-fullscreen" viewBox="0 0 32 32">
            <path
                d="M22.86 32v-4.57h4.57v-4.57H32V32h-9.14zm4.57-27.43h-4.57V0H32v9.14h-4.57V4.57zM0 22.86h4.57v4.57h4.57V32H0v-9.14zM4.57 9.14H0V0h9.14v4.57H4.57v4.57z" />
        </symbol>

        <symbol id="icon-gift" viewBox="0 0 32 32">
            <path
                d="M28.21 7.63h-6.63c.44-.58.7-1.31.7-2.09 0-1.92-1.56-3.49-3.49-3.49-1.14 0-2.15.55-2.79 1.4-.64-.85-1.65-1.4-2.79-1.4-1.92 0-3.49 1.56-3.49 3.49 0 .79.26 1.51.7 2.09H3.79c-1.15 0-2.09.94-2.09 2.09v2.79c0 .91.58 1.68 1.4 1.97v13.37c0 1.15.94 2.09 2.09 2.09h21.63c1.15 0 2.09-.94 2.09-2.09V14.48a2.1 2.1 0 001.4-1.97V9.73c-.01-1.16-.95-2.1-2.1-2.1zm-14.3 5.58V9.03h4.19v4.18h-4.19zm4.18 1.4v13.94H13.9V14.61h4.19zm.7-11.16c1.15 0 2.09.94 2.09 2.09s-.94 2.09-2.09 2.09H16.7V5.54c0-1.15.94-2.09 2.09-2.09zm-7.67 2.09c0-1.15.94-2.09 2.09-2.09s2.09.94 2.09 2.09v2.09h-2.09a2.09 2.09 0 01-2.09-2.09zM3.09 9.73c0-.38.31-.7.7-.7h8.72v4.18H3.79c-.38 0-.7-.31-.7-.7V9.73zm1.4 18.12V14.61h8.02v13.94H5.19c-.39 0-.7-.31-.7-.7zm22.32.7h-7.33V14.61h8.02v13.25c.01.38-.3.69-.69.69zm2.1-16.04c0 .38-.31.7-.7.7h-8.72V9.03h8.72c.38 0 .7.31.7.7v2.78z" />
        </symbol>

        <symbol id="icon-hamburger" viewBox="0 0 24 24">
            <rect id="Base" width="24" height="24" fill="none" />
            <g id="icon" transform="translate(-2.5 -11.093)">
                <path id="Path_19904" data-name="Path 19904"
                    d="M23.667,11.6H5.333a.793.793,0,0,1-.833-.739h0a.793.793,0,0,1,.833-.739H23.667a.793.793,0,0,1,.833.739h0A.793.793,0,0,1,23.667,11.6Z"
                    transform="translate(0 6.568)" />
                <path id="Path_19905" data-name="Path 19905"
                    d="M23.667,18.17H5.333a.76.76,0,0,1-.833-.647h0a.76.76,0,0,1,.833-.647H23.667a.76.76,0,0,1,.833.647h0A.76.76,0,0,1,23.667,18.17Z"
                    transform="translate(0 5.617)" />
                <path id="Path_19906" data-name="Path 19906"
                    d="M23.667,25.085H5.333a.789.789,0,0,1-.833-.73h0a.789.789,0,0,1,.833-.73H23.667a.789.789,0,0,1,.833.73h0A.789.789,0,0,1,23.667,25.085Z"
                    transform="translate(0 4.483)" />
            </g>
        </symbol>

        <symbol id="icon-heart" viewBox="0 0 32 32">
            <path
                d="M23.03 2.76c-1.63 0-3.12.52-4.44 1.53-1.26.98-2.1 2.22-2.59 3.12-.49-.9-1.33-2.15-2.6-3.12-1.32-1.02-2.81-1.53-4.44-1.53C4.43 2.76 1 6.47 1 11.4c0 5.32 4.27 8.97 10.74 14.48 1.1.94 2.34 2 3.64 3.13.17.15.39.23.62.23s.45-.08.62-.23c1.29-1.13 2.54-2.19 3.64-3.13C26.73 20.37 31 16.72 31 11.4c0-4.93-3.43-8.64-7.97-8.64z" />
        </symbol>

        <symbol id="icon-heart-filled" viewBox="0 0 24 24">
            <path
                d="M20.46 4.82a5.26 5.26 0 0 0-7.45 0L12 5.83l-1.01-1.01a5.26 5.26 0 1 0-7.45 7.44l1.02 1.02L12 20.73l7.44-7.45 1.02-1.01a5.26 5.26 0 0 0 0-7.45Z" />
        </symbol>

        <symbol id="icon-heart-outline" viewBox="0 0 24 24">
            <path
                d="M16.74 5.28a3.24 3.24 0 0 0-2.31.96l-1.02 1a2 2 0 0 1-2.82 0l-1.02-1a3.26 3.26 0 1 0-4.61 4.61L12 17.89l7.04-7.04a3.26 3.26 0 0 0-2.3-5.57m0-2a5.25 5.25 0 0 1 3.72 1.54 5.26 5.26 0 0 1 0 7.45L12 20.73l-8.46-8.47A5.26 5.26 0 0 1 11 4.82l1 1.01 1.01-1.01a5.25 5.25 0 0 1 3.73-1.54Z" />
        </symbol>

        <symbol id="icon-check" viewBox="0 0 32 32">
            <path
                d="M31.26 5.12c-.99-1-2.6-1-3.59 0L11.51 21.44l-7.18-7.25c-.99-1-2.6-1-3.59 0s-.99 2.63 0 3.63l8.97 9.07c.5.5 1.14.75 1.79.75.65 0 1.3-.25 1.8-.75L31.26 8.75c.99-1 .99-2.63 0-3.63z" />
        </symbol>

        <symbol id="icon-chevron-down" viewBox="0 0 32 32">
            <path
                d="M.43 7.7c.57-.57 1.49-.57 2.06 0l13.52 13.52L29.53 7.7c.58-.56 1.5-.54 2.06.04.54.56.54 1.46 0 2.02L17.04 24.3c-.57.57-1.49.57-2.06 0L.43 9.75c-.57-.56-.57-1.49 0-2.05z" />
        </symbol>

        <symbol id="icon-chevron-left" viewBox="0 0 32 32">
            <path
                d="M24.3 31.57c-.56.57-1.49.57-2.05 0L7.7 17.02c-.57-.57-.57-1.49 0-2.06L22.24.41c.56-.54 1.46-.54 2.02 0 .58.56.6 1.48.04 2.06L10.78 15.99 24.3 29.51c.57.57.57 1.49 0 2.06z" />
        </symbol>

        <symbol id="icon-chevron-right" viewBox="0 0 32 32">
            <path
                d="M7.7 31.57c-.57-.57-.57-1.49 0-2.06l13.52-13.52L7.7 2.47c-.56-.58-.54-1.5.04-2.06.56-.54 1.46-.54 2.02 0L24.3 14.96c.57.57.57 1.49 0 2.06L9.75 31.57c-.56.57-1.49.57-2.05 0z" />
        </symbol>

        <symbol id="icon-info" viewBox="0 0 32 32">
            <path
                d="M22.68 28.55l-.45 1.83c-1.35.53-2.42.93-3.23 1.21-.8.27-1.73.41-2.8.41-1.63 0-2.9-.4-3.81-1.19-.91-.79-1.36-1.8-1.36-3.02 0-.47.03-.96.1-1.45s.18-1.05.33-1.68l1.69-5.93c.15-.57.28-1.11.38-1.61.1-.51.15-.97.15-1.39 0-.76-.16-1.29-.47-1.58-.31-.3-.91-.45-1.8-.45-.44 0-.88.07-1.34.2-.46.13-.85.27-1.18.39l.45-1.83c1.1-.45 2.16-.83 3.17-1.15 1.01-.32 1.96-.48 2.86-.48 1.62 0 2.87.39 3.75 1.17.88.78 1.32 1.79 1.32 3.04 0 .26-.03.71-.09 1.36-.06.65-.17 1.25-.34 1.79l-1.68 5.91c-.14.47-.26 1.02-.37 1.63-.11.61-.16 1.07-.16 1.38 0 .79.18 1.32.53 1.61.36.28.97.43 1.84.43.41 0 .87-.07 1.39-.21.51-.16.88-.28 1.12-.39zm.42-24.81c0 1.03-.39 1.91-1.17 2.63-.78.73-1.72 1.09-2.82 1.09-1.11 0-2.05-.36-2.84-1.09-.79-.72-1.18-1.6-1.18-2.63 0-1.03.39-1.91 1.18-2.64C17.05.36 18 0 19.1 0s2.04.37 2.82 1.1c.79.73 1.18 1.61 1.18 2.64z" />
        </symbol>

        <symbol id="icon-instagram" viewBox="0 0 24 24">
            <rect id="Base" width="24" height="24" fill="none" />
            <g id="icon" transform="translate(3 3)">
                <path id="XMLID_17_"
                    d="M12.638,0H5.362A5.368,5.368,0,0,0,0,5.362v7.275A5.368,5.368,0,0,0,5.362,18h7.275A5.368,5.368,0,0,0,18,12.638V5.362A5.368,5.368,0,0,0,12.638,0Zm3.551,12.638a3.552,3.552,0,0,1-3.551,3.551H5.362a3.552,3.552,0,0,1-3.551-3.551V5.362A3.551,3.551,0,0,1,5.362,1.811h7.275a3.551,3.551,0,0,1,3.551,3.551v7.275Z" />
                <path id="XMLID_81_"
                    d="M137.655,133a4.655,4.655,0,1,0,4.655,4.655A4.661,4.661,0,0,0,137.655,133Zm0,7.5a2.845,2.845,0,1,1,2.845-2.845A2.845,2.845,0,0,1,137.655,140.5Z"
                    transform="translate(-128.655 -128.655)" />
                <circle id="XMLID_83_" cx="1.116" cy="1.116" r="1.116" transform="translate(12.549 3.264)" />
            </g>
        </symbol>

        <symbol id="icon-lock-2" viewBox="0 0 32 32">
            <path
                d="M23.75 29.78H8.25c-1.42 0-2.58-1.16-2.58-2.58V15.14c0-1.42 1.16-2.58 2.58-2.58h.86V9.11c0-3.8 3.09-6.89 6.89-6.89s6.89 3.09 6.89 6.89v3.45h.86c1.42 0 2.58 1.16 2.58 2.58V27.2c0 1.42-1.16 2.58-2.58 2.58zM21.17 9.11c0-2.85-2.32-5.17-5.17-5.17s-5.17 2.32-5.17 5.17v3.45h10.33V9.11zm3.44 6.03c0-.47-.39-.86-.86-.86H8.25c-.47 0-.86.39-.86.86V27.2c0 .48.39.86.86.86h15.5c.47 0 .86-.39.86-.86V15.14zm-7.75 6.43v2.75a.86.86 0 11-1.72 0v-2.75a2.297 2.297 0 01.86-4.43 2.297 2.297 0 01.86 4.43zm-.86-2.7a.57.57 0 100 1.14.57.57 0 000-1.14z" />
        </symbol>

        <symbol id="icon-marker" viewBox="0 0 32 32">
            <path
                d="M16 0C9.55 0 4.3 5.34 4.3 11.91c0 3.67 1.86 8.13 5.52 13.25 2.68 3.75 5.32 6.42 5.44 6.53.2.21.47.31.74.31.26 0 .52-.1.73-.29.11-.11 2.76-2.67 5.45-6.37 3.67-5.04 5.53-9.56 5.53-13.43C27.7 5.34 22.45 0 16 0zm0 17.05c-3.15 0-5.72-2.57-5.72-5.72S12.85 5.61 16 5.61s5.72 2.56 5.72 5.72c0 3.15-2.57 5.72-5.72 5.72z" />
        </symbol>

        <symbol id="icon-message" viewBox="0 0 32 32">
            <path
                d="M27.6 24.29H13.64l-9.26 6.45v-6.45A4.404 4.404 0 010 19.88V5.66c0-2.43 1.97-4.41 4.4-4.41h23.2c2.43 0 4.4 1.98 4.4 4.41v14.22c0 2.43-1.97 4.41-4.4 4.41zm2.53-18.63a2.53 2.53 0 00-2.52-2.53H4.4c-1.39 0-2.52 1.13-2.52 2.53v14.22a2.53 2.53 0 002.52 2.53h1.86v4.74l6.8-4.74H27.6c1.39 0 2.52-1.13 2.52-2.53V5.66zM8.57 15.9h14.87v1.88H8.57V15.9zm0-4h14.87v1.88H8.57V11.9zm0-4.01h14.87v1.88H8.57V7.89z" />
        </symbol>

        <symbol id="icon-money" viewBox="0 0 32 32">
            <path
                d="M31.91 18.83a.681.681 0 00-.31-.27l-2.29-.94 2.38-1.4c.3-.18.4-.56.23-.86a.681.681 0 00-.31-.27l-2.29-.94 2.38-1.4a.61.61 0 00.3-.6.639.639 0 00-.39-.54l-9.03-3.7-4.45-1.89a.587.587 0 00-.23-.04l-7.25-2.95a.83.83 0 00-.56.06L.37 8.54c-.31.16-.44.54-.28.85.07.14.19.25.34.31l2.35.97-2.41 1.34c-.3.17-.41.56-.24.86.07.12.17.22.3.27l2.35.97-2.4 1.34a.631.631 0 00.05 1.18l2.35.96-2.4 1.34c-.3.17-.41.56-.24.86.07.12.17.21.3.27l8.15 3.46.09.06 4.46 1.89 8.2 3.48c.18.08.4.06.57-.04l9.77-5.74c.3-.18.4-.56.23-.86a.681.681 0 00-.31-.27l-2.29-.94 2.38-1.4c.3-.18.4-.57.22-.87zm-1.96-3.05l-8.4 4.94-7.52-3.19v-2.1l7.31 3.1a.62.62 0 00.57-.04l6.03-3.55 2.01.84zm.02-3.47l-8.43 4.94-6.83-2.9 7.69-5.13 7.57 3.09zM8.29 22.03L2.11 19.4l2.12-1.19 4.07 1.73-.01 2.09zm0-3.47l-6.18-2.63 2.12-1.2 4.07 1.72-.01 2.11zm0-3.46l-6.18-2.62 2.12-1.19 4.07 1.73-.01 2.08zM2.11 9.02l8.33-4.68 6.05 2.47-7.62 5.08-6.76-2.87zm10.93 4.95a.64.64 0 00-.28.52v9.45l-3.21-1.36v-9.63l8.35-5.56 3.11 1.26-7.97 5.32zm16.91 8.74l-8.4 4.94-7.52-3.19v-2.09l7.31 3.07c.18.08.39.06.57-.04l6.03-3.54 2.01.85zm-8.41 1.47l-7.52-3.19V18.9l7.32 3.1c.18.08.4.06.57-.04l6.03-3.55 2 .82-8.4 4.95z" />
        </symbol>

        <symbol id="icon-pen" viewBox="0 0 32 32">
            <path
                d="M28.51 7.18L27.38 8.3l.15.15c.2.2.2.52 0 .72l-1.99 1.99.16.16c.66.66.66 1.73 0 2.38l-8.24 8.24a.508.508 0 01-.72 0c-.2-.2-.2-.52 0-.72l8.24-8.24c.26-.26.26-.69 0-.95l-.16-.16-14.9 14.92c-.18.18-.4.3-.65.35l-5.58 1.82c-.05.02-.1.02-.16.02a.503.503 0 01-.48-.66l1.82-5.59v-.01c.05-.23.16-.46.34-.64L22.82 4.45a.508.508 0 01.72 0l.14.15 1.12-1.12.01-.01c.63-.58 1.64-.58 2.24.01l.01.01 1.44 1.44c.63.61.63 1.63.01 2.25zM4.82 26.16l-.49 1.51 1.51-.49-1.02-1.02zm.35-1.08l1.75 1.75.96-.31-2.4-2.4-.31.96zm.76-2.29c-.1.09-.1.25 0 .35l2.93 2.93c.06.06.13.07.17.07.04 0 .11-.01.17-.07l1.66-1.66-3.27-3.28-1.66 1.66zm2.37-2.37l1.28 1.28 9.08-9.09c.2-.2.52-.2.72 0 .2.2.2.52 0 .72l-9.08 9.09 1.28 1.28L24.1 11.16l-3.27-3.28L8.3 20.42zM23.18 5.53l-1.63 1.64 3.27 3.28 1.63-1.63-3.27-3.29zm4.61.1l-1.44-1.44c-.22-.21-.6-.21-.84 0L24.4 5.32l2.27 2.27 1.12-1.12c.23-.24.23-.61 0-.84zm-7.53 6.6c-.35.01-.61-.38-.47-.7.15-.37.67-.42.89-.09.07.11.1.25.07.38-.04.24-.26.42-.49.41z" />
        </symbol>

        <symbol id="icon-phone" viewBox="0 0 32 32">
            <path
                d="M31.16 23.49l-4.47-4.47c-1.6-1.6-4.32-.96-4.96 1.12-.48 1.44-2.08 2.23-3.52 1.91-3.2-.8-7.51-4.94-8.31-8.29-.48-1.44.48-3.03 1.92-3.51 2.08-.64 2.72-3.35 1.12-4.94L8.47.84C7.19-.28 5.27-.28 4.16.84L1.11 3.87c-3.04 3.19.32 11.64 7.83 19.14s15.98 11.01 19.18 7.81l3.04-3.03c1.12-1.27 1.12-3.19 0-4.3z" />
        </symbol>

        <symbol id="icon-phone-call" viewBox="0 0 32 32">
            <path
                d="M17.14 2.29V0C25.34.01 31.99 6.66 32 14.86h-2.29c0-6.94-5.63-12.57-12.57-12.57zm0 5.71V5.71c5.05.01 9.14 4.1 9.14 9.14H24C24 11.07 20.93 8 17.14 8zm.46 14.15c.86.44 1.77.78 2.71 1.01.51-.47.99-.99 1.42-1.54.94-1.12 1.29-1.51 1.74-1.59.97-.17 6.83 3.54 7.83 4.38.42.35.69.67.69 1.07 0 1.18-6.6 6.51-7.45 6.51-.07 0-6.94-.11-15.76-8.79C.11 14.39 0 7.52 0 7.45 0 6.6 5.33 0 6.51 0c.41 0 .72.28 1.07.69.83 1 4.55 6.86 4.38 7.83-.08.46-.47.81-1.59 1.74-.55.43-1.06.91-1.54 1.42.23.94.56 1.85 1.01 2.71 1.65 3.39 4.38 6.12 7.76 7.76z" />
        </symbol>

        <symbol id="icon-question" viewBox="0 0 32 32">
            <path
                d="M22.31 17.18l-2.56 2.18v3.27h-7.5V15.9l5.2-4.42a2.249 2.249 0 10-3.7-1.72v.94h-7.5v-.95C6.25 4.37 10.62 0 16 0s9.75 4.37 9.75 9.75c0 2.87-1.25 5.57-3.44 7.43zM16 24.5c2.07 0 3.75 1.68 3.75 3.75 0 2.07-1.68 3.75-3.75 3.75s-3.75-1.68-3.75-3.75c0-2.07 1.68-3.75 3.75-3.75z" />
        </symbol>

        <symbol id="icon-sandglass" viewBox="0 0 32 32">
            <path
                d="M21.04 12.68c2.12-1.93 4.99-4.55 5.25-10.8h1.89V0H3.81v1.88H5.7c.26 6.25 3.13 8.87 5.25 10.8 1.42 1.3 2.23 2.09 2.23 3.32s-.8 2.03-2.23 3.33c-2.12 1.93-4.99 4.55-5.25 10.8H3.81V32h24.38v-1.88H26.3c-.26-6.25-3.13-8.87-5.25-10.8-1.42-1.3-2.23-2.09-2.23-3.33s.8-2.02 2.22-3.31zm-5.98 10.35c-.29.06-.58.15-.85.26l-5.74 2.38c.94-2.38 2.45-3.76 3.76-4.95 1.46-1.33 2.84-2.59 2.84-4.71v7.02zm4.72-2.32c1.31 1.19 2.82 2.57 3.76 4.95l-5.74-2.38a4.6 4.6 0 00-.85-.26V16c-.01 2.12 1.37 3.38 2.83 4.71zM8.43 6.25c-.45-1.18-.76-2.61-.85-4.37h16.83c-.08 1.77-.4 3.19-.85 4.37H8.43z" />
        </symbol>

        <symbol id="icon-search" viewBox="0 0 24 24">
            <rect id="Base" width="24" height="24" fill="none" />
            <path id="Search"
                d="M81.979,13.627l4.568,4.566a1.159,1.159,0,0,0,1.639-1.639l-4.565-4.564a7.544,7.544,0,1,0-1.642,1.636ZM77.54,2.307a5.224,5.224,0,1,1-5.224,5.224A5.227,5.227,0,0,1,77.54,2.307Z"
                transform="translate(-67.262 2.74)" fill-rule="evenodd" />
        </symbol>

        <symbol id="icon-switch" viewBox="0 0 32 32">
            <path
                d="M16 28.17C9.29 28.17 3.83 22.71 3.83 16c0-3.69 1.65-7.11 4.48-9.46.35-.28.82-.24 1.09.12.27.35.24.82-.12 1.1A10.615 10.615 0 005.4 16c0 5.85 4.75 10.6 10.6 10.6S26.6 21.85 26.6 16c0-3.22-1.41-6.2-3.93-8.21a.774.774 0 01-.12-1.1c.27-.35.79-.39 1.1-.12 2.87 2.32 4.51 5.73 4.51 9.42.01 6.72-5.45 12.18-12.16 12.18zm0-11.38c-.43 0-.79-.35-.79-.79V4.61c0-.43.35-.79.79-.79.43 0 .79.35.79.79V16c0 .43-.36.79-.79.79z" />
        </symbol>

        <symbol id="icon-trash" viewBox="0 0 32 32">
            <path
                d="M26.95 9.53v18.46c0 1.09-.4 2.12-1.11 2.85-.7.74-1.68 1.16-2.7 1.16H8.86c-1.02 0-2-.42-2.7-1.16-.7-.74-1.11-1.76-1.11-2.85V9.53a2.862 2.862 0 01-2.12-3.14A2.872 2.872 0 015.79 3.9h3.87v-.94c0-.79.31-1.54.87-2.1s1.32-.87 2.12-.86h6.7c.79-.01 1.56.3 2.12.86s.88 1.31.87 2.1v.94h3.87a2.88 2.88 0 012.86 2.49c.18 1.43-.72 2.77-2.12 3.14zM6.56 27.99c0 1.41 1 2.51 2.3 2.51h14.28c1.29 0 2.29-1.1 2.29-2.51V9.59H6.56v18.4zM20.83 2.96c.01-.39-.15-.77-.43-1.04s-.66-.43-1.05-.42h-6.7c-.39-.01-.77.14-1.05.42-.28.28-.43.65-.43 1.04v.94h9.66v-.94zm5.38 2.44H5.79c-.75 0-1.36.6-1.36 1.34s.61 1.35 1.36 1.35H26.2c.75 0 1.36-.6 1.36-1.35s-.6-1.34-1.35-1.34zm-5.76 21.86c-.42 0-.76-.34-.76-.75V12.34c0-.41.34-.75.76-.75s.75.34.75.75V26.5c.01.42-.33.76-.75.76zm-4.45 0c-.42 0-.76-.34-.76-.75V12.34c0-.41.34-.75.76-.75s.75.34.75.75V26.5c0 .42-.33.76-.75.76zm-4.45 0c-.42 0-.75-.34-.75-.75V12.34a.749.749 0 111.5 0V26.5c0 .42-.34.76-.75.76z" />
        </symbol>

        <symbol id="icon-twitter" viewBox="0 0 32 32">
            <path
                d="M32 6.39c-2.01.09-1.97.09-2.2.1l1.2-3.4s-3.72 1.37-4.66 1.62c-2.49-2.23-6.17-2.33-8.8-.71-2.16 1.33-3.31 3.6-2.93 6.27-4.2-.58-7.73-2.57-10.52-5.93l-.88-1.06-.66 1.21c-.84 1.53-1.12 3.28-.78 4.93.14.68.37 1.32.69 1.93l-.76-.3-.1 1.27c-.09 1.29.34 2.79 1.15 4.02.23.35.52.73.89 1.1l-.39-.06.48 1.45c.63 1.91 1.93 3.38 3.62 4.2-1.69.72-3.05 1.17-5.3 1.91L0 25.62l1.9 1.04c.72.39 3.28 1.72 5.8 2.11 5.61.88 11.93.16 16.18-3.67 3.58-3.23 4.76-7.82 4.51-12.6-.04-.72.16-1.41.56-1.94.79-1.07 3.04-4.16 3.05-4.17zm-4.55 3.04c-.66.88-.99 2-.93 3.16.25 4.82-1.06 8.56-3.9 11.11-3.31 2.98-8.64 4.15-14.64 3.21-1.08-.17-2.21-.55-3.14-.93 1.88-.65 3.33-1.22 5.68-2.34l3.27-1.55-3.62-.23c-1.73-.11-3.17-.95-4.06-2.32.47-.03.93-.1 1.38-.23l3.45-.96-3.48-.85a5.174 5.174 0 01-3.16-2.2 5.44 5.44 0 01-.69-1.51c.35.09.76.16 1.41.23l3.22.32-2.55-1.99c-1.84-1.43-2.57-3.59-2.03-5.66 5.73 5.95 12.47 5.5 13.14 5.66-.15-1.45-.15-1.45-.19-1.59-.87-3.07 1.04-4.63 1.89-5.16 1.79-1.1 4.64-1.27 6.61.55.43.39 1 .55 1.54.41.48-.12.88-.25 1.27-.39l-.81 2.31h1.03a28 28 0 01-.69.95z" />
        </symbol>

        <symbol id="icon-user" viewBox="0 0 32 32">
            <path
                d="M27.77 30.52C26.73 31.5 25.36 32 23.7 32H8.3c-1.66 0-3.03-.5-4.07-1.48-1.05-1-1.58-2.35-1.58-4.02 0-.64.02-1.28.06-1.89.04-.62.13-1.31.26-2.02.13-.72.3-1.41.5-2.03.21-.65.49-1.28.83-1.9.36-.63.78-1.19 1.26-1.64.5-.48 1.11-.86 1.81-1.14.7-.28 1.48-.42 2.31-.42.33 0 .64.13 1.25.53.38.25.82.53 1.31.84.42.27.99.52 1.69.74.68.22 1.38.33 2.06.33.69 0 1.38-.11 2.06-.33.7-.23 1.27-.48 1.69-.74.49-.31.93-.6 1.3-.84.61-.4.93-.53 1.25-.53.83 0 1.61.14 2.31.42.7.28 1.31.66 1.81 1.14.48.45.9 1.01 1.26 1.64.35.61.63 1.25.83 1.9.2.63.37 1.31.5 2.03.13.72.22 1.4.26 2.02.04.61.06 1.25.06 1.89.02 1.67-.51 3.02-1.55 4.02zm-6.52-17.36c-1.5 1.5-3.33 2.26-5.45 2.26s-3.95-.76-5.45-2.26c-1.5-1.5-2.26-3.33-2.26-5.45s.76-3.95 2.26-5.45C11.85.76 13.68 0 15.8 0s3.95.76 5.45 2.26c1.5 1.5 2.26 3.33 2.26 5.45-.01 2.11-.77 3.95-2.26 5.45z" />
        </symbol>

        <symbol id="icon-user-circle" viewBox="0 0 32 32">
            <path
                d="M27.31 4.69A15.86 15.86 0 0016 0C11.73 0 7.71 1.66 4.69 4.69S0 11.73 0 16c0 4.27 1.66 8.29 4.69 11.31A15.86 15.86 0 0016 32c4.27 0 8.29-1.66 11.31-4.69A15.86 15.86 0 0032 16c0-4.27-1.66-8.29-4.69-11.31zM7.36 27.17c1.23-3.69 4.7-6.21 8.64-6.21s7.41 2.53 8.64 6.21c-2.39 1.85-5.39 2.96-8.64 2.96s-6.25-1.11-8.64-2.96zm18.77-1.34c-1.68-4.04-5.66-6.75-10.13-6.75s-8.45 2.71-10.14 6.75A14.112 14.112 0 011.88 16C1.88 8.21 8.21 1.87 16 1.87c7.79 0 14.12 6.34 14.12 14.12 0 3.83-1.52 7.29-3.99 9.84zM16 5.02c-3.29 0-5.96 2.67-5.96 5.96s2.67 5.96 5.96 5.96 5.96-2.67 5.96-5.96S19.29 5.02 16 5.02zm0 10.04c-2.25 0-4.08-1.83-4.08-4.08S13.75 6.9 16 6.9s4.08 1.83 4.08 4.08-1.83 4.08-4.08 4.08z" />
        </symbol>

        <symbol id="icon-withdrawal" viewBox="0 0 32 32">
            <path
                d="M30.94 20.03c-.39.36-.89.6-1.46.6h.09v3.12c0 1.26-.51 2.4-1.34 3.24-.83.84-1.96 1.35-3.21 1.35h-20c-1.25 0-2.38-.51-3.21-1.35a4.591 4.591 0 01-1.34-3.24V8.25c0-1.26.51-2.4 1.34-3.24s1.96-1.35 3.21-1.35h20c1.25 0 2.38.51 3.21 1.35.83.84 1.34 1.98 1.34 3.24v3.09h-.09c.57 0 1.07.24 1.46.6.36.39.6.9.6 1.47v5.16c0 .56-.24 1.1-.6 1.46zM27.93 8.25c0-.81-.33-1.53-.86-2.07-.54-.54-1.25-.87-2.05-.87h-20c-.8 0-1.52.33-2.05.87-.54.54-.87 1.26-.87 2.07v15.47c0 .81.33 1.53.86 2.07.54.54 1.25.87 2.05.87h20c.8 0 1.52-.33 2.05-.87.54-.54.86-1.26.86-2.07V20.6h-9.23c-1.25 0-2.38-.51-3.18-1.32-.8-.84-1.31-1.95-1.31-3.21v-.21c0-1.26.51-2.4 1.31-3.21.83-.81 1.93-1.32 3.18-1.32h9.23V8.25zm1.97 5.19c0-.12-.03-.21-.12-.3a.458.458 0 00-.3-.12H18.71c-.77 0-1.49.3-2.02.84a2.87 2.87 0 00-.83 2.04v.21c0 .78.33 1.53.83 2.04.51.51 1.25.84 2.02.84h10.77c.12 0 .21-.03.3-.12.06-.06.12-.18.12-.3v-5.13zm-10.98 3.83c-.36 0-.68-.15-.92-.39s-.39-.57-.39-.93c0-.36.15-.69.39-.93.24-.24.57-.39.92-.39.36 0 .68.15.95.33.24.27.39.6.39.96 0 .39-.15.72-.39.96-.27.24-.6.39-.95.39z" />
            <path
                d="M8.34 11.01l3.06 3.07c.19.19.19.49 0 .68-.19.19-.49.19-.68 0l-2.25-2.25v8.19c0 .26-.21.48-.48.48s-.48-.21-.48-.48v-8.19l-2.25 2.25c-.19.19-.49.19-.68 0a.494.494 0 01-.14-.34c0-.12.05-.25.14-.34l3.06-3.07c.21-.19.51-.19.7 0z" />
        </symbol>

        <symbol id="icon-youtube" viewBox="0 0 24 24">
            <rect id="Base" width="24" height="24" fill="none" />
            <g id="icon" transform="translate(-0.581 -11.656)">
                <path id="XMLID_823_"
                    d="M19.22,47.125c-.722-.858-2.055-1.208-4.6-1.208H5.38c-2.6,0-3.959.373-4.679,1.286-.7.891-.7,2.2-.7,4.02v3.463c0,3.519.832,5.306,5.38,5.306h9.24c2.207,0,3.431-.309,4.222-1.066.812-.777,1.158-2.045,1.158-4.24V51.223C20,49.308,19.946,47.987,19.22,47.125Zm-6.38,6.307-4.2,2.193a.645.645,0,0,1-.944-.572V50.682a.645.645,0,0,1,.943-.573l4.2,2.179a.645.645,0,0,1,0,1.144Z"
                    transform="translate(2.581 -29.298)" />
            </g>
        </symbol>

        <symbol id="icon-telegram" viewBox="0 0 24 24">
            <rect id="Base" width="24" height="24" fill="none" />
            <g id="icon" transform="translate(-2.5 -11.773)">
                <path id="telegram-svgrepo-com-2"
                    d="M10.014,0A10.014,10.014,0,1,0,20.028,10.014,10.014,10.014,0,0,0,10.014,0Zm4.918,6.86L13.288,14.6c-.121.549-.448.683-.9.424l-2.5-1.844L8.674,14.347a.633.633,0,0,1-.5.246h0l.178-2.549,4.64-4.191c.2-.178-.045-.279-.311-.1l-5.732,3.61-2.47-.771c-.534-.169-.549-.534.113-.8l9.652-3.72c.449-.164.839.107.694.785Z"
                    transform="translate(4.486 13.773)" />
            </g>
        </symbol>

        <symbol id="icon-home" viewBox="0 0 32 32">
            <path
                d="M14.158,7.643l-9.31,7.043v7.6a.777.777,0,0,0,.808.742l5.659-.013a.777.777,0,0,0,.8-.742V17.835a.777.777,0,0,1,.808-.742h3.232a.777.777,0,0,1,.808.742v4.436a.712.712,0,0,0,.236.526.846.846,0,0,0,.572.218l5.657.014a.777.777,0,0,0,.808-.742V14.681L14.93,7.643A.659.659,0,0,0,14.158,7.643ZM28.864,12.43l-4.222-3.2V2.81a.583.583,0,0,0-.606-.557H21.209a.583.583,0,0,0-.606.557V6.178L16.082,2.761a2.592,2.592,0,0,0-3.08,0L.219,12.43a.526.526,0,0,0-.081.784l1.288,1.438a.623.623,0,0,0,.41.2.643.643,0,0,0,.444-.125L14.158,5.742a.659.659,0,0,1,.773,0l11.879,8.986a.644.644,0,0,0,.853-.074l1.288-1.438a.526.526,0,0,0,.135-.409.545.545,0,0,0-.221-.376Z"
                transform="translate(1.501 3.347)" />
        </symbol>

        <symbol xmlns="http://www.w3.org/2000/svg" id="icon-twitch" width="24" height="24" viewBox="0 0 24 24">
            <path
                d="M1.956,0,.7,3.353v13.4H5.306V19.27H7.821l2.509-2.515H14.1l5.028-5.025V0ZM3.631,1.675H17.453v9.214l-2.933,2.933H9.912L7.4,16.334V13.822H3.63Zm4.607,8.38H9.913V5.028H8.238Zm4.6,0h1.675V5.028H12.842Z"
                transform="translate(-0.698)" />
        </symbol>

        <symbol id="icon-login" viewBox="0 0 24 24">
            <rect id="Base" width="24" height="24" fill="none" />
            <path id="icon"
                d="M-2228.156-3749v-2c0-2.65,5.073-4,7.587-4s7.586,1.35,7.586,4v2Zm3.793-12a3.912,3.912,0,0,1,3.794-4,3.912,3.912,0,0,1,3.793,4,3.912,3.912,0,0,1-3.793,4A3.913,3.913,0,0,1-2224.363-3761Z"
                transform="translate(2232.569 3769)" />
        </symbol>

        <symbol id="icon-register" viewBox="0 0 24 24">
            <rect id="Base" width="24" height="24" fill="none" />
            <path id="icon"
                d="M-2228.156-3749v-2c0-2.65,5.073-4,7.587-4s7.586,1.35,7.586,4v2Zm-1.609-4.546v-3.217h-3.217v-1.609h3.217v-3.217h1.609v3.217h3.218v1.609h-3.218v3.217Zm5.4-7.454a3.912,3.912,0,0,1,3.794-4,3.912,3.912,0,0,1,3.793,4,3.912,3.912,0,0,1-3.793,4A3.913,3.913,0,0,1-2224.363-3761Z"
                transform="translate(2233.965 3769)" />
        </symbol>

        <symbol id="icon-plus-circle" viewBox="0 0 24 24">
            <rect id="Base" fill="none" width="24" height="24" />
            <g id="icon" transform="translate(-4.529 -13.122)">
                <path id="Path_24636" data-name="Path 24636"
                    d="M9,18a9,9,0,1,1,9-9A9.01,9.01,0,0,1,9,18ZM4.752,8.163a.836.836,0,0,0,0,1.672H8.163v3.411a.836.836,0,1,0,1.672,0V9.835h3.411a.836.836,0,1,0,0-1.672H9.835V4.752a.836.836,0,0,0-1.672,0V8.163Z"
                    transform="translate(7.5 16.14)" />
            </g>
        </symbol>

        <symbol id="icon-tournament" viewBox="0 0 24 24">
            <rect id="Base" width="24" height="24" fill="none" />
            <path id="Path_24624" data-name="Path 24624"
                d="M47.108,0H37.3V1.736H33.95V4.31A3.358,3.358,0,0,0,37.3,7.664h.059A4.9,4.9,0,0,0,41.172,11.7v2.778h-1.2a.67.67,0,0,0-.67.67v.882H38.272v3.146h7.872V16.03H45.117v-.882a.67.67,0,0,0-.67-.67h-1.2V11.7a4.9,4.9,0,0,0,3.809-4.036h.059A3.358,3.358,0,0,0,50.466,4.31V1.736H47.112V0ZM37.3,5.968A1.661,1.661,0,0,1,35.647,4.31V3.432H37.3Zm7.128-1.2-1.007.85L43.738,6.9a.278.278,0,0,1-.415.3l-1.117-.7L41.085,7.2a.277.277,0,0,1-.415-.3l.313-1.281-1-.846a.275.275,0,0,1,.157-.486l1.313-.094.5-1.223a.277.277,0,0,1,.513,0l.5,1.219,1.313.094A.279.279,0,0,1,44.432,4.769Zm4.33-1.336V4.31a1.657,1.657,0,0,1-1.654,1.657V3.432Z"
                transform="translate(-30.208 2.405)" />
        </symbol>

        <symbol id="icon-winings" viewBox="0 0 24 24">
            <rect id="Base" width="24" height="24" fill="none" />
            <g id="cash-svgrepo-com" transform="translate(-8 -9)">
                <g id="Group_2548" data-name="Group 2548" transform="translate(11 11)">
                    <path id="Path_24626" data-name="Path 24626"
                        d="M264,376.2v1.555a.839.839,0,0,0,.5-.279.771.771,0,0,0,.194-.52.692.692,0,0,0-.163-.461A1.09,1.09,0,0,0,264,376.2Z"
                        transform="translate(-254.19 -362.04)" />
                    <path id="Path_24627" data-name="Path 24627"
                        d="M234.8,307.594a.644.644,0,0,0,.132.392.953.953,0,0,0,.4.295V306.9a.779.779,0,0,0-.388.271A.671.671,0,0,0,234.8,307.594Z"
                        transform="translate(-226.122 -295.427)" />
                    <path id="Path_24628" data-name="Path 24628"
                        d="M22.066,239.037a2.013,2.013,0,0,1-1.26.6v.744h-.6v-.725a1.923,1.923,0,0,1-1.159-.516,2.076,2.076,0,0,1-.57-1.218l1.078-.112a1.3,1.3,0,0,0,.248.551,1.074,1.074,0,0,0,.4.333v-1.671a2.3,2.3,0,0,1-1.187-.675,1.66,1.66,0,0,1-.38-1.1,1.537,1.537,0,0,1,.427-1.1,1.728,1.728,0,0,1,1.14-.512v-.4h.6v.4a1.8,1.8,0,0,1,1.047.434,1.659,1.659,0,0,1,.5.954l-1.047.132a.817.817,0,0,0-.5-.64v1.559a2.715,2.715,0,0,1,1.353.671,1.551,1.551,0,0,1,.361,1.059A1.759,1.759,0,0,1,22.066,239.037Zm7.142-7.437H11.791a.789.789,0,0,0-.791.791v8.864a.789.789,0,0,0,.791.791H29.209a.789.789,0,0,0,.791-.791v-8.864A.789.789,0,0,0,29.209,231.6Z"
                        transform="translate(-11 -223.046)" />
                    <path id="Path_24629" data-name="Path 24629"
                        d="M78.652,159H65.391a.791.791,0,1,0,0,1.582H78.652a.791.791,0,1,0,0-1.582Z"
                        transform="translate(-62.522 -153.261)" />
                    <path id="Path_24630" data-name="Path 24630"
                        d="M126.69,86.582H135.2a.791.791,0,1,0,0-1.582H126.69a.791.791,0,1,0,0,1.582Z"
                        transform="translate(-121.444 -82.131)" />
                    <path id="Path_24631" data-name="Path 24631"
                        d="M199.891,12.582h2.834a.791.791,0,0,0,0-1.582h-2.834a.791.791,0,0,0,0,1.582Z"
                        transform="translate(-191.807 -11)" />
                </g>
            </g>
        </symbol>

        <symbol id="icon-jackpot-people" viewBox="0 0 24 24">
            <rect id="Base" width="24" height="24" fill="none" />
            <g id="gold-ingots-svgrepo-com" transform="translate(2 -0.425)">
                <path id="Path_24625" data-name="Path 24625"
                    d="M14.488,13.1a.935.935,0,0,1-.82.513H6.329a.936.936,0,0,1-.82-.513,1.1,1.1,0,0,1,0-1.026L7.344,8.629a.935.935,0,0,1,.82-.513h3.668a.936.936,0,0,1,.82.513l1.835,3.442A1.1,1.1,0,0,1,14.488,13.1ZM9.1,18.353,7.269,14.911a.936.936,0,0,0-.82-.513H2.781a.935.935,0,0,0-.819.513L.126,18.353a1.1,1.1,0,0,0,0,1.026.935.935,0,0,0,.82.513H8.284a.936.936,0,0,0,.82-.513A1.1,1.1,0,0,0,9.1,18.353Zm10.768,0-1.835-3.441a.935.935,0,0,0-.819-.513H13.549a.936.936,0,0,0-.82.513l-1.834,3.441a1.1,1.1,0,0,0,0,1.026.934.934,0,0,0,.819.513h7.338a.936.936,0,0,0,.82-.513A1.1,1.1,0,0,0,19.872,18.353Zm-3.4-9.9-.328,1.535-1.536.327,1.536.327.328,1.535.327-1.535,1.536-.327L16.8,9.987ZM4.558,6.661,4.23,8.2l-1.536.327L4.23,8.85l.327,1.535L4.885,8.85l1.536-.327L4.885,8.2Zm7.821-2.436L12.051,5.76l-1.536.327,1.536.327.328,1.535.327-1.535,1.536-.327L12.706,5.76Z"
                    transform="translate(0 0)" />
            </g>
        </symbol>

        <symbol id="icon-arrow-down" viewBox="0 0 24 24">
            <rect id="Base" width="24" height="24" fill="none" />
            <g id="icon" transform="translate(-1958 -3834)">
                <path id="Path_24635" data-name="Path 24635"
                    d="M7.738.9A1,1,0,0,1,9.262.9L15.6,8.352A1,1,0,0,1,14.838,10H2.162A1,1,0,0,1,1.4,8.352Z"
                    transform="translate(1978.439 3851.2) rotate(180)" />
            </g>
        </symbol>

        <symbol id="icon-envelope" viewBox="0 0 24 24">
            <rect id="Base" width="24" height="24" fill="none" />
            <path id="icon"
                d="M21.333,6H4.667A1.672,1.672,0,0,0,3,7.667V19.333A1.672,1.672,0,0,0,4.667,21H21.333A1.672,1.672,0,0,0,23,19.333V7.667A1.672,1.672,0,0,0,21.333,6Zm-1,3.333-6.75,5.333a1.133,1.133,0,0,1-1.25,0L5.667,9.417A.643.643,0,0,1,5.583,8.5.761.761,0,0,1,6.5,8.333L13,12.667l6.583-4.333A.738.738,0,0,1,20.5,8.5.646.646,0,0,1,20.333,9.333Z"
                transform="translate(-1 -1.5)" />
        </symbol>

        <symbol id="icon-facebook-redesign" viewBox="0 0 24 24">
            <rect id="Base" width="24" height="24" fill="none" />
            <g id="icon" transform="translate(-2.5 -11.773)">
                <path id="XMLID_835_"
                    d="M77.026,10.667h2.2V19.7a.323.323,0,0,0,.323.323h3.722a.323.323,0,0,0,.323-.323v-9h2.524a.323.323,0,0,0,.321-.286L86.818,7.1a.323.323,0,0,0-.321-.36H83.59V4.65c0-.629.339-.948,1.006-.948h1.9a.323.323,0,0,0,.323-.323V.325A.323.323,0,0,0,86.5,0H83.877c-.018,0-.06,0-.12,0a5.019,5.019,0,0,0-3.282,1.237A3.442,3.442,0,0,0,79.331,4.3V6.736h-2.3a.323.323,0,0,0-.323.323v3.285A.323.323,0,0,0,77.026,10.667Z"
                    transform="translate(-67.261 13.773)" />
            </g>
        </symbol>

        <symbol id="icon-search-redesign" viewBox="0 0 24 24">
            <rect id="Base" width="24" height="24" fill="none" />
            <path id="Search"
                d="M81.979,13.627l4.568,4.566a1.159,1.159,0,0,0,1.639-1.639l-4.565-4.564a7.544,7.544,0,1,0-1.642,1.636ZM77.54,2.307a5.224,5.224,0,1,1-5.224,5.224A5.227,5.227,0,0,1,77.54,2.307Z"
                transform="translate(-67.262 2.74)" fill-rule="evenodd" />
        </symbol>

        <symbol id="icon-close-redesign" viewBox="0 0 24 24">
            <rect id="Base" width="24" height="24" fill="none" />
            <g id="icon" transform="translate(-2.671 -11.96)">
                <path id="Icon_ionic-ios-close" data-name="Icon ionic-ios-close"
                    d="M22.418,20.286l6.429-6.429a1.506,1.506,0,0,0-2.13-2.13l-6.429,6.429-6.429-6.429a1.506,1.506,0,1,0-2.13,2.13l6.429,6.429-6.429,6.429a1.506,1.506,0,1,0,2.13,2.13l6.429-6.429,6.429,6.429a1.506,1.506,0,0,0,2.13-2.13Z"
                    transform="translate(-5.614 3.672)" />
            </g>
        </symbol>

        <symbol id="icon-back" viewBox="0 0 24 24" fill="none">
            <path d="M 12.596413,3.2036086 3.6101175,11.904327 12.596413,20.605048" stroke="#82849b"
                stroke-width="3.16119" stroke-linecap="round" stroke-linejoin="round" />
        </symbol>

        <symbol id="icon-close-redesign" viewBox="0 0 24 24">
            <rect id="Base" width="24" height="24" fill="none" />
            <g id="icon" transform="translate(-2.671 -11.96)">
                <path id="Icon_ionic-ios-close" data-name="Icon ionic-ios-close"
                    d="M22.418,20.286l6.429-6.429a1.506,1.506,0,0,0-2.13-2.13l-6.429,6.429-6.429-6.429a1.506,1.506,0,1,0-2.13,2.13l6.429,6.429-6.429,6.429a1.506,1.506,0,1,0,2.13,2.13l6.429-6.429,6.429,6.429a1.506,1.506,0,0,0,2.13-2.13Z"
                    transform="translate(-5.614 3.672)" />
            </g>
        </symbol>

        <symbol id="icon-bonus" viewBox="0 0 24 24">
            <rect fill="none" />
            <g transform="translate(-1954.557 -3830.987)">
                <path
                    d="M1.255,18.568A1.254,1.254,0,0,0,2.51,19.823H8.787V13.547H1.255ZM11.3,19.823h6.276a1.254,1.254,0,0,0,1.255-1.255V13.547H11.3ZM18.828,7.271H17.177a3.42,3.42,0,0,0,.4-1.569A3.457,3.457,0,0,0,14.121,2.25c-1.632,0-2.687.836-4.04,2.679C8.728,3.086,7.673,2.25,6.041,2.25A3.457,3.457,0,0,0,2.589,5.7a3.372,3.372,0,0,0,.4,1.569H1.255A1.254,1.254,0,0,0,0,8.526v3.138a.629.629,0,0,0,.628.628H19.456a.629.629,0,0,0,.628-.628V8.526A1.254,1.254,0,0,0,18.828,7.271Zm-12.792,0a1.569,1.569,0,1,1,0-3.138c.781,0,1.357.129,3.377,3.138Zm8.084,0H10.744c2.016-3,2.577-3.138,3.377-3.138a1.569,1.569,0,0,1,0,3.138Z"
                    transform="translate(1956.515 3831.951)" />
            </g>
        </symbol>

        <symbol id="icon-crown-filled" viewBox="0 0 24 24">
            <rect fill="none" />
            <path
                d="M148.261,12.937a.714.714,0,1,0-1.428,0v.042L144.314,14.7l-.8-4.409a.041.041,0,0,0-.042-.042.658.658,0,0,0,.378-.588.714.714,0,0,0-1.428,0,.746.746,0,0,0,.168.42h0l-2.771,3.443-2.268-5.291a.746.746,0,0,0,.168-.42.714.714,0,1,0-1.428,0,.6.6,0,0,0,.252.5l-2.184,5.039-2.645-3.275a.041.041,0,0,1-.042-.042.755.755,0,0,0,.168-.378.714.714,0,0,0-1.428,0,.632.632,0,0,0,.42.588.041.041,0,0,1-.042.042l-.756,4.241-2.31-1.6h-.042c0-.042.042-.084.042-.126a.714.714,0,1,0-1.428,0,.684.684,0,0,0,.63.672v.042l1.638,4.913a.491.491,0,0,0,.462.336h16.25a.455.455,0,0,0,.462-.336l1.722-4.829C148.009,13.567,148.261,13.315,148.261,12.937ZM145.406,19.4h-16.25a.485.485,0,0,0-.5.5v1.932a.485.485,0,0,0,.5.5h16.25a.485.485,0,0,0,.5-.5V19.907A.463.463,0,0,0,145.406,19.4Z"
                transform="translate(-125.262 -2.75)" />
        </symbol>

        <symbol id="icon-arrow-down" viewBox="0 0 14.679 9.456">
            <path d="M6.578.352A1,1,0,0,1,8.1.352l6.338,7.456a1,1,0,0,1-.762,1.648H1A1,1,0,0,1,.24,7.808Z"
                transform="translate(14.679 9.456) rotate(180)" />
        </symbol>

        <symbol id="icon-add-circle-outline" viewBox="0 0 27.03 27.03">
            <path
                d="M17.867,9.758h-2.7v5.406H9.758v2.7h5.406v5.406h2.7V17.867h5.406v-2.7H17.867ZM16.515,3A13.515,13.515,0,1,0,30.03,16.515,13.52,13.52,0,0,0,16.515,3Zm0,24.327A10.812,10.812,0,1,1,27.327,16.515,10.826,10.826,0,0,1,16.515,27.327Z"
                transform="translate(-3 -3)" />
        </symbol>

        <symbol id="icon-time" viewBox="0 0 27.984 27.984">
            <path
                d="M0,13.992A13.6,13.6,0,0,1,1.119,8.563,14.424,14.424,0,0,1,4.086,4.086,13.412,13.412,0,0,1,8.563,1.119,14.42,14.42,0,0,1,13.992,0a13.669,13.669,0,0,1,5.457,1.119A14.079,14.079,0,0,1,23.9,4.086a14,14,0,0,1,2.966,4.477,13.734,13.734,0,0,1,1.119,5.429,13.471,13.471,0,0,1-1.119,5.429A14.875,14.875,0,0,1,23.9,23.9a13.2,13.2,0,0,1-4.477,2.994,14.049,14.049,0,0,1-10.858,0A13.2,13.2,0,0,1,4.086,23.9a14.875,14.875,0,0,1-2.966-4.477A13.471,13.471,0,0,1,0,13.992Zm3.5,0a10.433,10.433,0,0,0,1.4,5.289,10.017,10.017,0,0,0,3.834,3.806,10.768,10.768,0,0,0,5.261,1.4,10.021,10.021,0,0,0,5.261-1.4,10.563,10.563,0,0,0,3.834-3.806,10.237,10.237,0,0,0,1.4-5.289,10.089,10.089,0,0,0-1.4-5.261,10.859,10.859,0,0,0-3.834-3.806A9.877,9.877,0,0,0,13.992,3.5,10.6,10.6,0,0,0,8.731,4.925,10.37,10.37,0,0,0,3.5,13.992Zm8.759,0V8.759a1.675,1.675,0,0,1,.5-1.231A1.777,1.777,0,0,1,13.992,7a1.51,1.51,0,0,1,1.231.532,1.928,1.928,0,0,1,.532,1.231v3.5h3.5a1.736,1.736,0,0,1,1.231.5,1.543,1.543,0,0,1,.5,1.231,1.944,1.944,0,0,1-.5,1.259,1.5,1.5,0,0,1-1.231.5H13.992a1.675,1.675,0,0,1-1.231-.5,1.709,1.709,0,0,1-.5-1.259Z" />
        </symbol>

        <symbol id="icon-star" viewBox="0 0 32 32">
            <path
                d="M31.95 12.35a.931.931 0 00-.76-.64l-9.92-1.44-4.44-8.95a.937.937 0 00-1.68 0l-4.44 8.95L.8 11.71c-.35.05-.65.3-.76.64-.11.34-.02.71.24.95l7.18 6.97-1.69 9.84c-.06.35.09.7.37.91.16.12.35.18.55.18.15 0 .3-.04.44-.11L16 26.45l8.87 4.65c.46.24 1.02.07 1.26-.39.1-.18.13-.39.1-.59l-1.69-9.84 7.18-6.97c.25-.26.34-.63.23-.96z" />
        </symbol>

        <symbol id="icon-star-outline" viewBox="0 0 32 32">
            <path
                d="M24.25 31.41c-.42 0-.84-.1-1.21-.3l-6.94-3.65a.363.363 0 00-.35 0L8.8 31.11a2.61 2.61 0 01-3.52-1.09c-.27-.51-.36-1.01-.26-1.58l1.33-7.8a.367.367 0 00-.11-.33L.63 14.93c-.84-1.1-.81-2.75-.05-3.78.4-.41.93-.68 1.5-.76l7.76-1.13c.12-.02.23-.09.28-.21l3.47-7.03C14.23.73 15.79.2 17.08.84c.51.33.93.67 1.19 1.18l3.47 7.03c.06.11.26.19.28.21l7.91 1.13c1.28.2 2.26 1.53 2.06 2.95-.08.57-.35 1.09-.76 1.58l-5.62 5.38c-.09.09-.13.21-.11.33l1.33 7.76c.24 1.38-.71 2.73-2.13 3.01-.16 0-.31.01-.45.01zm-8.33-6.21c.42 0 .84.1 1.21.3l6.94 3.65c.13.07.28.06.4.07.12-.17.18-.32.15-.39l-1.33-7.8c-.14-.84.14-1.7.75-2.3l5.62-5.47c.15-.15.15-.38.01-.53a.358.358 0 00-.22-.11l-7.71-1.13c-.9-.12-1.63-.66-2.01-1.42l-3.47-7.03a.371.371 0 00-.5-.17c-.01.04-.13.1-.17.17l-3.35 7.03c-.41.77-1.23 1.3-2.08 1.42L2.4 12.62c-.21.03-.35.22-.32.42.01.08.05.16.11.22l5.62 5.47c.61.6.89 1.46.75 2.3l-1.25 7.8c-.11.13.03.32.23.36.08.01.17 0 .24-.04l6.94-3.65c.36-.2.93-.3 1.2-.3z" />
        </symbol>

        <symbol id="icon-freespins" viewBox="0 0 72.25 57.8">
            <path
                d="m61.41,39.74l-10.84-10.84h7.22c0-11.97-9.7-21.67-22.57-21.67-6,0-12.14,3.24-16.11,8.27l-5.14-5.14C19.27,4.03,27.22,0,35.22,0c16.86,0,29.8,12.94,29.8,28.9h7.22l-10.84,10.84Zm-27.79,1.23h-4.08c-.28,0-.47-.05-.56-.16-.1-.11-.15-.28-.15-.51v-22.53c0-.41.17-.61.51-.61h15.92c.32,0,.48.18.48.55l-.03,2.89c0,.45-.22.67-.64.67h-10.01c-.41,0-.61.17-.61.51v4.98c0,.34.16.51.48.51h6.97c.34,0,.51.17.51.51v3.05c0,.3-.16.45-.48.45h-7.03c-.3,0-.45.14-.45.42v8.54c0,.49-.28.74-.83.74Zm-19.17-12.07c0,11.97,9.71,21.67,20.77,21.67,7.81,0,13.94-3.24,17.91-8.27l5.14,5.14c-5.3,6.33-13.25,10.36-23.05,10.36-15.06,0-28-12.94-28-28.9H0l10.84-10.84,10.84,10.84h-7.23Z" />
        </symbol>

        <symbol id="igm-wallet" viewBox="0 0 28.27 28.27">
            <path class="cls-1"
                d="m26.34,23.13h-4.5c-2.83,0-5.14-2.31-5.14-5.14s2.31-5.14,5.14-5.14h4.5c.36,0,.64-.29.64-.64v-1.93c0-1.35-1.04-2.44-2.37-2.55l-3.69-6.44c-.34-.6-.89-1.02-1.55-1.2-.66-.18-1.34-.08-1.93.26L4.79,7.71h-2.22c-1.42,0-2.57,1.15-2.57,2.57v15.42c0,1.42,1.15,2.57,2.57,2.57h21.84c1.42,0,2.57-1.15,2.57-2.57v-1.93c0-.36-.29-.64-.64-.64Zm-4.62-17.86l1.4,2.44h-5.6l4.2-2.44Zm-14.38,2.44L18.08,1.46c.29-.17.63-.22.95-.13.33.09.6.3.77.6h0s-9.93,5.78-9.93,5.78h-2.54Z" />
            <path class="cls-1"
                d="m26.34,14.13h-4.5c-2.13,0-3.85,1.73-3.85,3.85s1.73,3.85,3.85,3.85h4.5c1.06,0,1.93-.86,1.93-1.93v-3.85c0-1.06-.86-1.93-1.93-1.93Zm-4.5,5.14c-.71,0-1.28-.58-1.28-1.28s.58-1.28,1.28-1.28,1.28.58,1.28,1.28c0,.71-.58,1.28-1.28,1.28Z" />
        </symbol>

        <symbol id="igm-star" viewBox="0 0 56.78 54.54">
            <path class="cls-1"
                d="m56.64,20.61c-.37-1.15-1.39-1.97-2.6-2.08l-16.39-1.49L31.17,1.84c-.48-1.12-1.57-1.84-2.78-1.84s-2.3.72-2.77,1.84l-6.48,15.2-16.39,1.49c-1.2.11-2.22.93-2.59,2.08-.37,1.15-.03,2.42.88,3.22l12.39,10.89-3.65,16.13c-.27,1.19.19,2.41,1.17,3.12.53.38,1.15-.32,1.77-.32.53,0,1.07.76,1.55.47l14.13-8.47,14.13,8.47c1.04.62,2.34.56,3.32-.15.98-.71,1.44-1.94,1.17-3.12l-3.65-16.13,12.39-10.89c.91-.8,1.25-2.06.88-3.22Z" />
        </symbol>

        <symbol id="igm-menu" viewBox="0 0 54.47 52.89">
            <path
                d="m48.1,12.59c-3.51,0-6.37-2.82-6.37-6.3s2.85-6.3,6.37-6.3,6.37,2.82,6.37,6.3-2.86,6.3-6.37,6.3Zm-.16,7.58c3.51,0,6.37,2.83,6.37,6.3s-2.86,6.3-6.37,6.3-6.37-2.82-6.37-6.3,2.86-6.3,6.37-6.3Zm-20.78-7.58c-3.51,0-6.37-2.82-6.37-6.3S23.64,0,27.15,0s6.37,2.82,6.37,6.3-2.86,6.3-6.37,6.3Zm-.17,7.58c3.51,0,6.37,2.83,6.37,6.3s-2.86,6.3-6.37,6.3-6.37-2.82-6.37-6.3,2.86-6.3,6.37-6.3ZM6.54,12.59C3.02,12.59.17,9.77.17,6.3S3.03,0,6.54,0s6.37,2.82,6.37,6.3-2.86,6.3-6.37,6.3Zm-.17,7.58c3.51,0,6.37,2.83,6.37,6.3s-2.86,6.3-6.37,6.3S0,29.95,0,26.47s2.86-6.3,6.37-6.3Zm.14,20.11c3.51,0,6.37,2.82,6.37,6.3s-2.86,6.3-6.37,6.3S.15,50.06.15,46.59s2.86-6.3,6.37-6.3Zm20.62,0c3.51,0,6.37,2.82,6.37,6.3s-2.86,6.3-6.37,6.3-6.37-2.83-6.37-6.3,2.86-6.3,6.37-6.3Zm20.94,0c3.51,0,6.37,2.82,6.37,6.3s-2.86,6.3-6.37,6.3-6.37-2.83-6.37-6.3,2.86-6.3,6.37-6.3Z" />
        </symbol>

        <symbol id="igm-cup" viewBox="0 0 56.46 56.43">
            <path
                d="m54.82,4.81c-1.13-1.2-2.73-1.89-4.38-1.89h-5.26c.02-.94.03-1.92.03-2.92H11.29c0,1,.01,1.98.03,2.92h-5.29c-1.65,0-3.25.69-4.38,1.89C.5,6.02-.09,7.67.01,9.34c.95,15.76,9.09,25.65,21.99,27.12l-2.5,8.69c-2.97,0-5.38,2.41-5.38,5.38v5.91h28.26v-5.91c0-2.97-2.41-5.38-5.38-5.38l-2.5-8.69c12.88-1.48,21.01-11.36,21.95-27.12.1-1.66-.49-3.32-1.64-4.53ZM5.65,9c0-.15.06-.26.11-.32.11-.11.23-.11.27-.11h5.56c.84,11.1,3.29,17.39,5.67,20.94-9.06-3.8-11.22-13.93-11.61-20.51Zm33.59,20.49c2.38-3.56,4.82-9.85,5.66-20.93h5.54s.16,0,.27.11c.06.06.12.16.11.32-.4,6.58-2.56,16.69-11.58,20.5Z" />
        </symbol>

        <symbol id="igm-gift-card" viewBox="0 0 73.41 51.76">
            <path
                d="m66.67,51.76H25.83v-25.14l5.07,5.11,3.35-3.31-5.12-5.16h44.28v21.78c0,3.71-3.01,6.72-6.74,6.72ZM30.21,10.8c.91,0,1.8.32,2.46.98,1.52,1.51,1.13,3.99-.3,5.41-1.37,1.36-4.74,1.4-6.5,1.36-.04-1.78.29-5.3,1.33-6.48.8-.9,1.95-1.28,3.01-1.28Zm5.78-2.35c.35.35.55.55,0,0-1.72-1.71-.62-.62,0,0-2.69-2.67-6.86-3.05-10.16-1.19V0h40.84c3.72,0,6.74,3.01,6.74,6.72v11.83h-36.21c1.84-3.24,1.48-7.44-1.2-10.11Zm0,0h0ZM0,45.04v-21.78h17.8l-5.19,5.2,3.34,3.32,5.16-5.18v25.16H6.73c-3.72,0-6.73-3.01-6.73-6.72ZM16.75,10.8c1.06,0,2.21.38,3.01,1.28,1.04,1.18,1.37,4.7,1.33,6.48-1.76.04-5.13,0-6.5-1.36-1.43-1.42-1.82-3.9-.3-5.41.66-.66,1.54-.98,2.46-.98Zm-5.79-2.35c-2.68,2.66-3.04,6.87-1.2,10.11H0V6.72C0,3.01,3.01,0,6.73,0h14.39v7.26c-3.3-1.86-7.47-1.49-10.16,1.19Z" />
        </symbol>

        <symbol id="igm-freespins" viewBox="0 0 72.25 57.8">
            <path
                d="m61.41,39.74l-10.84-10.84h7.22c0-11.97-9.7-21.67-22.57-21.67-6,0-12.14,3.24-16.11,8.27l-5.14-5.14C19.27,4.03,27.22,0,35.22,0c16.86,0,29.8,12.94,29.8,28.9h7.22l-10.84,10.84Zm-27.79,1.23h-4.08c-.28,0-.47-.05-.56-.16-.1-.11-.15-.28-.15-.51v-22.53c0-.41.17-.61.51-.61h15.92c.32,0,.48.18.48.55l-.03,2.89c0,.45-.22.67-.64.67h-10.01c-.41,0-.61.17-.61.51v4.98c0,.34.16.51.48.51h6.97c.34,0,.51.17.51.51v3.05c0,.3-.16.45-.48.45h-7.03c-.3,0-.45.14-.45.42v8.54c0,.49-.28.74-.83.74Zm-19.17-12.07c0,11.97,9.71,21.67,20.77,21.67,7.81,0,13.94-3.24,17.91-8.27l5.14,5.14c-5.3,6.33-13.25,10.36-23.05,10.36-15.06,0-28-12.94-28-28.9H0l10.84-10.84,10.84,10.84h-7.23Z" />
        </symbol>

        <symbol id="igm-close" viewBox="0 0 35.99 35.57">
            <path
                d="m22.81,17.73l12.1,12.03c1.38,1.29,1.45,3.44.16,4.82-.05.05-.1.11-.16.16-.71.62-1.65.92-2.59.82-.9,0-1.75-.36-2.39-.99l-11.98-11.98-12.15,12.15c-.66.57-1.52.86-2.39.82-.88.05-1.75-.24-2.42-.82-1.32-1.33-1.32-3.48,0-4.81l12.15-12.15L.99,5.63C-.23,4.2-.07,2.04,1.36.82,2.64-.27,4.52-.27,5.8.82l12.19,12.12L29.93.99c1.38-1.29,3.53-1.21,4.82.16,1.16,1.24,1.23,3.15.16,4.48l-12.1,12.1Z" />
        </symbol>

        <symbol id="igm-avatar" viewBox="0 0 46.43 46.43">
            <path
                d="m39.63,39.63c-4.39,4.38-10.22,6.8-16.42,6.8s-12.03-2.42-16.42-6.8C2.41,35.25,0,29.42,0,23.22S2.41,11.18,6.8,6.8C11.18,2.42,17.01,0,23.22,0s12.03,2.42,16.42,6.8c4.38,4.38,6.8,10.21,6.8,16.42s-2.42,12.03-6.8,16.42ZM23.22,4.17C12.72,4.17,4.17,12.72,4.17,23.22c0,9.6,8.54,19.04,19.04,19.04,9.6,0,19.04-9.44,19.04-19.04,0-10.5-9.44-19.04-19.04-19.04Zm8.74,32.86c-1.15,0-2.09-.94-2.09-2.09,0-1.8-1.51-3.5-3.1-3.5h-7.29c-1.57,0-3.05,1.71-3.05,3.52,0,1.16-.94,2.1-2.09,2.1s-2.09-.93-2.09-2.06c0-4.14,3.31-7.63,7.23-7.63h7.29c1.86,0,3.72.83,5.1,2.28,1.38,1.45,2.17,3.39,2.17,5.33,0,1.14-.92,2.04-2.09,2.04Zm-8.96-11.11c-4.29,0-7.78-3.49-7.78-7.78s3.49-7.78,7.78-7.78,7.78,3.49,7.78,7.78-3.49,7.78-7.78,7.78Zm0-11.39c-1.99,0-3.61,1.62-3.61,3.61s1.62,3.61,3.61,3.61,3.61-1.62,3.61-3.61-1.62-3.61-3.61-3.61Z" />
        </symbol>

        <symbol id="igm-hamburger" viewBox="0 0 39.94 31.36">
            <path
                d="m36.24,6.51H3.25c-1.79,0-3.25-1.46-3.25-3.26S1.46,0,3.25,0h32.99c1.79,0,3.25,1.46,3.25,3.25s-1.46,3.26-3.25,3.26ZM3.25,12.43h33.43c1.79,0,3.25,1.46,3.25,3.26s-1.46,3.25-3.25,3.25H3.25c-1.79,0-3.25-1.46-3.25-3.25s1.46-3.26,3.25-3.26Zm0,12.43h21.18c1.79,0,3.25,1.46,3.25,3.25s-1.46,3.25-3.25,3.25H3.25c-1.79,0-3.25-1.46-3.25-3.25s1.46-3.25,3.25-3.25Z" />
        </symbol>

        <symbol id="igm-bonus-freespins" viewBox="0 0 130 98">
            <path
                d="M129.835,50.889 L129.835,70.943 C129.835,73.415 127.834,75.416 125.364,75.416 L119.163,75.416 L119.163,46.416 L120.920,46.416 C120.920,10.973 120.904,13.266 120.951,12.965 C118.349,12.056 116.485,9.579 116.485,6.666 C116.485,2.979 119.470,-0.006 123.156,-0.006 C126.840,-0.006 129.827,2.979 129.827,6.666 C129.827,9.579 127.960,12.056 125.361,12.965 C125.409,13.266 125.392,10.978 125.392,46.416 C127.848,46.430 129.835,48.426 129.835,50.889 ZM110.219,98.006 L4.636,98.006 C2.167,98.006 0.165,96.004 0.165,93.533 L0.165,88.673 L114.690,88.673 L114.690,93.533 C114.690,96.004 112.688,98.006 110.219,98.006 ZM79.532,37.633 L114.690,37.633 L114.690,84.200 L79.532,84.200 L79.532,37.633 ZM84.543,51.003 C84.980,52.158 86.271,52.740 87.425,52.303 C93.548,49.985 95.028,52.851 99.293,53.142 C95.248,59.619 92.232,66.658 90.300,74.139 C89.991,75.335 90.710,76.555 91.906,76.864 C93.107,77.173 94.322,76.449 94.629,75.258 C96.927,66.358 100.857,58.125 106.308,50.786 C106.942,49.934 106.888,48.754 106.181,47.962 C105.475,47.171 104.309,46.986 103.391,47.519 C100.478,49.213 99.175,48.759 97.015,48.008 C94.491,47.130 91.349,46.037 85.843,48.120 C84.688,48.557 84.106,49.848 84.543,51.003 ZM39.794,84.200 L39.794,37.633 L75.061,37.633 L75.061,84.200 L39.794,84.200 ZM68.035,47.962 C67.328,47.171 66.162,46.986 65.244,47.519 C62.331,49.213 61.028,48.759 58.869,48.008 C56.344,47.130 53.202,46.037 47.696,48.120 C46.541,48.557 45.959,49.848 46.396,51.003 C46.833,52.158 48.124,52.740 49.278,52.303 C55.401,49.985 56.882,52.851 61.146,53.142 C57.102,59.619 54.085,66.658 52.153,74.139 C51.845,75.335 52.564,76.555 53.759,76.864 C54.961,77.173 56.175,76.449 56.483,75.258 C58.781,66.358 62.710,58.125 68.162,50.786 C68.795,49.934 68.742,48.754 68.035,47.962 ZM0.165,28.299 C0.165,25.829 2.167,23.827 4.636,23.827 L110.219,23.827 C112.688,23.827 114.690,25.829 114.690,28.299 L114.690,33.160 L0.165,33.160 L0.165,28.299 ZM35.323,84.200 L0.165,84.200 L0.165,37.633 L35.323,37.633 L35.323,84.200 ZM29.329,47.962 C28.623,47.171 27.457,46.986 26.538,47.519 C23.626,49.213 22.323,48.759 20.163,48.008 C17.639,47.130 14.497,46.037 8.990,48.120 C7.836,48.557 7.254,49.848 7.691,51.003 C8.127,52.158 9.419,52.740 10.573,52.303 C16.696,49.985 18.176,52.851 22.441,53.142 C18.396,59.619 15.379,66.658 13.448,74.139 C13.139,75.335 13.858,76.555 15.053,76.864 C16.255,77.173 17.470,76.449 17.777,75.258 C20.075,66.358 24.005,58.125 29.456,50.786 C30.090,49.934 30.036,48.754 29.329,47.962 Z" />
        </symbol>

        <symbol id="igm-arrow" viewBox="0 0 24 31">
            <path
                d="M2.369,18.749 L19.102,30.204 C19.874,30.733 20.653,31.013 21.300,31.013 C22.551,31.013 23.325,30.009 23.325,28.328 L23.325,3.571 C23.325,1.892 22.552,0.890 21.304,0.890 C20.656,0.890 19.890,1.170 19.115,1.701 L2.375,13.156 C1.298,13.894 0.702,14.887 0.702,15.953 C0.702,17.019 1.291,18.011 2.369,18.749 Z" />
        </symbol>

        <symbol id="bonus-coins" viewBox="0 0 84 84">
            <path
                d="M73.5 50.9985C73.5 57.6275 64.883 63 54.25 63C43.617 63 35 57.6275 35 50.9985C35 44.3695 43.617 39.0005 54.25 39.0005C64.883 39.0005 73.5 44.373 73.5 50.9985ZM54.25 69.4995C43.617 69.4995 35 64.127 35 57.5015V64.9985C35 71.6275 43.617 77 54.25 77C64.883 77 73.5 71.6275 73.5 64.9985V57.5015C73.5 64.127 64.883 69.4995 54.25 69.4995ZM29.75 30.9995C40.383 30.9995 49 25.627 49 19.0015C49 12.376 40.383 7 29.75 7C19.117 7 10.5 12.3725 10.5 19.0015C10.5 25.6305 19.117 30.9995 29.75 30.9995ZM29.3125 44.9995C30.9756 41.5197 33.6317 38.6103 36.946 36.638C34.5924 37.224 32.1755 37.5179 29.75 37.513C19.117 37.499 10.5 32.1265 10.5 25.501V32.998C10.5 39.55 18.9 44.8385 29.3125 44.9855V44.9995ZM29.75 77C31.0124 76.999 32.2736 76.9207 33.5265 76.7655C31.3274 74.7857 29.6759 72.2723 28.7315 69.468C18.5745 69.1355 10.5 63.9135 10.5 57.5015V64.9985C10.5 71.6275 19.117 77 29.75 77ZM28 61.446V53.9C18.2 53.34 10.5 48.2545 10.5 42V49.5005C10.5 55.7585 18.2 60.9 28 61.446Z"
                fill="#F5B30C" />
        </symbol>

        <symbol id="icon-hot-action" viewBox="0 0 21 28">
            <path
                d="M19.0152 12.7337C18.6576 12.2835 18.2718 11.858 17.8604 11.4601C16.8548 10.5279 15.7147 9.86111 14.7553 8.88221C13.6711 7.72689 12.9625 6.24988 12.7285 4.65747C12.4945 3.06506 12.7469 1.43677 13.4502 0C12.0765 0.392155 10.8026 1.09171 9.71866 2.04927C7.79752 3.67449 6.41795 5.8832 5.77466 8.36366C5.13138 10.8441 5.25686 13.4711 6.1334 15.8737C6.20594 16.0331 6.24668 16.2059 6.25321 16.382C6.24867 16.5504 6.19648 16.7138 6.10309 16.8519C6.0097 16.9899 5.87923 17.0966 5.72784 17.1586C5.56238 17.231 5.3802 17.2523 5.20332 17.2198C5.02644 17.1873 4.86243 17.1025 4.73111 16.9756C4.64539 16.9022 4.57405 16.8125 4.52097 16.7113C3.70045 15.5879 3.19028 14.2548 3.04499 12.8545C2.8997 11.4542 3.12475 10.0394 3.69609 8.76125C2.45161 9.87557 1.47246 11.2723 0.834916 12.8425C0.197376 14.4128 -0.0813382 16.1142 0.0204873 17.8142C0.085577 18.6042 0.2314 19.3849 0.455511 20.143C0.687748 21.0857 1.04639 21.99 1.52097 22.8297C2.33336 24.1748 3.42046 25.3196 4.70589 26.1834C5.99132 27.0472 7.44389 27.6092 8.96155 27.8298C10.5627 28.1152 12.2044 28.041 13.7755 27.6124C15.3465 27.1838 16.8103 26.4107 18.0676 25.3455C19.4168 24.0853 20.3602 22.4271 20.7705 20.5945C21.1809 18.762 21.0385 16.8433 20.3625 15.0971L20.1661 14.6905C19.8231 14.0127 19.4373 13.359 19.0113 12.7337M14.2712 22.5166C13.7843 22.9343 13.2242 23.2508 12.6214 23.4487C11.8537 23.6775 11.0395 23.6794 10.2708 23.4543C9.50204 23.2293 8.80944 22.7861 8.2712 22.175C9.03404 22.0049 9.7353 21.6162 10.2949 21.0532C10.8546 20.4903 11.25 19.7758 11.4362 18.9913C11.6915 17.7492 11.2113 16.7245 11.0159 15.5281C10.8056 14.4584 10.8942 13.3487 11.2712 12.3292C11.5312 12.9096 11.8477 13.461 12.2159 13.9749C13.3707 15.5281 15.1864 16.2112 15.5763 18.3225C15.6367 18.5396 15.6671 18.7644 15.6666 18.9903C15.6826 19.6457 15.5672 20.2974 15.3277 20.9043C15.0882 21.5112 14.7298 22.0602 14.2751 22.5166H14.2712Z"
                fill="#0D1345" />
        </symbol>

        <symbol id="icon-wallet" viewBox="0 0 32 32">
            <path
                d="m20.09 3.47-.65-1.32a1.726 1.726 0 0 0-2.32-.78L6.09 6.83h1.68l12.32-3.36zm1.66 3.36h4.37l-.54-1.98a1.738 1.738 0 0 0-2.13-1.22l-2.89.79-8.83 2.41h10.02zM16.42 21.3v-3.86c0-.8.32-1.52.84-2.05a2.93 2.93 0 0 1 2.11-.89h10.3V9.77c0-.96-.77-1.73-1.73-1.73H2.3c-.55 0-1.04.25-1.36.65-.14.19-.25.4-.31.63-.04.15-.06.3-.06.45v19.31c0 .96.78 1.73 1.73 1.73h25.63c.96 0 1.73-.78 1.73-1.73v-4.83H19.37a2.962 2.962 0 0 1-2.95-2.95zm14.45-5.14a1.701 1.701 0 0 0-1.17-.45H19.36c-.96 0-1.73.78-1.73 1.73v3.86c0 .96.78 1.73 1.73 1.73H29.7c.2 0 .38-.03.56-.09.23-.08.43-.2.61-.36.35-.32.57-.77.57-1.28v-3.86c0-.51-.22-.96-.57-1.28zm-7.88 3.55c0 .48-.39.87-.87.87h-.58a.87.87 0 0 1-.87-.87v-.58c0-.28.13-.52.33-.68a.9.9 0 0 1 .53-.19h.58c.48 0 .87.39.87.87v.58z" />
        </symbol>

        <symbol id="icon-level-up" viewBox="0 0 31 28">
            <path
                d="M30.2828 11.1379L28.9738 1.62199C28.9455 1.41647 28.875 1.21901 28.7669 1.04195C28.6587 0.864897 28.5152 0.712053 28.3453 0.592978C28.1754 0.473903 27.9828 0.391158 27.7794 0.349912C27.5761 0.308667 27.3665 0.30981 27.1636 0.35327L17.7716 2.36936C17.4857 2.43184 17.2242 2.57609 17.0188 2.78455C16.8134 2.993 16.6731 3.25667 16.6149 3.54345C16.5567 3.83022 16.5831 4.12774 16.691 4.39977C16.7988 4.6718 16.9834 4.90661 17.2223 5.07561L20.5148 7.38316L10.7045 21.3808L6.38417 18.3529C6.30306 18.2961 6.21155 18.2558 6.11487 18.2344C6.01819 18.213 5.91823 18.2109 5.82072 18.2281L0.919249 19.0902C0.77275 19.1164 0.637275 19.1853 0.529887 19.2884C0.422498 19.3914 0.347996 19.5239 0.315757 19.6692C0.283517 19.8145 0.294984 19.9661 0.348712 20.1049C0.402438 20.2437 0.496027 20.3635 0.617693 20.4492L10.7031 27.5176C11.0307 27.7472 11.4361 27.8372 11.8301 27.7679C12.2242 27.6986 12.5745 27.4757 12.8041 27.148L24.6334 10.2697L27.9253 12.5769C28.1656 12.744 28.4494 12.8377 28.742 12.8464C29.0346 12.8552 29.3234 12.7786 29.5733 12.6261C29.8231 12.4736 30.0233 12.2517 30.1492 11.9874C30.2752 11.7232 30.3216 11.428 30.2828 11.1379Z" />
        </symbol>

        <symbol id="icon-medal" viewBox="0 0 14 22">
            <path
                d="M12.0182 14.5706L8.6362 14.1486L7.3732 11.2026C7.33281 11.1267 7.27252 11.0632 7.1988 11.0189C7.12508 10.9746 7.0407 10.9512 6.95469 10.9512C6.86869 10.9512 6.7843 10.9746 6.71058 11.0189C6.63686 11.0632 6.57657 11.1267 6.53619 11.2026L5.27319 14.1486L1.89119 14.5706C1.80653 14.5811 1.72655 14.6152 1.66034 14.669C1.59412 14.7228 1.54435 14.7941 1.51672 14.8748C1.48909 14.9555 1.4847 15.0423 1.50405 15.1254C1.52341 15.2085 1.56573 15.2844 1.62619 15.3446L4.17819 17.8966L3.37818 21.2966C3.35712 21.3834 3.36206 21.4744 3.39239 21.5584C3.42272 21.6424 3.4771 21.7156 3.54875 21.769C3.62039 21.8223 3.70615 21.8533 3.79531 21.8582C3.88448 21.8632 3.97311 21.8417 4.05018 21.7966L6.95019 20.1076L9.90919 21.7986C9.97803 21.8379 10.0559 21.8586 10.1352 21.8586C10.2044 21.8585 10.2727 21.8427 10.3348 21.8123C10.397 21.7819 10.4515 21.7378 10.494 21.6833C10.5366 21.6287 10.5663 21.5652 10.5807 21.4975C10.5951 21.4298 10.5939 21.3598 10.5772 21.2926L9.72918 17.9006L12.2782 15.3516C12.3384 15.2912 12.3805 15.2152 12.3998 15.1322C12.419 15.0491 12.4147 14.9623 12.3872 14.8816C12.3602 14.8009 12.3115 14.7291 12.2464 14.6742C12.1813 14.6194 12.1023 14.5835 12.0182 14.5706Z" />
            <path
                d="M6.04564 10.926C6.08822 10.9262 6.13063 10.9205 6.17164 10.909C6.23312 10.891 6.2901 10.8602 6.33887 10.8187C6.38763 10.7772 6.42708 10.7258 6.45463 10.668L3.35464 3.368C3.3073 3.25687 3.30604 3.13149 3.35114 3.01944C3.39624 2.90739 3.48401 2.81784 3.59514 2.7705C3.70626 2.72316 3.83164 2.7219 3.94369 2.767C4.05575 2.81211 4.14529 2.89987 4.19263 3.011L7.26263 10.234L7.45663 10.661C7.48396 10.7209 7.52397 10.7742 7.57389 10.8171C7.62381 10.8601 7.68246 10.8917 7.74578 10.9097C7.8091 10.9278 7.87559 10.9319 7.94066 10.9218C8.00572 10.9116 8.06781 10.8875 8.12263 10.851L10.4056 9.33L6.25164 0H3.30664C3.29764 0 3.29064 0.007 3.28164 0.008C3.21097 0.0131058 3.14247 0.0346812 3.08163 0.071C3.05968 0.0885465 3.03896 0.107592 3.01964 0.128C2.98743 0.151338 2.95822 0.178542 2.93264 0.209C2.92564 0.221 2.92764 0.235 2.91964 0.248C2.91164 0.261 2.90164 0.264 2.89564 0.276L0.159637 6.65C0.117827 6.74786 0.111639 6.85728 0.14215 6.95922C0.172661 7.06117 0.237941 7.1492 0.326636 7.208L5.78963 10.85C5.86587 10.8994 5.95477 10.9258 6.04564 10.926Z" />
            <path
                d="M13.7451 6.649L11.0141 0.276C10.9787 0.193985 10.92 0.124135 10.8454 0.0750826C10.7708 0.0260306 10.6834 -7.24627e-05 10.5941 1.51087e-07H7.24805L11.1671 8.815L13.579 7.207C13.6673 7.14779 13.7321 7.05969 13.7624 6.95785C13.7927 6.85602 13.7866 6.7468 13.7451 6.649Z" />
        </symbol>

        <symbol id="icon-next-level-right" viewBox="0 0 119 128">
            <path
                d="M29.5748 120.369L1.73452 103.274L29.5748 86.6984V120.369ZM43.8208 127.898V79.8288L0.455078 53.5592L30.639 35.7542L72.9396 61.6093V109.912L43.8208 127.898ZM85.8401 121.986V55.0952L27.033 19.3438L59.7137 0L118.751 34.2175V102.201L85.8401 121.986Z" />
        </symbol>

        <symbol id="icon-next-level-down" viewBox="0 0 140 137">
            <path
                d="M42.3301 23.8677L65.8101 11.1466L66.1655 37.6291L42.3301 23.8677ZM31.1784 30.8754L65.2061 50.5214L101.526 30.5595L101.794 59.2034L66.2027 78.5806L32.0096 58.8392L31.1784 30.8754ZM18.1899 63.0366L65.5415 90.3751L114.884 63.3577L115.221 94.3979L66.8699 122.205L18.7446 94.4201L18.1899 63.0366Z" />
        </symbol>

        <symbol id="icon-success-circle" viewBox="385 225 92 92">
            <path
                d="M430.591 227C406.411 227 386.809 246.602 386.809 270.782C386.809 294.963 406.411 314.565 430.591 314.565C454.771 314.565 474.374 294.963 474.374 270.782C474.374 246.602 454.771 227 430.591 227ZM430.591 305.809C411.278 305.809 395.565 290.096 395.565 270.782C395.565 251.469 411.278 235.757 430.591 235.757C449.904 235.757 465.617 251.469 465.617 270.782C465.617 290.096 449.904 305.809 430.591 305.809ZM447.078 255.14L453.27 261.331L426.213 288.501L409.983 272.271L416.174 266.08L426.213 276.119L447.078 255.14Z"
                fill="#00B615" />
        </symbol>
        <symbol id="icon-toast-arrow-right" viewBox="0 0 24 24">
            <path
                d="M12.0001 2C17.5101 2 22.0001 6.49 22.0001 12C22.0001 17.52 17.5101 22 12.0001 22L11.7208 21.9961C6.32998 21.8478 2.00009 17.4264 2.00009 12C2.00009 6.49 6.48009 2 12.0001 2ZM10.5597 7.78027C10.3598 7.78037 10.1695 7.85011 10.0196 8C9.72987 8.29999 9.73052 8.76964 10.0304 9.05957L12.9806 12L10.0304 14.9404C9.73052 15.2304 9.72988 15.71 10.0196 16C10.3196 16.3 10.7902 16.3 11.0802 16L14.5704 12.5303C14.7104 12.3903 14.7901 12.2 14.7901 12C14.7901 11.8 14.7104 11.6097 14.5704 11.4697L11.0802 8C10.9402 7.85 10.7497 7.78027 10.5597 7.78027Z" />
        </symbol>
        <symbol id="icon-success" width="62" height="64" viewBox="0 0 62 64" fill="none">
            <path fill-rule="evenodd" clip-rule="evenodd"
                d="M31.0917 63.0601C36.6341 63.0606 42.0731 61.5346 46.8309 58.6444C51.5886 55.7542 55.4874 51.6076 58.1131 46.6453C60.7387 41.6829 61.9931 36.0901 61.7429 30.4611C61.4927 24.8321 59.7474 19.3771 56.6923 14.6756L32.3018 42.2278C31.1626 43.5151 29.5906 44.3221 27.8954 44.4902C26.2003 44.6582 24.5046 44.1751 23.1422 43.1359L12.002 34.6415C11.2787 34.09 10.8006 33.269 10.6727 32.359C10.5449 31.4491 10.7778 30.5248 11.3202 29.7895C11.8627 29.0542 12.6702 28.568 13.5652 28.4381C14.4602 28.3081 15.3694 28.5449 16.0926 29.0964L27.2328 37.5908L52.2744 9.30729C48.6467 5.78654 44.2253 3.22363 39.3974 1.84298C34.5695 0.46232 29.4823 0.306019 24.5812 1.38776C19.6801 2.4695 15.1145 4.75629 11.2843 8.04791C7.45412 11.3395 4.47604 15.5356 2.61082 20.2687C0.745612 25.0018 0.0501559 30.1277 0.585348 35.1974C1.12054 40.2671 2.87006 45.1262 5.68073 49.3491C8.49139 53.572 12.2775 57.03 16.7075 59.4203C21.1375 61.8106 26.0764 63.0604 31.0917 63.0601Z"
                fill="#0B7E28" />
        </symbol>
    </svg>