<?xml version="1.0" encoding="utf-8"?>
<!-- Generator: Adobe Illustrator 27.0.1, SVG Export Plug-In . SVG Version: 6.00 Build 0)  -->
<svg version="1.1" id="Layer_1" xmlns="http://www.w3.org/2000/svg" xmlns:xlink="http://www.w3.org/1999/xlink" x="0px" y="0px"
	 viewBox="0 0 219.71 85" style="enable-background:new 0 0 219.71 85;" xml:space="preserve">
<style type="text/css">
	.st0{fill:url(#SVGID_1_);}
	.st1{fill:url(#SVGID_00000036244344407333053900000017548878602676094892_);}
	.st2{fill:url(#SVGID_00000121271904667217772090000002456370058494000037_);}
	.st3{fill:url(#SVGID_00000105421162950692993330000014773819455572349838_);}
	.st4{fill:url(#SVGID_00000044135993414362527540000014651416699276502935_);}
	.st5{fill:url(#SVGID_00000036221937317685400140000007544713264360023972_);}
	.st6{fill:url(#SVGID_00000072262667525528530920000015062378503930702221_);}
	.st7{fill:url(#SVGID_00000124845998786371419360000002567997342917967007_);}
	.st8{fill:url(#SVGID_00000115516246065400204570000002339724665843851650_);}
	.st9{fill:url(#SVGID_00000163756926066336991970000000728347951325416076_);}
	.st10{fill:url(#SVGID_00000026885809524445112060000013841703476894060448_);}
	.st11{fill:url(#SVGID_00000038411575385913341470000006782908161757166479_);}
	.st12{fill:url(#SVGID_00000086684216707616379890000010852587272768703365_);}
	.st13{fill:url(#SVGID_00000094597165862873805200000004928865987911128720_);}
	.st14{fill:url(#SVGID_00000018930778433293400470000004970404406374351772_);}
	.st15{fill:url(#SVGID_00000040556216264494947180000015035046760548659586_);}
	.st16{fill:url(#SVGID_00000019641781519004700700000015258832300560051094_);}
	.st17{fill:url(#SVGID_00000057150218402282908300000001828556399355660418_);}
	.st18{opacity:0.5;}
	.st19{fill:#FF8F15;}
	.st20{fill:#FFEC00;}
	.st21{fill:#FF8F15;stroke:#FF8F15;stroke-miterlimit:10;}
	.st22{opacity:0.2;}
	.st23{fill-rule:evenodd;clip-rule:evenodd;fill:#FF8F15;stroke:#FF8F15;stroke-miterlimit:10;}
	.st24{fill-rule:evenodd;clip-rule:evenodd;fill:#FFEC00;}
	.st25{fill:#FF8F14;}
</style>
<g>
	<g>
		<g>
			<linearGradient id="SVGID_1_" gradientUnits="userSpaceOnUse" x1="129.9422" y1="56.0939" x2="129.9422" y2="31.2227">
				<stop  offset="0" style="stop-color:#FFFFFF"/>
				<stop  offset="0.2846" style="stop-color:#EAEAEA"/>
				<stop  offset="0.4547" style="stop-color:#ADADAD"/>
				<stop  offset="0.6074" style="stop-color:#FFFFFF"/>
				<stop  offset="1" style="stop-color:#FFFFFF"/>
			</linearGradient>
			<path class="st0" d="M128.34,46.33l-3.63-5.42h11.2c2.17,0,3.25-0.64,3.25-1.91v-0.27c0-0.95-0.28-1.53-0.84-1.76
				c-0.56-0.22-1.42-0.33-2.58-0.33h-12.9l-3.67-5.42h19.99c4.24,0,6.67,2.62,6.67,5.42v4.44c0,1.57-1.33,2.56-2.16,2.71
				c0.95,0.13,2.16,1.02,2.16,3.37v3.51c0,3.04-2.76,5.42-6.67,5.42h-25.11V39.36h6.72v11.31h14.97c1.16,0,2.03-0.13,2.58-0.38
				c0.56-0.25,0.84-0.91,0.84-1.97c0-0.74-0.26-1.26-0.77-1.55c-0.52-0.3-1.4-0.44-2.65-0.44H128.34z"/>
			
				<linearGradient id="SVGID_00000020374438743427160120000017373721796031197861_" gradientUnits="userSpaceOnUse" x1="128.3428" y1="56.0939" x2="128.3428" y2="31.2227">
				<stop  offset="0" style="stop-color:#FFFFFF"/>
				<stop  offset="0.2846" style="stop-color:#EAEAEA"/>
				<stop  offset="0.4547" style="stop-color:#ADADAD"/>
				<stop  offset="0.6074" style="stop-color:#FFFFFF"/>
				<stop  offset="1" style="stop-color:#FFFFFF"/>
			</linearGradient>
			<path style="fill:url(#SVGID_00000020374438743427160120000017373721796031197861_);" d="M126.74,46.33l-3.63-5.42h11.2
				c2.17,0,3.25-0.64,3.25-1.91v-0.27c0-0.95-0.28-1.53-0.84-1.76c-0.56-0.22-1.42-0.33-2.58-0.33h-12.9l-3.67-5.42h19.99
				c4.24,0,6.67,2.62,6.67,5.42v4.44c0,1.57-1.33,2.56-2.16,2.71c0.95,0.13,2.16,1.02,2.16,3.37v3.51c0,3.04-2.76,5.42-6.67,5.42
				h-25.11V39.36h6.72v11.31h14.97c1.17,0,2.03-0.13,2.58-0.38c0.56-0.25,0.84-0.91,0.84-1.97c0-0.74-0.26-1.26-0.77-1.55
				c-0.52-0.3-1.4-0.44-2.65-0.44H126.74z"/>
			
				<linearGradient id="SVGID_00000171703151558665607610000009123258144924482207_" gradientUnits="userSpaceOnUse" x1="129.1425" y1="56.0939" x2="129.1425" y2="31.2227">
				<stop  offset="0" style="stop-color:#A6A6A6"/>
				<stop  offset="0.7091" style="stop-color:#FFFFFF"/>
				<stop  offset="1" style="stop-color:#EAEAEA"/>
			</linearGradient>
			<path style="fill:url(#SVGID_00000171703151558665607610000009123258144924482207_);" d="M127.54,46.33l-3.63-5.42h11.2
				c2.17,0,3.25-0.64,3.25-1.91v-0.27c0-0.95-0.28-1.53-0.84-1.76c-0.56-0.22-1.42-0.33-2.58-0.33h-12.9l-3.67-5.42h19.99
				c4.24,0,6.67,2.62,6.67,5.42v4.44c0,1.57-1.33,2.56-2.16,2.71c0.95,0.13,2.16,1.02,2.16,3.37v3.51c0,3.04-2.76,5.42-6.67,5.42
				h-25.11V39.36h6.72v11.31h14.97c1.16,0,2.03-0.13,2.58-0.38c0.56-0.25,0.84-0.91,0.84-1.97c0-0.74-0.26-1.26-0.77-1.55
				c-0.52-0.3-1.4-0.44-2.65-0.44H127.54z"/>
		</g>
		<g>
			
				<linearGradient id="SVGID_00000084531990202241881100000003178819581098869120_" gradientUnits="userSpaceOnUse" x1="163.4511" y1="56.0939" x2="163.4511" y2="31.2227">
				<stop  offset="0" style="stop-color:#FFFFFF"/>
				<stop  offset="0.2846" style="stop-color:#EAEAEA"/>
				<stop  offset="0.4547" style="stop-color:#ADADAD"/>
				<stop  offset="0.6074" style="stop-color:#FFFFFF"/>
				<stop  offset="1" style="stop-color:#FFFFFF"/>
			</linearGradient>
			<polygon style="fill:url(#SVGID_00000084531990202241881100000003178819581098869120_);" points="155.49,50.67 155.49,46.46 
				168.68,46.46 172.31,41.04 157.78,41.04 155.49,44.46 155.49,38.16 153.23,36.63 155.49,36.64 155.49,36.64 174.36,36.64 
				178.05,31.22 148.81,31.22 148.81,56.09 174.46,56.09 178.09,50.67 			"/>
			
				<linearGradient id="SVGID_00000119804529768369289210000015324134400557275288_" gradientUnits="userSpaceOnUse" x1="161.8515" y1="56.0939" x2="161.8515" y2="31.2227">
				<stop  offset="0" style="stop-color:#FFFFFF"/>
				<stop  offset="0.2846" style="stop-color:#EAEAEA"/>
				<stop  offset="0.4547" style="stop-color:#ADADAD"/>
				<stop  offset="0.6074" style="stop-color:#FFFFFF"/>
				<stop  offset="1" style="stop-color:#FFFFFF"/>
			</linearGradient>
			<polygon style="fill:url(#SVGID_00000119804529768369289210000015324134400557275288_);" points="153.89,50.67 153.89,46.46 
				167.08,46.46 170.71,41.04 156.18,41.04 153.89,44.46 153.89,38.16 151.63,36.63 153.89,36.64 153.89,36.64 172.76,36.64 
				176.45,31.22 147.21,31.22 147.21,56.09 172.86,56.09 176.49,50.67 			"/>
			
				<linearGradient id="SVGID_00000096764505763855346100000003228555885365614243_" gradientUnits="userSpaceOnUse" x1="162.6514" y1="56.0939" x2="162.6514" y2="31.2227">
				<stop  offset="0" style="stop-color:#A6A6A6"/>
				<stop  offset="0.7091" style="stop-color:#FFFFFF"/>
				<stop  offset="1" style="stop-color:#EAEAEA"/>
			</linearGradient>
			<polygon style="fill:url(#SVGID_00000096764505763855346100000003228555885365614243_);" points="154.69,50.67 154.69,46.46 
				167.88,46.46 171.51,41.04 156.98,41.04 154.69,44.46 154.69,38.16 152.43,36.63 154.69,36.64 154.69,36.64 173.56,36.64 
				177.25,31.22 148.01,31.22 148.01,56.09 173.66,56.09 177.29,50.67 			"/>
		</g>
		<g>
			
				<linearGradient id="SVGID_00000126325929622563677570000004731948773324618375_" gradientUnits="userSpaceOnUse" x1="26.8617" y1="56.0939" x2="26.8617" y2="31.2227">
				<stop  offset="0" style="stop-color:#FFFFFF"/>
				<stop  offset="0.2846" style="stop-color:#EAEAEA"/>
				<stop  offset="0.4547" style="stop-color:#ADADAD"/>
				<stop  offset="0.6074" style="stop-color:#FFFFFF"/>
				<stop  offset="1" style="stop-color:#FFFFFF"/>
			</linearGradient>
			<polygon style="fill:url(#SVGID_00000126325929622563677570000004731948773324618375_);" points="41.44,31.22 12.29,31.22 
				12.29,56.09 18.96,56.09 18.96,46.46 32.06,46.46 35.69,41.04 21.25,41.04 18.96,44.46 18.96,38.15 16.71,36.63 18.96,36.64 
				18.96,36.64 37.75,36.64 			"/>
			
				<linearGradient id="SVGID_00000137835254379070881110000010611559572593774516_" gradientUnits="userSpaceOnUse" x1="25.2621" y1="56.0939" x2="25.2621" y2="31.2227">
				<stop  offset="0" style="stop-color:#FFFFFF"/>
				<stop  offset="0.2846" style="stop-color:#EAEAEA"/>
				<stop  offset="0.4547" style="stop-color:#ADADAD"/>
				<stop  offset="0.6074" style="stop-color:#FFFFFF"/>
				<stop  offset="1" style="stop-color:#FFFFFF"/>
			</linearGradient>
			<polygon style="fill:url(#SVGID_00000137835254379070881110000010611559572593774516_);" points="39.84,31.22 10.69,31.22 
				10.69,56.09 17.36,56.09 17.36,46.46 30.46,46.46 34.09,41.04 19.65,41.04 17.36,44.46 17.36,38.15 15.11,36.63 17.36,36.64 
				17.36,36.64 36.15,36.64 			"/>
			
				<linearGradient id="SVGID_00000051363770110401493050000010823743022872816768_" gradientUnits="userSpaceOnUse" x1="26.0618" y1="56.0939" x2="26.0618" y2="31.2227">
				<stop  offset="0" style="stop-color:#A6A6A6"/>
				<stop  offset="0.7091" style="stop-color:#FFFFFF"/>
				<stop  offset="1" style="stop-color:#EAEAEA"/>
			</linearGradient>
			<polygon style="fill:url(#SVGID_00000051363770110401493050000010823743022872816768_);" points="40.64,31.22 11.49,31.22 
				11.49,56.09 18.16,56.09 18.16,46.46 31.26,46.46 34.89,41.04 20.45,41.04 18.16,44.46 18.16,38.15 15.91,36.63 18.16,36.64 
				18.16,36.64 36.95,36.64 			"/>
		</g>
		<g>
			
				<linearGradient id="SVGID_00000019640909637041489190000005579639547162114742_" gradientUnits="userSpaceOnUse" x1="193.9783" y1="56.0887" x2="193.9783" y2="31.2171">
				<stop  offset="0" style="stop-color:#FFFFFF"/>
				<stop  offset="0.2846" style="stop-color:#EAEAEA"/>
				<stop  offset="0.4547" style="stop-color:#ADADAD"/>
				<stop  offset="0.6074" style="stop-color:#FFFFFF"/>
				<stop  offset="1" style="stop-color:#FFFFFF"/>
			</linearGradient>
			<path style="fill:url(#SVGID_00000019640909637041489190000005579639547162114742_);" d="M206.2,36.63h-18.02
				c-1.17,0-2.03,0.16-2.59,0.47c-0.56,0.31-0.83,0.91-0.83,1.8c0,0.71,0.27,1.22,0.82,1.53c0.54,0.31,1.35,0.46,2.44,0.46h15.18
				c3.87,0,6.67,2.23,6.67,5.33v4.44c0,3.11-2.77,5.42-6.67,5.42h-25.11l3.64-5.42h18.05c1.17,0,2.03-0.16,2.58-0.47
				c0.56-0.31,0.83-0.91,0.83-1.8c0-1.39-1.08-2.09-3.25-2.09h-15.18c-3.95,0-6.67-2.2-6.67-5.24v-4.44c0-2.98,2.6-5.41,6.67-5.41
				h25.1L206.2,36.63z"/>
			
				<linearGradient id="SVGID_00000063628792382990825190000017562060112292688028_" gradientUnits="userSpaceOnUse" x1="192.3787" y1="56.0887" x2="192.3787" y2="31.2171">
				<stop  offset="0" style="stop-color:#FFFFFF"/>
				<stop  offset="0.2846" style="stop-color:#EAEAEA"/>
				<stop  offset="0.4547" style="stop-color:#ADADAD"/>
				<stop  offset="0.6074" style="stop-color:#FFFFFF"/>
				<stop  offset="1" style="stop-color:#FFFFFF"/>
			</linearGradient>
			<path style="fill:url(#SVGID_00000063628792382990825190000017562060112292688028_);" d="M204.6,36.63h-18.02
				c-1.16,0-2.03,0.16-2.59,0.47c-0.56,0.31-0.83,0.91-0.83,1.8c0,0.71,0.27,1.22,0.82,1.53c0.54,0.31,1.35,0.46,2.44,0.46h15.18
				c3.87,0,6.67,2.23,6.67,5.33v4.44c0,3.11-2.77,5.42-6.67,5.42h-25.11l3.64-5.42h18.05c1.16,0,2.03-0.16,2.58-0.47
				c0.56-0.31,0.83-0.91,0.83-1.8c0-1.39-1.08-2.09-3.25-2.09h-15.18c-3.95,0-6.67-2.2-6.67-5.24v-4.44c0-2.98,2.6-5.41,6.67-5.41
				h25.11L204.6,36.63z"/>
			
				<linearGradient id="SVGID_00000009556656132442986260000006345577957649057683_" gradientUnits="userSpaceOnUse" x1="193.1784" y1="56.0887" x2="193.1784" y2="31.2171">
				<stop  offset="0" style="stop-color:#A6A6A6"/>
				<stop  offset="0.7091" style="stop-color:#FFFFFF"/>
				<stop  offset="1" style="stop-color:#EAEAEA"/>
			</linearGradient>
			<path style="fill:url(#SVGID_00000009556656132442986260000006345577957649057683_);" d="M205.4,36.63h-18.02
				c-1.16,0-2.03,0.16-2.59,0.47c-0.56,0.31-0.83,0.91-0.83,1.8c0,0.71,0.27,1.22,0.82,1.53c0.54,0.31,1.35,0.46,2.44,0.46h15.18
				c3.87,0,6.67,2.23,6.67,5.33v4.44c0,3.11-2.77,5.42-6.67,5.42h-25.11l3.64-5.42h18.05c1.16,0,2.03-0.16,2.58-0.47
				c0.56-0.31,0.83-0.91,0.83-1.8c0-1.39-1.09-2.09-3.25-2.09h-15.18c-3.95,0-6.67-2.2-6.67-5.24v-4.44c0-2.98,2.6-5.41,6.67-5.41
				h25.1L205.4,36.63z"/>
		</g>
		<g>
			
				<linearGradient id="SVGID_00000047035218959718524320000013318537150499730062_" gradientUnits="userSpaceOnUse" x1="58.1231" y1="56.0941" x2="58.1231" y2="31.2225">
				<stop  offset="0" style="stop-color:#FFFFFF"/>
				<stop  offset="0.2846" style="stop-color:#EAEAEA"/>
				<stop  offset="0.4547" style="stop-color:#ADADAD"/>
				<stop  offset="0.6074" style="stop-color:#FFFFFF"/>
				<stop  offset="1" style="stop-color:#FFFFFF"/>
			</linearGradient>
			<path style="fill:url(#SVGID_00000047035218959718524320000013318537150499730062_);" d="M67.34,31.22H48.91
				c-3.98,0-6.67,2.28-6.67,5.41v14.13c0,3.08,2.87,5.33,6.67,5.33h18.43c4.1,0,6.67-1.99,6.67-5.33V36.64
				C74.01,33.67,71.44,31.22,67.34,31.22z M67.34,47.7c0,1.99-1.08,2.98-3.25,2.98H52.16c-2.17,0-3.25-0.99-3.25-2.98v-9.1
				l-2.9-1.96l3.29,0.01c0.09,0,0.17-0.01,0.28-0.01h14.34c2.28,0,3.42,1.07,3.42,3.2V47.7z"/>
			
				<linearGradient id="SVGID_00000046303241101899056020000017446067736475504818_" gradientUnits="userSpaceOnUse" x1="56.5237" y1="56.0941" x2="56.5237" y2="31.2225">
				<stop  offset="0" style="stop-color:#FFFFFF"/>
				<stop  offset="0.2846" style="stop-color:#EAEAEA"/>
				<stop  offset="0.4547" style="stop-color:#ADADAD"/>
				<stop  offset="0.6074" style="stop-color:#FFFFFF"/>
				<stop  offset="1" style="stop-color:#FFFFFF"/>
			</linearGradient>
			<path style="fill:url(#SVGID_00000046303241101899056020000017446067736475504818_);" d="M65.74,31.22H47.31
				c-3.98,0-6.67,2.28-6.67,5.41v14.13c0,3.08,2.87,5.33,6.67,5.33h18.43c4.1,0,6.67-1.99,6.67-5.33V36.64
				C72.41,33.67,69.84,31.22,65.74,31.22z M65.74,47.7c0,1.99-1.08,2.98-3.25,2.98H50.56c-2.17,0-3.25-0.99-3.25-2.98v-9.1
				l-2.9-1.96l3.29,0.01c0.09,0,0.17-0.01,0.28-0.01h14.34c2.28,0,3.42,1.07,3.42,3.2V47.7z"/>
			
				<linearGradient id="SVGID_00000002365455078445681000000011216163473849254578_" gradientUnits="userSpaceOnUse" x1="57.3235" y1="56.0941" x2="57.3235" y2="31.2225">
				<stop  offset="0" style="stop-color:#A6A6A6"/>
				<stop  offset="0.7091" style="stop-color:#FFFFFF"/>
				<stop  offset="1" style="stop-color:#EAEAEA"/>
			</linearGradient>
			<path style="fill:url(#SVGID_00000002365455078445681000000011216163473849254578_);" d="M66.54,31.22H48.11
				c-3.97,0-6.67,2.28-6.67,5.41v14.13c0,3.08,2.87,5.33,6.67,5.33h18.43c4.1,0,6.67-1.99,6.67-5.33V36.64
				C73.21,33.67,70.64,31.22,66.54,31.22z M66.54,47.7c0,1.99-1.08,2.98-3.25,2.98H51.36c-2.17,0-3.25-0.99-3.25-2.98v-9.1
				l-2.9-1.96l3.29,0.01c0.09,0,0.17-0.01,0.28-0.01h14.34c2.28,0,3.42,1.07,3.42,3.2V47.7z"/>
		</g>
		<g>
			
				<linearGradient id="SVGID_00000158730778514656896950000016809574500164695694_" gradientUnits="userSpaceOnUse" x1="94.0318" y1="56.0887" x2="94.0318" y2="31.2171">
				<stop  offset="0" style="stop-color:#FFFFFF"/>
				<stop  offset="0.2846" style="stop-color:#EAEAEA"/>
				<stop  offset="0.4547" style="stop-color:#ADADAD"/>
				<stop  offset="0.6074" style="stop-color:#FFFFFF"/>
				<stop  offset="1" style="stop-color:#FFFFFF"/>
			</linearGradient>
			<path style="fill:url(#SVGID_00000158730778514656896950000016809574500164695694_);" d="M109.4,43v-6.37
				c-0.5-2.99-2.72-4.8-6.67-5.41H77.63v24.87h6.72V38.12l-2.21-1.49l2.21,0.01v0h14.97c2.28,0,3.42,1.07,3.42,3.2v0.1
				c0,1.99-1.08,2.98-3.25,2.98h-7.51l-3.63,5.42h10.05l3.6,7.76h8.44l-4.62-8.52C107.84,46.68,109.04,45.16,109.4,43z"/>
			
				<linearGradient id="SVGID_00000166655115154873232620000006297693877967295122_" gradientUnits="userSpaceOnUse" x1="92.4324" y1="56.0887" x2="92.4324" y2="31.2171">
				<stop  offset="0" style="stop-color:#FFFFFF"/>
				<stop  offset="0.2846" style="stop-color:#EAEAEA"/>
				<stop  offset="0.4547" style="stop-color:#ADADAD"/>
				<stop  offset="0.6074" style="stop-color:#FFFFFF"/>
				<stop  offset="1" style="stop-color:#FFFFFF"/>
			</linearGradient>
			<path style="fill:url(#SVGID_00000166655115154873232620000006297693877967295122_);" d="M107.8,43v-6.37
				c-0.5-2.99-2.72-4.8-6.67-5.41h-25.1v24.87h6.71V38.12l-2.21-1.49l2.21,0.01v0h14.97c2.28,0,3.42,1.07,3.42,3.2v0.1
				c0,1.99-1.08,2.98-3.25,2.98h-7.51l-3.63,5.42h10.05l3.6,7.76h8.44l-4.62-8.52C106.24,46.68,107.44,45.16,107.8,43z"/>
			
				<linearGradient id="SVGID_00000048494837474007212130000014697560284059984794_" gradientUnits="userSpaceOnUse" x1="93.2323" y1="56.0887" x2="93.2323" y2="31.2171">
				<stop  offset="0" style="stop-color:#A6A6A6"/>
				<stop  offset="0.7091" style="stop-color:#FFFFFF"/>
				<stop  offset="1" style="stop-color:#EAEAEA"/>
			</linearGradient>
			<path style="fill:url(#SVGID_00000048494837474007212130000014697560284059984794_);" d="M108.6,43v-6.37
				c-0.5-2.99-2.72-4.8-6.67-5.41h-25.1v24.87h6.71V38.12l-2.21-1.49l2.21,0.01v0h14.97c2.28,0,3.42,1.07,3.42,3.2v0.1
				c0,1.99-1.08,2.98-3.25,2.98h-7.51l-3.63,5.42h10.05l3.6,7.76h8.44l-4.62-8.52C107.04,46.68,108.24,45.16,108.6,43z"/>
		</g>
	</g>
	<g id="_x39__1_">
		<g>
			<path class="st18" d="M128.69,26.34h-25.11v-1.51h25.11V26.34z M129.53,23.16h-26.79c-0.46,0-0.84,0.38-0.84,0.84v3.18
				c0,0.46,0.38,0.84,0.84,0.84h26.79c0.46,0,0.84-0.38,0.84-0.84V24C130.37,23.54,130,23.16,129.53,23.16z M134.24,12.52
				c0-0.65-0.53-1.17-1.17-1.17s-1.17,0.53-1.17,1.17c0,0.02,0,0.03,0,0.05l-4.15,2.86l-1.28-7.29c0-0.01-0.01-0.03-0.01-0.04
				c0.36-0.2,0.6-0.58,0.6-1.02c0-0.65-0.53-1.17-1.17-1.17s-1.17,0.53-1.17,1.17c0,0.27,0.1,0.52,0.25,0.72l-4.5,5.63l-3.75-8.64
				c0.16-0.2,0.26-0.45,0.26-0.72c0-0.65-0.53-1.17-1.17-1.17c-0.65,0-1.17,0.53-1.17,1.17c0,0.34,0.15,0.65,0.39,0.87l-3.58,8.25
				l-4.34-5.42c0,0,0,0,0,0c0.14-0.19,0.22-0.43,0.22-0.68c0-0.65-0.53-1.17-1.17-1.17s-1.17,0.53-1.17,1.17
				c0,0.46,0.27,0.85,0.65,1.05c0,0,0,0.01,0,0.01l-1.24,7.01l-3.83-2.63c0,0,0,0,0,0c0.02-0.08,0.03-0.16,0.03-0.24
				c0-0.65-0.53-1.17-1.17-1.17c-0.65,0-1.17,0.53-1.17,1.17c0,0.6,0.46,1.1,1.04,1.16c0,0.01,0.01,0.02,0.01,0.04l2.67,8.11
				c0.11,0.34,0.43,0.58,0.8,0.58h26.79c0.35,0,0.67-0.22,0.79-0.55l2.85-7.92C133.77,13.63,134.24,13.13,134.24,12.52z
				 M128.94,20.48h-25.6l-1.7-5.17l2.85,1.96c0.24,0.16,0.54,0.19,0.8,0.08c0.26-0.11,0.45-0.35,0.5-0.63l1.14-6.47l4.05,5.06
				c0.18,0.23,0.48,0.35,0.77,0.31c0.29-0.04,0.54-0.23,0.66-0.5l3.47-8.01l3.58,8.26c0.12,0.27,0.37,0.46,0.66,0.5
				c0.29,0.04,0.58-0.08,0.77-0.31l4.24-5.31l1.19,6.75c0.05,0.28,0.24,0.52,0.5,0.63c0.26,0.11,0.56,0.08,0.8-0.08l3.15-2.17
				L128.94,20.48z"/>
		</g>
		<g>
			<path class="st19" d="M134.24,12.52c0-0.65-0.53-1.17-1.17-1.17c-0.65,0-1.17,0.53-1.17,1.17c0,0.02,0.02,0.02,0.02,0.04
				l-4.16,2.86l-1.28-7.29c-0.01-0.04-0.04-0.07-0.05-0.11c0.36-0.2,0.64-0.51,0.64-0.95c0-0.65-0.53-1.17-1.17-1.17
				s-1.17,0.53-1.17,1.17c0,0.27,0.13,0.48,0.28,0.68c0,0,0,0,0,0l-4.53,5.67l-3.77-8.69c0.15-0.2,0.28-0.41,0.28-0.67
				c0-0.65-0.53-1.17-1.17-1.17c-0.65,0-1.17,0.53-1.17,1.17c0,0.34,0.16,0.64,0.39,0.85l-3.58,8.26l-4.34-5.42
				c-0.01-0.02-0.04-0.02-0.05-0.04c0.14-0.19,0.27-0.39,0.27-0.65c0-0.65-0.53-1.17-1.17-1.17c-0.65,0-1.17,0.53-1.17,1.17
				c0,0.46,0.31,0.78,0.69,0.97c-0.01,0.03-0.04,0.05-0.04,0.09l-1.24,7.01l-3.83-2.63c-0.02-0.01-0.05-0.01-0.07-0.02
				c0.02-0.08,0.09-0.14,0.09-0.22c0-0.65-0.53-1.17-1.17-1.17c-0.65,0-1.17,0.53-1.17,1.17c0,0.6,0.47,1.06,1.05,1.12
				c0.01,0.02-0.01,0.05,0,0.07l2.67,8.11c0.11,0.34,0.44,0.58,0.8,0.58h26.79c0.35,0,0.67-0.22,0.79-0.55l2.87-7.96
				C133.77,13.58,134.24,13.12,134.24,12.52z M128.94,20.48h-25.59l-1.7-5.17l2.85,1.96c0.24,0.16,0.54,0.19,0.8,0.08
				c0.26-0.11,0.45-0.35,0.5-0.63l1.14-6.47l4.05,5.06c0.18,0.23,0.47,0.35,0.77,0.31c0.29-0.04,0.54-0.23,0.66-0.5l3.47-8.01
				l3.58,8.26c0.12,0.27,0.37,0.46,0.66,0.5c0.29,0.04,0.58-0.08,0.77-0.31l4.24-5.31l1.19,6.75c0.05,0.28,0.24,0.52,0.5,0.63
				c0.26,0.11,0.56,0.08,0.8-0.08l3.15-2.17L128.94,20.48z M129.53,23.16h-26.79c-0.46,0-0.84,0.38-0.84,0.84v3.18
				c0,0.46,0.38,0.84,0.84,0.84h26.79c0.46,0,0.84-0.38,0.84-0.84V24C130.37,23.54,130,23.16,129.53,23.16z M128.69,26.34h-25.11
				v-1.51h25.11V26.34z"/>
			<path class="st20" d="M125.13,6.8c0-0.42,0.34-0.75,0.75-0.75c0.42,0,0.75,0.34,0.75,0.75c0,0.42-0.34,0.75-0.75,0.75
				C125.47,7.55,125.13,7.21,125.13,6.8z M106.13,7.55c0.42,0,0.75-0.34,0.75-0.75c0-0.42-0.34-0.75-0.75-0.75
				c-0.42,0-0.75,0.34-0.75,0.75C105.38,7.21,105.72,7.55,106.13,7.55z M133.82,12.24c0,0.42-0.34,0.75-0.75,0.75
				c-0.11,0-0.18-0.07-0.27-0.11c0.01,0.07,0.08,0.12,0.05,0.18l-2.92,8.11c-0.06,0.17-0.22,0.28-0.39,0.28h-26.79
				c-0.18,0-0.34-0.12-0.4-0.29l-2.67-8.11c-0.06-0.17,0-0.36,0.15-0.47s0.34-0.11,0.49-0.01l4.36,3.01l1.35-7.65
				c0.03-0.16,0.15-0.29,0.31-0.33c0.16-0.04,0.33,0.02,0.43,0.14l4.77,5.97l3.97-9.15c0.02-0.05,0.09-0.05,0.13-0.09
				c-0.33-0.08-0.6-0.33-0.6-0.69c0-0.42,0.34-0.75,0.75-0.75c0.42,0,0.75,0.34,0.75,0.75c0,0.31-0.21,0.52-0.48,0.64
				c0.07,0.04,0.17,0.05,0.2,0.13l4.07,9.39l4.97-6.21c0.1-0.13,0.27-0.19,0.43-0.14c0.16,0.04,0.28,0.17,0.31,0.33l1.4,7.93
				l4.77-3.28c0.07-0.05,0.15,0.01,0.24,0.01c-0.06-0.11-0.14-0.21-0.14-0.34c0-0.42,0.34-0.75,0.75-0.75
				C133.48,11.49,133.82,11.83,133.82,12.24z M131.62,14.01l-4.23,2.91c-0.12,0.08-0.27,0.1-0.4,0.04
				c-0.13-0.06-0.23-0.17-0.25-0.31l-1.35-7.66l-4.82,6.03c-0.09,0.11-0.24,0.17-0.38,0.15c-0.15-0.02-0.27-0.11-0.33-0.25
				l-3.97-9.14l-3.86,8.9c-0.06,0.14-0.18,0.23-0.33,0.25c-0.14,0.02-0.29-0.04-0.38-0.15l-4.63-5.78l-1.3,7.38
				c-0.02,0.14-0.12,0.26-0.25,0.31c-0.13,0.05-0.28,0.04-0.4-0.04l-3.88-2.67l2.19,6.64h26.19L131.62,14.01z M100.15,11.99
				c0-0.42-0.34-0.75-0.75-0.75c-0.42,0-0.75,0.34-0.75,0.75c0,0.42,0.34,0.75,0.75,0.75C99.81,12.74,100.15,12.4,100.15,11.99z
				 M129.95,23.72v3.18c0,0.23-0.19,0.42-0.42,0.42h-26.79c-0.23,0-0.42-0.19-0.42-0.42v-3.18c0-0.23,0.19-0.42,0.42-0.42h26.79
				C129.77,23.3,129.95,23.49,129.95,23.72z M129.11,24.14h-25.95v2.35h25.95V24.14z"/>
		</g>
	</g>
</g>
<g>
	<g>
		<g>
			<g>
				<g>
					<path class="st21" d="M97.8,78.39c-0.07,0-0.15,0-0.22-0.01c-0.71-0.05-2.41-0.46-2.91-3.16c-0.37,0.14-0.81-0.03-0.98-0.38
						c-0.19-0.38-0.03-0.85,0.35-1.06c2.41-1.35,4.4-2.57,5.94-3.65c0.07-0.05,0.14-0.2,0.13-0.27c-0.17-1.6,0.12-2.93,0.82-3.75
						c0.59-0.69,1.43-1,2.4-0.89c1.44,0.17,1.69,1.03,1.73,1.39c0.11,1.04-0.85,2.3-3.04,3.98c-0.06,0.05-0.11,0.17-0.11,0.22
						c0.05,0.18,0.1,0.36,0.16,0.55c0.39,1.22,0.72,2.93,0.04,4.16C101.18,77.18,99.37,78.39,97.8,78.39z M96.03,74.45
						c0.1,0.11,0.17,0.24,0.2,0.39c0.22,1.23,0.73,1.88,1.51,1.94c1.01,0.08,2.3-0.82,2.96-2.01c0.36-0.65,0.15-1.92-0.17-2.89
						c-0.02-0.06-0.04-0.13-0.06-0.19C99.24,72.54,97.75,73.46,96.03,74.45z M102.88,66.78c-0.33,0-0.57,0.1-0.76,0.33
						c-0.29,0.34-0.46,0.98-0.47,1.75c1.44-1.18,1.73-1.79,1.79-1.98c-0.06-0.03-0.18-0.06-0.36-0.08
						C103.02,66.79,102.95,66.78,102.88,66.78z"/>
				</g>
			</g>
		</g>
	</g>
	<g>
		<g>
			<g>
				<g>
					<path class="st21" d="M85.59,77.9c-0.59,0-1.11-0.14-1.56-0.42c-1.12-0.71-1.52-2.18-1.06-3.93c0.86-3.27,4.88-7.43,8.13-8.39
						c1.4-0.42,2.69-0.23,3.48,0.52c0.67,0.63,0.91,1.55,0.66,2.53c-0.1,0.4-0.5,0.68-0.91,0.62c-0.22-0.03-0.42-0.15-0.54-0.33
						c-0.12-0.18-0.16-0.41-0.11-0.63c0.1-0.42,0.02-0.78-0.23-1.01c-0.37-0.35-1.11-0.41-1.95-0.16c-2.63,0.78-6.29,4.56-6.99,7.22
						c-0.27,1.04-0.12,1.88,0.4,2.21c0.19,0.12,0.43,0.18,0.72,0.18c0.77,0,1.79-0.42,2.87-1.2c0.02-0.01,0.03-0.02,0.05-0.03
						c0.02-0.05,0.04-0.12,0.07-0.21c0.38-1.26,1.27-2.63,2.46-3.78c1.76-1.7,2.52-1.89,2.93-1.89c0.1,0,0.19,0.01,0.27,0.04
						c0.37,0.1,0.63,0.4,0.68,0.79c0.22,1.64-3.93,5.09-4.76,5.76c-0.05,0.04-0.11,0.08-0.17,0.11c-0.01,0.23,0.03,0.36,0.07,0.4
						c0,0,0.03,0.02,0.14,0.02c0.25,0,1.25-0.16,3.47-2.16c0.32-0.29,0.85-0.27,1.13,0.04c0.29,0.32,0.25,0.83-0.08,1.13
						c-1.9,1.72-3.44,2.59-4.58,2.59c-0.66,0-1.05-0.28-1.27-0.51c-0.13-0.14-0.23-0.29-0.31-0.47
						C87.53,77.56,86.49,77.9,85.59,77.9z"/>
				</g>
			</g>
		</g>
	</g>
	<g>
		<g>
			<g>
				<g>
					<path class="st21" d="M72.4,78.03c-0.86,0-1.5-0.28-1.9-0.83c-2.1-2.87,4.39-11.43,8.49-14.95c2.21-1.9,4.31-2.94,5.91-2.94
						c0.44,0,0.84,0.08,1.19,0.23c0.91,0.4,1.4,1.26,1.32,2.32c-0.1,1.28-1.23,3.24-4.07,4.53c-0.42,0.19-0.91-0.02-1.06-0.43
						c-0.15-0.4,0.05-0.85,0.44-1.02c2.33-1.06,3.04-2.48,3.1-3.15c0.03-0.38-0.1-0.64-0.4-0.77c-0.08-0.04-0.27-0.1-0.57-0.1
						c-0.7,0-2.25,0.33-4.82,2.54c-4.89,4.2-9.2,11.42-8.21,12.78c0.13,0.18,0.48,0.21,0.67,0.21c1.27,0,4.2-0.97,10.96-5.6
						c0.37-0.25,0.89-0.15,1.12,0.21c0.23,0.36,0.12,0.85-0.24,1.1C78.52,76.1,74.62,78.03,72.4,78.03z"/>
				</g>
			</g>
		</g>
	</g>
	<g>
		<g>
			<g>
				<g>
					<path class="st21" d="M106.89,78.11c-0.28,0-0.53-0.08-0.74-0.25c-0.44-0.34-1.59-1.26,3.31-8.67
						c0.71-1.07,1.08-1.76,1.28-2.19c-0.7,0.39-2.05,1.3-4.38,3.45c-0.31,0.29-0.85,0.28-1.13-0.03c-0.29-0.32-0.26-0.82,0.07-1.13
						c4.5-4.16,5.73-4.16,6.14-4.16c0.28,0,0.52,0.08,0.72,0.24c0.82,0.66,0.45,1.93-1.36,4.67c-2.23,3.38-3.17,5.44-3.43,6.32
						c0.67-0.35,2.34-1.47,6.16-5.14c0.31-0.3,0.84-0.3,1.13,0c0.14,0.15,0.22,0.35,0.22,0.55c0,0.22-0.1,0.43-0.26,0.58
						C109.32,77.42,107.74,78.11,106.89,78.11z"/>
				</g>
			</g>
		</g>
		<g>
			<g>
				<g>
					<path class="st21" d="M113.22,65.01c-0.13,0-0.26-0.03-0.38-0.1c-0.19-0.1-0.32-0.27-0.37-0.48c-0.06-0.21-0.02-0.44,0.1-0.63
						c0.37-0.59,0.84-1.48,1-1.84c0.17-0.38,0.64-0.58,1.03-0.43c0.2,0.07,0.36,0.23,0.44,0.43c0.08,0.2,0.08,0.44-0.02,0.64
						c-0.21,0.45-0.71,1.39-1.1,2.01C113.78,64.86,113.51,65.01,113.22,65.01z"/>
				</g>
			</g>
		</g>
	</g>
	<g>
		<g>
			<g>
				<g>
					<path class="st21" d="M130.7,78.32c-0.93,0-1.64-0.41-2.01-1.16c-0.64-1.3-0.14-3.41,1.37-5.79c2.18-3.43,5.69-6.12,7.99-6.12
						c0.59,0,1.14,0.3,1.4,0.77c0.12,0.22,0.26,0.62,0.1,1.18c0.1,0.06,0.19,0.13,0.27,0.22c0.29,0.33,0.54,0.96,0.18,2.15
						c0.33-0.13,0.7-0.3,1.11-0.52c0.12-0.06,0.25-0.1,0.39-0.1c0.31,0,0.57,0.17,0.7,0.44c0.18,0.38,0.02,0.85-0.37,1.06
						c-0.97,0.52-1.78,0.83-2.46,0.94l-0.18,0.03c-0.01,0-0.02,0-0.03,0c-0.14,0.25-0.3,0.51-0.47,0.78
						C136.51,75.63,133,78.32,130.7,78.32z M138,66.85c-1.54,0-4.56,2.15-6.59,5.35c-1.31,2.05-1.58,3.6-1.27,4.22
						c0.05,0.09,0.15,0.3,0.62,0.3c1.54,0,4.56-2.15,6.59-5.35c0.08-0.13,0.16-0.26,0.24-0.38c-0.47-0.43-0.67-1.12-0.54-1.94
						c0.12-0.73,0.46-1.25,0.83-1.58c-0.04-0.18-0.01-0.37,0.08-0.54C137.98,66.91,137.99,66.88,138,66.85z"/>
				</g>
			</g>
			<g class="st22">
				<path class="st23" d="M138.77,68.11c-0.26,0.1-0.58,0.47-0.68,1.07c-0.05,0.3-0.08,0.83,0.29,1.08c0.03,0.02,0.07,0.04,0.1,0.06
					c0.06,0.03,0.11,0.02,0.12-0.01c0-0.02,0.01-0.03,0.02-0.05c0.59-1.23,0.59-1.9,0.4-2.1c-0.02-0.02-0.06-0.06-0.14-0.06
					C138.85,68.08,138.81,68.09,138.77,68.11z"/>
			</g>
		</g>
	</g>
	<g>
		<g>
			<g>
				<g>
					<path class="st21" d="M123.62,78.33c-0.35,0-0.65-0.1-0.89-0.3c-1.44-1.19,0.72-4.44,0.97-4.81c0.24-0.35,0.5-0.73,0.79-1.14
						c2.86-4.07,2.77-5.04,2.72-5.2c-0.03-0.01-0.14-0.03-0.32-0.03c-2.58,0.12-4.67,2.73-6.38,5.27c-0.47,0.7-0.92,1.41-1.36,2.09
						c-1.76,2.76-2.58,3.98-3.58,4.01c-0.36,0-0.66-0.18-0.81-0.48c-0.1-0.19-0.39-0.77,0.72-2.49c0.45-0.71,1.12-1.74,1.86-2.88
						c1.25-1.93,2.64-4.07,3.58-5.56c-1.15,0.12-3.2,0.7-4.7,1.45c-0.21,0.11-0.38,0.2-0.52,0.28c0.03,0,0.07,0.01,0.11,0.01
						c0.22,0.03,0.41,0.14,0.54,0.32c0.13,0.18,0.17,0.41,0.12,0.63c-0.09,0.41-0.5,0.7-0.92,0.64c-0.44-0.06-1.82-0.23-1.9-1.28
						c-0.07-0.93,0.98-1.57,1.9-2.03c1.38-0.68,4.15-1.63,5.78-1.63c0.61,0,1.03,0.14,1.29,0.42c0.13,0.14,0.5,0.66,0.02,1.42
						c-0.04,0.06-0.07,0.11-0.11,0.17c1.26-1.12,2.69-1.9,4.35-1.97c0.05,0,0.1,0,0.15,0c0.98,0,1.42,0.47,1.62,0.86
						c0.57,1.16-0.25,3.15-2.86,6.86c-0.28,0.4-0.54,0.78-0.78,1.12c-0.77,1.13-1.13,2.16-1.17,2.61c0.46-0.12,1.78-0.72,4.98-3.63
						c0.32-0.29,0.85-0.27,1.13,0.04c0.29,0.32,0.26,0.83-0.07,1.13C126.76,77.06,124.83,78.33,123.62,78.33z"/>
				</g>
			</g>
		</g>
	</g>
</g>
<g>
	<g>
		<g>
			<g>
				<g>
					<path class="st20" d="M97.85,78.11c-0.07,0-0.15,0-0.22-0.01c-0.71-0.05-2.41-0.46-2.91-3.16c-0.37,0.14-0.81-0.03-0.98-0.38
						c-0.19-0.38-0.03-0.85,0.35-1.06c2.41-1.35,4.4-2.57,5.94-3.65c0.07-0.05,0.14-0.2,0.13-0.27c-0.17-1.6,0.12-2.93,0.82-3.75
						c0.59-0.69,1.43-1,2.4-0.89c1.44,0.17,1.69,1.03,1.73,1.39c0.11,1.04-0.85,2.3-3.04,3.98c-0.06,0.05-0.11,0.17-0.11,0.22
						c0.05,0.18,0.1,0.36,0.16,0.55c0.39,1.22,0.72,2.93,0.04,4.16C101.23,76.9,99.42,78.11,97.85,78.11z M96.08,74.18
						c0.1,0.11,0.17,0.24,0.2,0.39c0.22,1.23,0.73,1.88,1.51,1.94c1.01,0.08,2.3-0.82,2.96-2.01c0.36-0.65,0.15-1.92-0.17-2.89
						c-0.02-0.06-0.04-0.13-0.06-0.19C99.28,72.26,97.8,73.19,96.08,74.18z M102.93,66.51c-0.33,0-0.57,0.1-0.76,0.33
						c-0.29,0.34-0.46,0.98-0.47,1.75c1.44-1.18,1.73-1.79,1.79-1.98c-0.06-0.03-0.18-0.06-0.36-0.08
						C103.06,66.52,103,66.51,102.93,66.51z"/>
				</g>
			</g>
		</g>
	</g>
	<g>
		<g>
			<g>
				<g>
					<path class="st20" d="M85.64,77.62c-0.59,0-1.11-0.14-1.56-0.42c-1.12-0.71-1.52-2.18-1.06-3.93c0.86-3.27,4.88-7.43,8.13-8.39
						c1.4-0.42,2.69-0.23,3.48,0.52c0.67,0.63,0.91,1.55,0.66,2.53c-0.1,0.4-0.5,0.68-0.91,0.62c-0.22-0.03-0.42-0.15-0.54-0.33
						c-0.12-0.18-0.16-0.41-0.11-0.63c0.1-0.42,0.02-0.78-0.23-1.01c-0.37-0.35-1.11-0.41-1.95-0.16c-2.63,0.78-6.29,4.56-6.99,7.22
						c-0.27,1.04-0.12,1.88,0.4,2.21c0.19,0.12,0.43,0.18,0.72,0.18c0.77,0,1.79-0.42,2.87-1.2c0.02-0.01,0.03-0.02,0.05-0.03
						c0.02-0.05,0.04-0.12,0.07-0.21c0.38-1.26,1.27-2.63,2.46-3.78c1.76-1.7,2.52-1.89,2.93-1.89c0.1,0,0.19,0.01,0.27,0.04
						c0.37,0.1,0.63,0.4,0.68,0.79c0.22,1.64-3.93,5.09-4.76,5.76c-0.05,0.04-0.11,0.08-0.17,0.11c-0.01,0.23,0.03,0.36,0.07,0.4
						c0,0,0.03,0.02,0.14,0.02c0.25,0,1.25-0.16,3.47-2.16c0.32-0.29,0.85-0.27,1.13,0.04c0.29,0.32,0.25,0.83-0.08,1.13
						c-1.9,1.72-3.44,2.59-4.58,2.59c-0.66,0-1.05-0.28-1.27-0.51c-0.13-0.14-0.23-0.29-0.31-0.47
						C87.58,77.28,86.54,77.62,85.64,77.62z"/>
				</g>
			</g>
		</g>
	</g>
	<g>
		<g>
			<g>
				<g>
					<path class="st20" d="M72.44,77.75c-0.86,0-1.5-0.28-1.9-0.83c-2.1-2.87,4.39-11.43,8.49-14.95c2.21-1.9,4.31-2.94,5.91-2.94
						c0.44,0,0.84,0.08,1.19,0.23c0.91,0.4,1.4,1.26,1.32,2.32c-0.1,1.28-1.23,3.24-4.07,4.53c-0.42,0.19-0.91-0.02-1.06-0.43
						c-0.15-0.4,0.05-0.85,0.44-1.02c2.33-1.06,3.04-2.48,3.1-3.15c0.03-0.38-0.1-0.64-0.4-0.77c-0.08-0.04-0.27-0.1-0.57-0.1
						c-0.7,0-2.25,0.33-4.82,2.54c-4.89,4.2-9.2,11.42-8.21,12.78c0.13,0.18,0.48,0.21,0.67,0.21c1.27,0,4.2-0.97,10.96-5.6
						c0.37-0.25,0.89-0.15,1.12,0.21c0.23,0.36,0.12,0.85-0.24,1.1C78.57,75.83,74.67,77.75,72.44,77.75z"/>
				</g>
			</g>
		</g>
	</g>
	<g>
		<g>
			<g>
				<g>
					<path class="st20" d="M106.93,77.83c-0.28,0-0.53-0.08-0.74-0.25c-0.44-0.34-1.59-1.26,3.31-8.67
						c0.71-1.07,1.08-1.76,1.28-2.19c-0.7,0.39-2.05,1.3-4.38,3.45c-0.31,0.29-0.85,0.28-1.13-0.03c-0.29-0.32-0.26-0.82,0.07-1.13
						c4.5-4.16,5.73-4.16,6.14-4.16c0.28,0,0.52,0.08,0.72,0.24c0.82,0.66,0.45,1.93-1.36,4.67c-2.23,3.38-3.17,5.44-3.43,6.32
						c0.67-0.35,2.34-1.47,6.16-5.14c0.31-0.3,0.84-0.3,1.13,0c0.14,0.15,0.22,0.35,0.22,0.55c0,0.22-0.1,0.43-0.26,0.58
						C109.37,77.15,107.79,77.83,106.93,77.83z"/>
				</g>
			</g>
		</g>
		<g>
			<g>
				<g>
					<path class="st20" d="M113.27,64.74c-0.13,0-0.26-0.03-0.38-0.1c-0.19-0.1-0.32-0.27-0.37-0.48c-0.06-0.21-0.02-0.44,0.1-0.63
						c0.37-0.59,0.84-1.48,1-1.84c0.17-0.38,0.64-0.58,1.03-0.43c0.2,0.07,0.36,0.23,0.44,0.43c0.08,0.2,0.08,0.44-0.02,0.64
						c-0.21,0.45-0.71,1.39-1.1,2.01C113.83,64.58,113.56,64.74,113.27,64.74z"/>
				</g>
			</g>
		</g>
	</g>
	<g>
		<g>
			<g>
				<g>
					<path class="st20" d="M130.75,78.04c-0.93,0-1.64-0.41-2.01-1.16c-0.64-1.3-0.14-3.41,1.37-5.79c2.18-3.43,5.69-6.12,7.99-6.12
						c0.59,0,1.14,0.3,1.4,0.77c0.12,0.22,0.26,0.62,0.1,1.18c0.1,0.06,0.19,0.13,0.27,0.22c0.29,0.33,0.54,0.96,0.18,2.15
						c0.33-0.13,0.7-0.3,1.11-0.52c0.12-0.06,0.25-0.1,0.39-0.1c0.31,0,0.57,0.17,0.7,0.44c0.18,0.38,0.02,0.85-0.37,1.06
						c-0.97,0.52-1.78,0.83-2.46,0.94l-0.18,0.03c-0.01,0-0.02,0-0.03,0c-0.14,0.25-0.3,0.51-0.47,0.78
						C136.56,75.36,133.05,78.04,130.75,78.04z M138.05,66.58c-1.54,0-4.56,2.15-6.59,5.35c-1.31,2.05-1.58,3.6-1.27,4.22
						c0.05,0.09,0.15,0.3,0.62,0.3c1.54,0,4.56-2.15,6.59-5.35c0.08-0.13,0.16-0.26,0.24-0.38c-0.47-0.43-0.67-1.12-0.54-1.94
						c0.12-0.73,0.46-1.25,0.83-1.58c-0.04-0.18-0.01-0.37,0.08-0.54C138.03,66.63,138.04,66.6,138.05,66.58z"/>
				</g>
			</g>
			<g class="st22">
				<path class="st24" d="M138.82,67.83c-0.26,0.1-0.58,0.47-0.68,1.07c-0.05,0.3-0.08,0.83,0.29,1.08c0.03,0.02,0.07,0.04,0.1,0.06
					c0.06,0.03,0.11,0.02,0.12-0.01c0-0.02,0.01-0.03,0.02-0.05c0.59-1.23,0.59-1.9,0.4-2.1c-0.02-0.02-0.06-0.06-0.14-0.06
					C138.9,67.81,138.86,67.82,138.82,67.83z"/>
			</g>
		</g>
	</g>
	<g>
		<g>
			<g>
				<g>
					<path class="st20" d="M123.67,78.05c-0.35,0-0.65-0.1-0.89-0.3c-1.44-1.19,0.72-4.44,0.97-4.81c0.24-0.35,0.5-0.73,0.79-1.14
						c2.86-4.07,2.77-5.04,2.72-5.2c-0.03-0.01-0.14-0.03-0.32-0.03c-2.58,0.12-4.67,2.73-6.38,5.27c-0.47,0.7-0.92,1.41-1.36,2.09
						c-1.76,2.76-2.58,3.98-3.58,4.01c-0.36,0-0.66-0.18-0.81-0.48c-0.1-0.19-0.39-0.77,0.72-2.49c0.45-0.71,1.12-1.74,1.86-2.88
						c1.25-1.93,2.64-4.07,3.58-5.56c-1.15,0.12-3.2,0.7-4.7,1.45c-0.21,0.11-0.38,0.2-0.52,0.28c0.03,0,0.07,0.01,0.11,0.01
						c0.22,0.03,0.41,0.14,0.54,0.32c0.13,0.18,0.17,0.41,0.12,0.63c-0.09,0.41-0.5,0.7-0.92,0.64c-0.44-0.06-1.82-0.23-1.9-1.28
						c-0.07-0.93,0.98-1.57,1.9-2.03c1.38-0.68,4.15-1.63,5.78-1.63c0.61,0,1.03,0.14,1.29,0.42c0.13,0.14,0.5,0.66,0.02,1.42
						c-0.04,0.06-0.07,0.11-0.11,0.17c1.26-1.12,2.69-1.9,4.35-1.97c0.05,0,0.1,0,0.15,0c0.98,0,1.42,0.47,1.62,0.86
						c0.57,1.16-0.25,3.15-2.86,6.86c-0.28,0.4-0.54,0.78-0.78,1.12c-0.77,1.13-1.13,2.16-1.17,2.61c0.46-0.12,1.78-0.72,4.98-3.63
						c0.32-0.29,0.85-0.27,1.13,0.04c0.29,0.32,0.26,0.83-0.07,1.13C126.81,76.79,124.88,78.05,123.67,78.05z"/>
				</g>
			</g>
		</g>
	</g>
</g>
<g>
	<g>
		<circle class="st19" cx="138.49" cy="77.36" r="1.36"/>
		<g>
			<path class="st25" d="M142.52,78.87c-0.82,0-1.27-0.38-1.5-0.69c-1.51-2.07,2.64-7.05,4.54-8.69c1.31-1.12,2.49-1.69,3.5-1.69
				c0.32,0,0.62,0.06,0.88,0.17c0.73,0.32,1.14,1.02,1.07,1.85c-0.09,1.15-1.03,2.24-2.51,2.91c-0.14,0.06-0.29,0.1-0.45,0.1
				c-0.44,0-0.83-0.27-0.98-0.68c-0.19-0.52,0.06-1.12,0.57-1.35c0.62-0.28,0.95-0.6,1.1-0.82c-0.33,0.09-0.93,0.35-1.83,1.12
				c-1.97,1.69-3.82,4.52-4.1,5.62c0.56-0.11,1.97-0.63,5.11-2.78c0.18-0.12,0.39-0.19,0.61-0.19c0.36,0,0.69,0.18,0.88,0.48
				c0.31,0.48,0.17,1.12-0.31,1.45C144.95,78.54,143.36,78.87,142.52,78.87z"/>
		</g>
		<g>
			<path class="st20" d="M142.53,78.31c-0.64,0-0.98-0.28-1.15-0.51c-1.19-1.62,2.22-6.17,4.47-8.1c1.23-1.05,2.31-1.59,3.22-1.59
				c0.26,0,0.5,0.05,0.71,0.14c0.55,0.24,0.86,0.78,0.81,1.41c-0.06,0.76-0.69,1.83-2.26,2.55c-0.08,0.04-0.17,0.06-0.27,0.06
				c-0.26,0-0.48-0.16-0.57-0.39c-0.12-0.31,0.04-0.67,0.35-0.81c1.13-0.51,1.47-1.18,1.49-1.46c0.01-0.15-0.05-0.18-0.09-0.2
				c-0.03-0.02-0.1-0.03-0.21-0.03c-0.27,0-1.05,0.12-2.39,1.27c-2.62,2.25-4.62,5.89-4.25,6.39c0,0,0.06,0.02,0.18,0.02
				c0.52,0,1.94-0.38,5.61-2.89c0.29-0.2,0.7-0.12,0.88,0.17c0.18,0.29,0.1,0.67-0.19,0.86C145.83,77.29,143.75,78.31,142.53,78.31z
				"/>
		</g>
		<circle class="st20" cx="138.49" cy="77.29" r="1.02"/>
	</g>
	<path class="st21" d="M155.9,75.79c0.21,0.09,0.34,0.21,0.38,0.39s0.03,0.36-0.04,0.55c-0.08,0.24-0.25,0.45-0.51,0.65
		c-0.25,0.19-0.53,0.27-0.82,0.23c-0.39-0.07-0.79-0.12-1.21-0.16c-0.42-0.04-0.83-0.05-1.24-0.05c-0.46,0-0.93,0.01-1.41,0.04
		c-0.47,0.03-0.95,0.06-1.43,0.1c-0.26-0.04-0.42-0.14-0.5-0.3c-0.08-0.16-0.08-0.35,0-0.57c0.07-0.21,0.21-0.42,0.39-0.64
		c0.86-0.97,1.75-1.9,2.68-2.79c0.93-0.9,1.87-1.78,2.82-2.65l0.56-0.52c-0.58,0-1.13,0.01-1.67,0.04
		c-0.54,0.03-1.11,0.08-1.72,0.14c-0.27-0.03-0.44-0.13-0.51-0.3c-0.07-0.17-0.06-0.37,0.02-0.59c0.06-0.18,0.17-0.35,0.33-0.52
		c0.16-0.16,0.35-0.29,0.58-0.39c0.65-0.08,1.28-0.14,1.91-0.16s1.25-0.04,1.88-0.04c0.28,0,0.56,0,0.84,0s0.55,0.01,0.81,0.02
		c0.39,0.17,0.5,0.46,0.35,0.89c-0.04,0.11-0.1,0.23-0.18,0.35c-0.08,0.12-0.19,0.24-0.31,0.35l-1.5,1.36
		c-0.78,0.7-1.58,1.43-2.38,2.18c-0.8,0.75-1.55,1.48-2.25,2.2c0.22-0.01,0.44-0.02,0.64-0.02c0.21,0,0.42,0,0.63,0
		c0.49,0,0.96,0.02,1.43,0.05c0.46,0.03,0.93,0.09,1.39,0.16H155.9z"/>
	<path class="st20" d="M155.9,75.65c0.21,0.09,0.34,0.21,0.38,0.39s0.03,0.36-0.04,0.55c-0.08,0.24-0.25,0.45-0.51,0.65
		c-0.25,0.19-0.53,0.27-0.82,0.23c-0.39-0.07-0.79-0.12-1.21-0.16c-0.42-0.04-0.83-0.05-1.24-0.05c-0.46,0-0.93,0.01-1.41,0.04
		c-0.47,0.03-0.95,0.06-1.43,0.1c-0.26-0.04-0.42-0.14-0.5-0.3c-0.08-0.16-0.08-0.35,0-0.57c0.07-0.21,0.21-0.42,0.39-0.64
		c0.86-0.97,1.75-1.9,2.68-2.79c0.93-0.9,1.87-1.78,2.82-2.65l0.56-0.52c-0.58,0-1.13,0.01-1.67,0.04
		c-0.54,0.03-1.11,0.08-1.72,0.14c-0.27-0.03-0.44-0.13-0.51-0.3c-0.07-0.17-0.06-0.37,0.02-0.59c0.06-0.18,0.17-0.35,0.33-0.52
		c0.16-0.16,0.35-0.29,0.58-0.39c0.65-0.08,1.28-0.14,1.91-0.16s1.25-0.04,1.88-0.04c0.28,0,0.56,0,0.84,0s0.55,0.01,0.81,0.02
		c0.39,0.17,0.5,0.46,0.35,0.89c-0.04,0.11-0.1,0.23-0.18,0.35c-0.08,0.12-0.19,0.24-0.31,0.35l-1.5,1.36
		c-0.78,0.7-1.58,1.43-2.38,2.18c-0.8,0.75-1.55,1.48-2.25,2.2c0.22-0.01,0.44-0.02,0.64-0.02c0.21,0,0.42,0,0.63,0
		c0.49,0,0.96,0.02,1.43,0.05c0.46,0.03,0.93,0.09,1.39,0.16H155.9z"/>
</g>
</svg>
