<svg width="25" height="21" viewBox="0 0 25 21" fill="none" xmlns="http://www.w3.org/2000/svg">
<path d="M23.1495 3.12831C23.9554 3.12831 24.6094 3.78234 24.6094 4.58819V16.2672C24.6094 16.6544 24.4556 17.0257 24.1818 17.2995C23.908 17.5733 23.5367 17.7271 23.1495 17.7271H1.45988C1.07269 17.7271 0.701369 17.5733 0.427588 17.2995C0.153808 17.0257 0 16.6544 0 16.2672V4.58819C0 3.78234 0.654025 3.12831 1.45988 3.12831H23.1495ZM7.99429 4.37963H1.45988C1.40457 4.37963 1.35152 4.40161 1.31241 4.44072C1.2733 4.47983 1.25132 4.53288 1.25132 4.58819V16.2672C1.25132 16.3823 1.34476 16.4758 1.45988 16.4758H7.99429V4.37963ZM15.78 4.37963H8.82851V16.4758H15.78V4.37963ZM23.1495 4.37963H16.6142V16.4758H23.1495C23.2048 16.4758 23.2579 16.4538 23.297 16.4147C23.3361 16.3756 23.3581 16.3225 23.3581 16.2672V4.58819C23.3581 4.53288 23.3361 4.47983 23.297 4.44072C23.2579 4.40161 23.2048 4.37963 23.1495 4.37963ZM4.28068 6.95935C4.61753 6.95935 5.10432 7.14733 5.50311 7.54394C5.58714 7.62797 5.74288 7.69498 5.97034 7.74496L6.42889 7.14733H7.30469C7.30469 7.6066 7.20617 8.21437 7.00913 8.97064C6.88526 9.44657 6.22787 10.3615 5.85625 11.1808C5.67515 11.5792 5.55744 12.3453 5.50311 13.4789H2.87679C2.75654 12.714 2.88585 12.0526 3.26471 11.4948C3.6443 10.9356 4.28394 10.3524 5.18365 9.74539C4.85042 9.66788 4.62405 9.59508 4.50452 9.52698C4.12856 9.31401 3.84713 9.03584 3.70261 8.97064C3.43096 8.85003 3.31578 8.90762 3.26471 8.88698C3.15243 8.84134 3.02312 9.10393 2.87679 9.67476H1.87169L1.93145 7.0528H3.08542V7.40485C3.444 7.10785 3.84242 6.95935 4.28068 6.95935ZM11.9934 6.91915C12.3344 6.91915 12.8272 7.10945 13.2309 7.51095C13.316 7.59601 13.4736 7.66385 13.7039 7.71445L14.1681 7.10945H15.0547C15.0547 7.57438 14.955 8.18965 14.7555 8.95525C14.6301 9.43705 13.9646 10.3632 13.5884 11.1926C13.4051 11.596 13.2859 12.3715 13.2309 13.5191H10.5722C10.4505 12.7447 10.5814 12.0752 10.9649 11.5105C11.3492 10.9444 11.9967 10.3541 12.9075 9.73955C12.5702 9.66108 12.3406 9.58738 12.2189 9.51845C11.8394 9.30285 11.5545 9.02125 11.4082 8.95525C11.1332 8.83315 11.0166 8.89145 10.9649 8.87055C10.8512 8.82435 10.7203 9.09018 10.5722 9.66805H9.55469L9.61519 7.01375H10.7834V7.37015C11.1457 7.06948 11.549 6.91915 11.9934 6.91915ZM19.7135 6.95782C20.0505 6.95782 20.5376 7.14589 20.9365 7.54269C21.0206 7.62676 21.1764 7.6938 21.404 7.7438L21.8627 7.1459H22.739C22.739 7.60538 22.6404 8.21343 22.4433 8.97006C22.3193 9.44621 21.6616 10.3616 21.2898 11.1812C21.1087 11.5798 20.9909 12.3463 20.9365 13.4805H18.309C18.1887 12.7151 18.3181 12.0535 18.6971 11.4954C19.0769 10.9359 19.7168 10.3525 20.6169 9.74517C20.2835 9.66762 20.0571 9.59478 19.9375 9.52666C19.5613 9.31359 19.2798 9.03529 19.1352 8.97006C18.8634 8.84939 18.7482 8.90701 18.6971 8.88635C18.5848 8.84069 18.4554 9.10341 18.309 9.67451H17.3034L17.3632 7.05132H18.5177V7.40354C18.8765 7.1064 19.2751 6.95782 19.7135 6.95782ZM21.064 0C21.1746 0 21.2807 0.0987722 21.3589 0.274588C21.4371 0.450403 21.4811 0.68886 21.4811 0.9375C21.4811 1.18614 21.4371 1.4246 21.3589 1.60041C21.2807 1.77623 21.1746 1.875 21.064 1.875H3.12831C3.01769 1.875 2.91159 1.77623 2.83337 1.60041C2.75515 1.4246 2.7112 1.18614 2.7112 0.9375C2.7112 0.68886 2.75515 0.450403 2.83337 0.274588C2.91159 0.0987722 3.01769 0 3.12831 0H21.064ZM21.064 18.918C21.1746 18.918 21.2807 19.02 21.3589 19.2017C21.4371 19.3834 21.4811 19.6298 21.4811 19.8867C21.4811 20.1436 21.4371 20.39 21.3589 20.5717C21.2807 20.7533 21.1746 20.8554 21.064 20.8554H3.12831C3.01769 20.8554 2.91159 20.7533 2.83337 20.5717C2.75515 20.39 2.7112 20.1436 2.7112 19.8867C2.7112 19.6298 2.75515 19.3834 2.83337 19.2017C2.91159 19.02 3.01769 18.918 3.12831 18.918H21.064Z" fill="black"/>
</svg>
