<svg width="30" height="30" viewBox="0 0 30 30" fill="none" xmlns="http://www.w3.org/2000/svg">
<path d="M15 30C6.71573 30 0 23.2843 0 15C0 6.71573 6.71573 0 15 0C23.2843 0 30 6.71573 30 15C30 23.2843 23.2843 30 15 30ZM15 29.0625C22.7665 29.0625 29.0625 22.7665 29.0625 15C29.0625 7.2335 22.7665 0.9375 15 0.9375C7.2335 0.9375 0.9375 7.2335 0.9375 15C0.9375 22.7665 7.2335 29.0625 15 29.0625Z" fill="black"/>
<path fill-rule="evenodd" clip-rule="evenodd" d="M11.3361 28.348L8.83003 25.6106L8.76438 25.7209L3.83966 21.9092L3.08678 22.5116C2.91812 22.2452 2.75816 21.9727 2.60732 21.6945L3.46084 21.0116V16.2486L3.607 16.2183L1.75685 12.3089H1.17187C1.79445 9.09636 3.51047 6.274 5.91707 4.24465L6.11968 5.29818L10.0009 4.91415L14.5084 2.17389V0.945165C14.664 0.940068 14.8203 0.9375 14.9771 0.9375C15.134 0.9375 15.2903 0.940068 15.4459 0.945165L15.4459 2.17389L19.9287 4.89918L23.7883 5.28106L23.9945 4.2088C26.4587 6.27012 28.2062 9.15972 28.8089 12.4495H28.2576L26.2415 16.7096V21.1237L27.2266 21.9119C27.0712 22.1866 26.9069 22.4556 26.734 22.7185L25.7617 21.9404L21.378 25.3334L18.6182 28.348L18.6811 28.5696C17.501 28.891 16.2591 29.0625 14.9771 29.0625C13.6952 29.0625 12.4533 28.891 11.2732 28.5696L11.3361 28.348ZM11.6774 19.7812H17.9965L20.5256 15.6034L17.9585 10.703H12.1225L9.3666 15.9639L11.6774 19.7812ZM8.66295 15.1712L11.2599 10.2138L10.0157 5.84877L6.13739 6.23251L2.58778 12.001L4.49645 16.0341L8.66295 15.1712ZM23.8759 6.2318L20.0047 5.84877L18.7605 10.2138L21.3845 15.2228L25.5024 16.0797L27.4271 12.0126L23.8759 6.2318ZM9.46438 24.9151L11.9023 27.578H18.052L20.4899 24.9151L17.9919 20.7187H11.9624L9.46438 24.9151Z" fill="black"/>
</svg>
