<?xml version="1.0" encoding="UTF-8" standalone="no"?>
<svg
   id="Vrstva_1"
   data-name="Vrstva 1"
   viewBox="0 0 100 40"
   version="1.1"
   sodipodi:docname="egaming_online.svg"
   inkscape:version="1.1.2 (0a00cf5339, 2022-02-04)"
   xmlns:inkscape="http://www.inkscape.org/namespaces/inkscape"
   xmlns:sodipodi="http://sodipodi.sourceforge.net/DTD/sodipodi-0.dtd"
   xmlns="http://www.w3.org/2000/svg"
   xmlns:svg="http://www.w3.org/2000/svg">
  <sodipodi:namedview
     id="namedview10"
     pagecolor="#ffffff"
     bordercolor="#666666"
     borderopacity="1.0"
     inkscape:pageshadow="2"
     inkscape:pageopacity="0.0"
     inkscape:pagecheckerboard="0"
     showgrid="false"
     inkscape:zoom="11.075"
     inkscape:cx="59.954853"
     inkscape:cy="19.954853"
     inkscape:window-width="1920"
     inkscape:window-height="1008"
     inkscape:window-x="0"
     inkscape:window-y="0"
     inkscape:window-maximized="1"
     inkscape:current-layer="Vrstva_1" />
  <defs
     id="defs4">
    <style
       id="style2">
      .cls-1 {
        fill: #656565;
      }

      .cls-1, .cls-2 {
        fill-rule: evenodd;
      }

      .cls-2 {
        fill: #e40a35;
      }
    </style>
  </defs>
  <g
     id="svgg"
     transform="translate(-11.466365)">
    <path
       id="path0"
       class="cls-1"
       d="m 76.84,12.36 c -0.36,0.06 -1.13,0.32 -1.21,0.41 -0.01,0.01 -0.07,0.05 -0.13,0.08 -0.33,0.17 -0.63,0.66 -0.64,1.02 0,0.94 1.07,1.58 2.64,1.58 3.05,0 3.59,-2.53 0.66,-3.08 -0.18,-0.03 -1.14,-0.04 -1.33,-0.01 m -49.91,3.47 c -0.61,0.16 -1.06,0.47 -1.21,0.84 -0.12,0.28 -0.12,6.27 0,6.54 0.17,0.4 0.82,0.78 1.48,0.88 0.16,0.02 1.29,0.04 2.67,0.04 h 2.39 c 0,0 -0.01,0.96 -0.01,0.96 v 0.95 c 0,0 -0.15,0.08 -0.15,0.08 -0.12,0.07 -0.21,0.08 -0.55,0.08 -0.6,0 -0.63,-0.03 -0.65,-0.76 L 30.87,24.9 h -5.23 v 0.86 c 0,1.21 0.15,1.46 1.06,1.8 l 0.29,0.11 h 9.06 l 0.27,-0.09 c 0.52,-0.17 0.95,-0.47 1.07,-0.76 0.07,-0.17 0.08,-9.88 0.01,-10.14 -0.02,-0.09 -0.12,-0.23 -0.21,-0.32 -0.27,-0.27 -0.5,-0.38 -1.14,-0.55 -0.32,-0.08 -8.8,-0.05 -9.12,0.03 m 14.04,0.02 c -0.54,0.15 -0.88,0.38 -1.01,0.69 -0.1,0.25 -0.08,6.54 0.02,6.74 0.38,0.75 0.8,0.85 3.65,0.85 2.39,0 2.43,0 2.72,-0.24 0.2,-0.16 0.2,-0.16 0.2,0.06 v 0.18 h 5.16 V 15.76 H 46.5 c 0,0 -5.21,0 -5.21,0 l -0.32,0.09 m 14.33,0 c -0.51,0.15 -0.94,0.44 -1.13,0.76 -0.04,0.06 -0.05,0.96 -0.05,3.8 v 3.72 c 0,0 2.6,0 2.6,0 h 2.6 v -3.28 c 0,-2.08 0.01,-3.32 0.04,-3.39 0.12,-0.32 1.19,-0.35 1.3,-0.04 0.01,0.04 0.03,1.56 0.03,3.39 v 3.32 h 5.2 v -6.67 l 0.09,-0.08 c 0.19,-0.17 0.78,-0.23 1.04,-0.1 0.25,0.13 0.24,-0.03 0.24,3.56 v 3.29 h 5.16 v -3.71 c 0,-3.05 0,-3.73 -0.06,-3.84 -0.14,-0.33 -0.59,-0.62 -1.17,-0.75 -0.34,-0.08 -0.49,-0.08 -7.95,-0.08 h -7.6 c 0,0 -0.33,0.1 -0.33,0.1 m 19.57,4.09 v 4.19 h 5.24 v -8.38 h -5.24 v 4.19 m 8.72,-4.09 c -0.29,0.08 -0.6,0.21 -0.72,0.31 -0.56,0.43 -0.51,0 -0.51,4.28 v 3.69 h 5.24 v -3.3 c 0,-2.42 0.01,-3.33 0.05,-3.4 0.1,-0.21 0.91,-0.29 1.15,-0.12 l 0.11,0.09 0.02,3.36 0.02,3.36 h 2.61 c 0,0 2.61,0.02 2.61,0.02 v -3.63 c 0,-4.15 0.02,-3.89 -0.34,-4.21 -0.6,-0.54 -0.51,-0.53 -5.59,-0.53 h -4.32 c 0,0 -0.32,0.09 -0.32,0.09 m 14.23,-0.01 c -0.55,0.15 -1.02,0.47 -1.16,0.78 -0.09,0.19 -0.12,6.25 -0.03,6.56 0.08,0.3 0.5,0.62 1.08,0.83 l 0.3,0.11 h 2.59 c 0,0 2.59,0.03 2.59,0.03 v 0.9 c 0,1.15 -0.02,1.18 -0.77,1.19 -0.53,0 -0.6,-0.09 -0.6,-0.78 V 24.93 H 96.6 v 0.85 c 0,1.25 0.14,1.48 1.09,1.82 l 0.25,0.09 H 107 l 0.32,-0.11 c 0.38,-0.13 0.71,-0.35 0.9,-0.59 l 0.13,-0.17 v -5.04 c 0,-5.64 0.03,-5.16 -0.3,-5.47 -0.23,-0.21 -0.49,-0.34 -0.91,-0.44 -0.52,-0.13 -8.86,-0.13 -9.31,0 m -65.8,1.43 c 0.24,0.12 0.23,0 0.23,2.68 v 2.48 c 0,0 -0.13,0.11 -0.13,0.11 -0.13,0.11 -0.14,0.11 -0.55,0.09 -0.52,-0.02 -0.63,-0.07 -0.67,-0.33 -0.06,-0.43 0,-4.86 0.07,-4.93 0.16,-0.16 0.82,-0.23 1.05,-0.11 m 14.53,2.67 v 2.74 h -0.55 c -0.57,0 -0.72,-0.03 -0.89,-0.2 l -0.09,-0.09 v -2.47 c 0,-1.36 0.01,-2.49 0.03,-2.51 0.11,-0.17 0.3,-0.22 0.91,-0.22 h 0.59 v 2.74 m 56.37,-2.68 c 0.27,0.11 0.26,0.04 0.26,2.69 0,2.94 0.06,2.73 -0.81,2.69 -0.31,-0.01 -0.37,-0.03 -0.46,-0.11 l -0.1,-0.1 v -2.49 c 0,-2.45 0,-2.49 0.08,-2.56 0.18,-0.16 0.77,-0.22 1.03,-0.11" />
    <path
       id="path1"
       class="cls-2"
       d="m 12.85,15.85 c -0.54,0.15 -0.9,0.38 -1.1,0.71 l -0.09,0.15 v 6.48 l 0.12,0.16 c 0.27,0.37 0.8,0.65 1.39,0.74 0.37,0.05 8.31,0.05 8.72,0 0.67,-0.09 1.25,-0.41 1.46,-0.81 0.07,-0.13 0.08,-0.24 0.08,-1.04 v -0.89 h -5.2 v 1.05 l -0.12,0.12 -0.12,0.12 H 17.55 C 17.15,22.61 17.1,22.6 17.01,22.52 l -0.1,-0.1 v -1.76 h 6.53 V 18.7 c 0,-1.91 0,-1.96 -0.09,-2.12 -0.18,-0.35 -0.59,-0.62 -1.18,-0.75 -0.56,-0.13 -8.82,-0.12 -9.3,0.02 m 5.17,1.43 c 0.2,0.1 0.2,0.12 0.2,1.1 v 0.84 c 0,0 -0.66,0 -0.66,0 h -0.66 v -0.88 c 0,-0.66 0.01,-0.9 0.05,-0.95 0.13,-0.17 0.81,-0.24 1.07,-0.11" />
  </g>
</svg>
