<?xml version="1.0" encoding="UTF-8" standalone="no"?>
<svg
   id="Vrstva_1"
   data-name="Vrstva 1"
   viewBox="0 0 110 40"
   version="1.1"
   sodipodi:docname="synot_online.svg"
   inkscape:version="1.1.2 (0a00cf5339, 2022-02-04)"
   xmlns:inkscape="http://www.inkscape.org/namespaces/inkscape"
   xmlns:sodipodi="http://sodipodi.sourceforge.net/DTD/sodipodi-0.dtd"
   xmlns="http://www.w3.org/2000/svg"
   xmlns:svg="http://www.w3.org/2000/svg">
  <sodipodi:namedview
     id="namedview19"
     pagecolor="#ffffff"
     bordercolor="#666666"
     borderopacity="1.0"
     inkscape:pageshadow="2"
     inkscape:pageopacity="0.0"
     inkscape:pagecheckerboard="0"
     showgrid="false"
     inkscape:zoom="9.4928571"
     inkscape:cx="69.947329"
     inkscape:cy="20.015049"
     inkscape:window-width="1920"
     inkscape:window-height="1048"
     inkscape:window-x="0"
     inkscape:window-y="1080"
     inkscape:window-maximized="1"
     inkscape:current-layer="Vrstva_1" />
  <defs
     id="defs4">
    <style
       id="style2">
      .cls-1 {
        fill: #020303;
      }

      .cls-2 {
        fill: #e84128;
      }
    </style>
  </defs>
  <path
     class="cls-1"
     d="m 78.59,27.13 c -0.1,-0.02 -0.2,-0.01 -0.31,-0.01 -0.6,-0.02 -1.21,-0.03 -1.81,-0.05 -0.42,-0.01 -0.83,-0.03 -1.25,-0.05 -0.53,-0.03 -1.05,-0.06 -1.58,-0.09 -0.41,-0.03 -0.82,-0.06 -1.23,-0.09 -0.53,-0.04 -1.05,-0.09 -1.58,-0.14 -0.24,-0.02 -0.49,-0.05 -0.73,-0.07 -0.06,0 -0.08,-0.02 -0.09,-0.08 -0.01,-0.12 0.01,-0.25 -0.05,-0.37 0.03,-0.08 0,-0.16 0,-0.25 -0.04,-0.59 -0.07,-1.17 -0.11,-1.76 -0.03,-0.6 -0.05,-1.2 -0.08,-1.8 0,-0.16 0,-0.31 0,-0.47 -0.02,-0.76 -0.04,-1.51 -0.03,-2.27 0,-0.34 0,-0.67 0.01,-1.01 0.02,-0.54 0.02,-1.08 0.05,-1.62 0.02,-0.33 0.02,-0.66 0.04,-0.99 0.03,-0.52 0.06,-1.04 0.09,-1.56 0.02,-0.32 0.05,-0.64 0.07,-0.96 0,-0.1 0.01,-0.11 0.11,-0.12 0.34,-0.03 0.68,-0.07 1.03,-0.1 0.47,-0.04 0.94,-0.09 1.41,-0.12 0.09,0 0.18,-0.04 0.27,0 0.13,-0.06 0.27,-0.03 0.4,-0.04 0.44,-0.04 0.88,-0.06 1.31,-0.09 0.48,-0.02 0.96,-0.05 1.44,-0.07 0.4,-0.02 0.8,-0.03 1.2,-0.04 0.42,-0.02 0.83,-0.01 1.25,-0.02 0.95,-0.03 1.91,-0.01 2.86,0 0.38,0 0.76,0 1.13,0.02 0.16,0 0.32,-0.01 0.47,0.04 0.23,-0.04 0.46,0 0.68,0 0.56,0.01 1.12,0.05 1.68,0.08 0.33,0.02 0.66,0.04 0.99,0.06 0.35,0.02 0.7,0.05 1.05,0.08 0.23,0.01 0.46,0.04 0.7,0.06 0.29,0.03 0.59,0.04 0.88,0.08 0.14,0.02 0.27,0 0.41,0.03 0.17,0.03 0.34,0.03 0.51,0.05 0.11,0.01 0.12,0.01 0.14,0.13 0,0.04 0,0.08 0.01,0.11 0.02,0.33 0.05,0.67 0.06,1 0,0.12 0.03,0.23 0.03,0.35 0,0.12 0,0.24 0.02,0.37 0,0.12 0.02,0.24 0.03,0.36 0,0.12 0,0.24 0.01,0.37 0,0.12 0.02,0.24 0.02,0.36 0.01,0.32 0.03,0.64 0.04,0.96 0,0.19 0.02,0.38 0.02,0.57 0,0.19 0,0.38 0,0.57 0.02,0.73 0.03,1.46 0.01,2.19 -0.01,0.72 -0.02,1.45 -0.05,2.17 -0.02,0.45 -0.04,0.91 -0.06,1.36 -0.03,0.63 -0.06,1.25 -0.12,1.88 -0.01,0.13 -0.02,0.27 -0.03,0.4 0,0.09 0,0.09 -0.09,0.1 -0.15,0.02 -0.3,0.03 -0.46,0.05 -0.48,0.04 -0.96,0.09 -1.44,0.13 -0.27,0.02 -0.53,0.04 -0.8,0.06 -0.48,0.04 -0.95,0.07 -1.43,0.1 -0.26,0.02 -0.51,0.02 -0.77,0.04 -0.35,0.03 -0.69,0.03 -1.04,0.05 -0.47,0.03 -0.93,0.04 -1.4,0.04 -0.34,0 -0.68,0.03 -1.02,0.03 -0.03,0 -0.07,0 -0.1,0.01 h -2.84 z m 2.44,-2.39 c 0.38,0.02 0.74,-0.01 1.11,-0.01 0.14,0 0.28,0 0.42,0 0.59,-0.03 1.18,-0.05 1.77,-0.08 0.72,-0.04 1.43,-0.1 2.15,-0.15 0.07,0 0.08,-0.01 0.09,-0.09 0.01,-0.17 0.03,-0.34 0.04,-0.51 0.04,-0.42 0.07,-0.84 0.09,-1.26 0.02,-0.27 0.03,-0.53 0.04,-0.8 0.02,-0.63 0.03,-1.27 0.05,-1.9 0,-0.18 -0.02,-0.36 -0.02,-0.54 0,-0.73 -0.04,-1.45 -0.09,-2.18 -0.03,-0.54 -0.08,-1.07 -0.12,-1.61 0,-0.1 0,-0.1 -0.11,-0.11 -0.28,-0.02 -0.56,-0.05 -0.84,-0.07 -0.48,-0.03 -0.97,-0.07 -1.45,-0.09 -0.44,-0.02 -0.88,-0.04 -1.32,-0.05 -0.44,-0.02 -0.88,-0.02 -1.32,-0.03 -0.52,-0.02 -1.05,0 -1.57,-0.01 -0.68,0 -1.36,0.01 -2.04,0.03 -0.04,0 -0.08,0 -0.11,0 -0.4,0.02 -0.8,0.01 -1.2,0.04 -0.31,0.02 -0.63,0.02 -0.94,0.04 -0.5,0.03 -1.01,0.06 -1.51,0.1 -0.22,0.02 -0.43,0.03 -0.65,0.05 -0.05,0 -0.08,0.02 -0.08,0.08 0,0.1 -0.02,0.2 -0.03,0.31 0,0.19 -0.04,0.38 -0.04,0.57 0,0.22 -0.03,0.45 -0.04,0.67 -0.02,0.3 -0.03,0.59 -0.05,0.89 0,0.15 -0.01,0.3 -0.02,0.45 0,0.14 0,0.29 0,0.43 -0.01,0.15 0,0.3 0,0.45 0,0.15 -0.02,0.29 -0.02,0.43 0,0.12 0,0.24 0,0.35 0,0.12 0,0.23 0.01,0.35 0.01,0.24 0,0.47 0.01,0.71 0.01,0.32 0,0.65 0.03,0.97 0.02,0.32 0.02,0.65 0.06,0.97 0.02,0.22 0.03,0.43 0.05,0.65 0.01,0.21 0.03,0.42 0.05,0.64 0,0.06 0.03,0.07 0.08,0.07 0.25,0 0.5,0.04 0.76,0.06 0.48,0.03 0.95,0.06 1.43,0.09 0.71,0.04 1.41,0.07 2.12,0.08 0.67,0.01 1.34,0.02 2.02,0.03 0.4,0 0.8,0 1.19,-0.02 z"
     id="path6" />
  <path
     class="cls-1"
     d="m 0.65,16 c 0.06,-0.02 0.06,-0.07 0.06,-0.12 0,-0.2 0.01,-0.4 0.03,-0.6 0.05,-0.58 0.12,-1.16 0.23,-1.73 0,-0.04 0.02,-0.08 0.01,-0.11 0,-0.06 0.02,-0.08 0.07,-0.09 0.11,0 0.21,-0.03 0.32,-0.03 0.41,-0.04 0.82,-0.06 1.23,-0.1 0.52,-0.05 1.05,-0.08 1.58,-0.12 0.32,-0.02 0.63,-0.04 0.95,-0.06 0.56,-0.03 1.12,-0.05 1.68,-0.08 0.15,0 0.3,-0.01 0.45,-0.01 0.38,0 0.76,-0.02 1.13,-0.03 1.28,-0.03 2.55,-0.01 3.83,0 0.41,0 0.82,0 1.22,0.03 0.2,0 0.39,-0.01 0.59,0.03 0.57,-0.04 1.13,0.03 1.7,0.04 0.45,0 0.9,0.04 1.35,0.07 0.39,0.02 0.77,0.04 1.16,0.07 0.33,0.02 0.66,0.05 0.99,0.08 0.06,0 0.11,0 0.17,0.01 0.04,0 0.06,0.02 0.06,0.06 0,0.02 0,0.05 0,0.07 0,0.69 0,1.39 0,2.08 0,0.03 0,0.05 0,0.08 0,0.05 -0.02,0.05 -0.06,0.03 -0.03,-0.01 -0.07,0 -0.1,0 -0.46,-0.02 -0.92,-0.04 -1.37,-0.07 -0.28,-0.02 -0.56,-0.02 -0.85,-0.04 -0.33,-0.03 -0.66,-0.03 -0.98,-0.05 -0.12,0 -0.23,-0.04 -0.35,0 -0.17,-0.05 -0.34,-0.03 -0.51,-0.04 -0.51,-0.02 -1.01,-0.04 -1.52,-0.04 -0.22,0 -0.44,0 -0.66,-0.01 -0.4,-0.03 -0.81,0 -1.21,-0.01 -0.14,0 -0.27,-0.02 -0.41,0 -0.14,0 -0.28,0 -0.42,0 -0.14,0 -0.27,0 -0.41,0 -0.14,0 -0.28,0 -0.42,0 -0.59,0.03 -1.18,0.02 -1.76,0.05 -0.38,0.02 -0.76,0.02 -1.14,0.05 -0.28,0.02 -0.56,0.03 -0.85,0.04 -0.47,0.03 -0.94,0.05 -1.4,0.09 -0.28,0.02 -0.57,0.04 -0.85,0.07 -0.06,0 -0.08,0.02 -0.09,0.09 -0.05,0.39 -0.09,0.78 -0.1,1.17 0,0.4 0,0.79 0.03,1.19 0.02,0.2 0.04,0.41 0.07,0.61 0,0.05 0.03,0.07 0.08,0.07 0.43,-0.03 0.85,0 1.28,-0.03 0.34,-0.02 0.68,0 1.03,-0.02 0.5,-0.02 1.01,-0.01 1.51,-0.02 1.15,0 2.3,0 3.45,0 0.43,0 0.86,0 1.28,0.02 0.27,0 0.55,0 0.82,0.03 0.18,0.02 0.37,0 0.56,0 0.32,0 0.63,0.03 0.95,0.04 0.27,0.01 0.55,0.01 0.82,0.03 0.56,0.03 1.12,0.06 1.68,0.1 0.3,0.02 0.61,0.04 0.91,0.08 0.11,0.01 0.21,0.01 0.32,0.03 0.11,0.02 0.23,0.03 0.34,0.04 0.11,0 0.22,0.04 0.33,0.05 0.1,0 0.11,0.02 0.13,0.12 0.06,0.33 0.1,0.65 0.14,0.98 0.07,0.59 0.11,1.18 0.14,1.78 0.04,0.77 0.03,1.54 -0.01,2.31 -0.02,0.37 -0.04,0.73 -0.08,1.09 -0.03,0.34 -0.07,0.68 -0.12,1.02 -0.01,0.1 -0.03,0.19 -0.04,0.29 -0.01,0.09 0,0.09 -0.1,0.1 -0.17,0.02 -0.35,0.03 -0.52,0.05 -0.45,0.04 -0.9,0.08 -1.35,0.12 -0.36,0.03 -0.72,0.05 -1.09,0.07 -0.35,0.02 -0.7,0.05 -1.05,0.07 -0.24,0.01 -0.49,0.01 -0.73,0.03 -0.53,0.04 -1.06,0.04 -1.59,0.06 -0.21,0 -0.41,0.01 -0.62,0.02 -0.04,0 -0.08,0 -0.12,0.01 H 7.61 c 0,0 -0.07,-0.02 -0.11,-0.02 -0.34,0 -0.68,-0.02 -1.02,-0.03 -0.52,0 -1.03,-0.02 -1.54,-0.04 C 4.31,27.09 3.67,27.06 3.04,27.03 2.51,27 1.97,26.96 1.44,26.93 c -0.1,0 -0.2,-0.01 -0.3,-0.02 -0.1,-0.01 -0.1,-0.02 -0.1,-0.12 0,-0.69 0,-1.37 0,-2.06 0,-0.14 0,-0.14 0.14,-0.13 0.01,0 0.02,0 0.03,0 0.34,0.02 0.67,0.05 1.01,0.06 0.42,0.01 0.83,0.04 1.25,0.06 0.58,0.03 1.16,0.05 1.74,0.07 0.52,0.02 1.05,0.03 1.57,0.05 0.47,0.01 0.94,0.02 1.41,0.02 0.94,0 1.87,0.02 2.81,0 0.34,0 0.67,0 1.01,-0.01 0.31,0 0.63,-0.03 0.94,-0.03 0.5,0 1.01,-0.04 1.51,-0.06 0.46,-0.02 0.91,-0.05 1.37,-0.08 0.23,-0.01 0.45,-0.05 0.69,-0.05 0.03,-0.15 0.03,-0.29 0.05,-0.43 0.04,-0.26 0.05,-0.52 0.06,-0.77 0.03,-0.57 0.01,-1.13 -0.04,-1.7 -0.02,-0.16 -0.02,-0.32 -0.06,-0.48 -0.01,-0.06 -0.04,-0.06 -0.08,-0.06 -0.2,-0.02 -0.4,0 -0.61,0 -0.39,-0.01 -0.79,-0.01 -1.18,-0.02 -0.71,0 -1.43,0 -2.14,0 -1.68,0 -3.37,0.03 -5.05,-0.03 C 6.89,21.12 6.32,21.13 5.74,21.09 5.36,21.07 4.98,21.07 4.61,21.04 4.36,21.02 4.11,21.01 3.87,21 3.29,20.96 2.71,20.92 2.14,20.86 1.81,20.83 1.48,20.79 1.15,20.75 1.08,20.75 1.06,20.71 1.05,20.65 1.03,20.52 1.01,20.39 0.98,20.26 0.93,19.98 0.89,19.7 0.86,19.43 0.83,19.19 0.81,18.95 0.79,18.7 c 0,-0.04 -0.03,-0.09 -0.02,-0.13 0.02,-0.15 0,-0.3 0,-0.45 -0.01,0.04 -0.02,0.07 -0.02,0.11 0,0.02 -0.01,0.03 -0.03,0.01 v -2.17 z"
     id="path8" />
  <path
     class="cls-1"
     d="m 63.3,22.78 c 0,-0.1 0,-0.2 0,-0.3 0,-3.09 0,-6.18 0,-9.27 0,-0.16 -0.02,-0.14 0.14,-0.14 1,0 2,0 3,0 0.02,0 0.04,0 0.06,0 0.1,0 0.1,0 0.1,0.1 0,0.56 0,1.11 0,1.67 0,3.98 0,7.97 0,11.95 0,0.14 0,0.13 -0.12,0.13 -1.01,0 -2.02,0 -3.04,0 -0.12,0 -0.19,-0.05 -0.26,-0.13 -0.06,-0.07 -0.13,-0.14 -0.2,-0.2 C 62.89,26.51 62.82,26.42 62.74,26.33 62.7,26.28 62.67,26.24 62.61,26.2 62.59,26.19 62.58,26.17 62.57,26.16 62.43,25.99 62.25,25.85 62.11,25.67 62.02,25.55 61.89,25.45 61.8,25.33 61.73,25.24 61.63,25.17 61.55,25.08 61.48,25 61.41,24.91 61.34,24.83 61.25,24.74 61.16,24.65 61.07,24.56 60.97,24.45 60.86,24.35 60.76,24.23 60.7,24.16 60.65,24.08 60.57,24.03 60.56,24.03 60.55,24.01 60.54,24 60.44,23.87 60.31,23.76 60.2,23.64 60.11,23.55 60.05,23.44 59.96,23.35 59.81,23.2 59.65,23.04 59.51,22.89 59.37,22.74 59.25,22.58 59.1,22.44 59,22.34 58.92,22.22 58.81,22.14 58.79,22.13 58.77,22.1 58.76,22.08 58.71,22 58.65,21.92 58.57,21.87 58.48,21.8 58.43,21.7 58.35,21.63 58.29,21.58 58.25,21.51 58.18,21.46 58.14,21.44 58.11,21.4 58.09,21.36 58.01,21.26 57.93,21.17 57.83,21.08 57.78,21.03 57.74,20.97 57.7,20.93 57.61,20.84 57.51,20.75 57.43,20.65 57.37,20.57 57.31,20.49 57.23,20.42 57.13,20.33 57.05,20.23 56.96,20.13 56.9,20.07 56.83,20.02 56.77,19.95 56.65,19.8 56.51,19.68 56.39,19.53 56.36,19.49 56.31,19.45 56.27,19.41 56.16,19.3 56.05,19.18 55.95,19.06 55.85,18.95 55.73,18.85 55.64,18.73 55.54,18.61 55.42,18.5 55.32,18.38 55.17,18.2 55,18.05 54.84,17.88 c -0.1,-0.1 -0.18,-0.21 -0.27,-0.31 -0.1,-0.1 -0.2,-0.2 -0.3,-0.31 -0.13,-0.13 -0.25,-0.26 -0.36,-0.4 -0.08,-0.1 -0.19,-0.19 -0.28,-0.28 -0.11,-0.11 -0.22,-0.23 -0.32,-0.35 -0.05,-0.06 -0.11,-0.12 -0.17,-0.18 -0.12,-0.13 -0.25,-0.25 -0.37,-0.37 -0.08,-0.09 -0.16,-0.18 -0.23,-0.27 -0.05,-0.06 -0.1,-0.09 -0.18,-0.09 -0.71,0 -1.42,0 -2.13,0 -0.02,0 -0.03,0 -0.05,0 -0.04,0 -0.06,0.02 -0.06,0.06 0,0.08 0,0.16 0,0.24 0,1.18 0,2.36 0,3.54 0,2.54 0,5.07 0,7.61 0,0.02 0,0.03 0,0.05 0,0.08 0,0.09 -0.09,0.09 -0.36,0 -0.71,0 -1.07,0 -0.67,0 -1.34,0 -2.02,0 -0.02,0 -0.04,0 -0.06,0 -0.06,0 -0.07,-0.02 -0.07,-0.07 0,-0.02 0,-0.04 0,-0.06 0,-4.51 0,-9.03 0,-13.54 0,-0.19 -0.03,-0.17 0.17,-0.17 2.41,0 4.83,0 7.24,0 0.03,0 0.07,0 0.1,0 0.07,0 0.12,0.02 0.16,0.07 0.29,0.33 0.59,0.65 0.88,0.97 0.18,0.2 0.37,0.4 0.56,0.6 0.3,0.32 0.59,0.65 0.88,0.97 0.18,0.2 0.36,0.39 0.54,0.59 0.28,0.31 0.56,0.62 0.84,0.93 0.19,0.21 0.38,0.41 0.57,0.61 0.38,0.42 0.76,0.83 1.14,1.25 0.1,0.11 0.21,0.22 0.31,0.33 0.12,0.15 0.26,0.28 0.39,0.43 0.09,0.11 0.19,0.2 0.29,0.31 0.14,0.16 0.28,0.31 0.42,0.46 0.11,0.12 0.22,0.25 0.33,0.36 0.19,0.19 0.38,0.39 0.55,0.6 0.09,0.11 0.19,0.21 0.29,0.32 0.09,0.11 0.19,0.2 0.28,0.3 0.16,0.19 0.36,0.36 0.5,0.56 0,0.01 0.02,0.02 0.05,0.01 z"
     id="path10" />
  <path
     class="cls-2"
     d="m 34.72,19.85 c 0.07,-0.1 0.18,-0.17 0.25,-0.27 0.09,-0.12 0.21,-0.2 0.31,-0.31 0.15,-0.17 0.3,-0.34 0.46,-0.49 0.11,-0.1 0.2,-0.21 0.3,-0.32 0.05,-0.05 0.11,-0.1 0.15,-0.15 0.17,-0.18 0.34,-0.36 0.51,-0.54 0.07,-0.07 0.14,-0.13 0.2,-0.21 0.08,-0.11 0.2,-0.19 0.3,-0.3 0.16,-0.18 0.33,-0.37 0.51,-0.54 0.14,-0.14 0.28,-0.27 0.41,-0.42 0.18,-0.19 0.35,-0.39 0.53,-0.57 0.1,-0.1 0.2,-0.21 0.3,-0.31 0.08,-0.08 0.15,-0.16 0.23,-0.23 0.09,-0.08 0.16,-0.18 0.25,-0.27 0.1,-0.1 0.19,-0.21 0.3,-0.3 0.04,-0.04 0.08,-0.08 0.11,-0.13 0.06,-0.08 0.15,-0.14 0.22,-0.21 0.19,-0.21 0.38,-0.42 0.58,-0.62 0.17,-0.17 0.34,-0.34 0.49,-0.52 0.03,-0.04 0.07,-0.05 0.12,-0.05 0.08,0 0.17,0 0.25,0 1.2,0 2.4,0 3.6,0 0.15,0 0.14,-0.02 0.14,0.14 0,0.67 0,1.33 0,2 0,0.02 0,0.05 0,0.07 0,0.04 -0.01,0.06 -0.05,0.06 -0.03,0 -0.06,0 -0.09,0 -0.71,0 -1.43,0 -2.14,0 -0.08,0 -0.13,0.02 -0.19,0.08 -0.33,0.35 -0.67,0.7 -1,1.05 -0.28,0.3 -0.57,0.6 -0.86,0.9 -0.29,0.29 -0.57,0.59 -0.85,0.89 -0.29,0.3 -0.58,0.6 -0.86,0.91 -0.38,0.41 -0.77,0.8 -1.15,1.21 -0.2,0.22 -0.41,0.42 -0.61,0.63 -0.07,0.08 -0.15,0.15 -0.21,0.24 -0.03,0.04 -0.08,0.07 -0.12,0.11 -0.12,0.12 -0.24,0.25 -0.35,0.37 -0.06,0.07 -0.13,0.09 -0.22,0.09 -0.95,0 -1.91,0 -2.86,0 -1.36,0 -2.71,0 -4.07,0 -0.17,0 -0.3,-0.03 -0.4,-0.17 -0.15,-0.2 -0.35,-0.37 -0.52,-0.56 -0.11,-0.13 -0.24,-0.24 -0.35,-0.36 -0.31,-0.33 -0.63,-0.65 -0.93,-0.98 -0.14,-0.15 -0.29,-0.29 -0.42,-0.44 -0.14,-0.17 -0.31,-0.3 -0.45,-0.47 -0.17,-0.2 -0.37,-0.37 -0.53,-0.57 -0.09,-0.11 -0.21,-0.21 -0.31,-0.31 -0.16,-0.17 -0.32,-0.34 -0.48,-0.5 -0.14,-0.15 -0.3,-0.3 -0.43,-0.45 -0.17,-0.2 -0.37,-0.38 -0.54,-0.58 -0.12,-0.13 -0.24,-0.27 -0.38,-0.39 -0.08,-0.07 -0.14,-0.17 -0.22,-0.25 -0.13,-0.13 -0.27,-0.26 -0.39,-0.41 -0.01,-0.02 -0.04,-0.03 -0.06,-0.03 -0.03,0 -0.05,0 -0.08,0 -0.72,0 -1.44,0 -2.15,0 h -0.12 c -0.02,-0.05 -0.01,-0.1 -0.01,-0.15 0,-0.67 0,-1.34 0,-2.01 0,-0.1 0,-0.1 0.1,-0.1 1.28,0 2.56,0 3.84,0 0.07,0 0.12,0.02 0.17,0.07 0.24,0.25 0.49,0.5 0.72,0.76 0.14,0.16 0.3,0.3 0.44,0.46 0.18,0.2 0.37,0.38 0.55,0.58 0.09,0.1 0.19,0.19 0.28,0.29 0.23,0.24 0.46,0.48 0.69,0.72 0.09,0.1 0.19,0.19 0.29,0.29 0.4,0.43 0.81,0.85 1.21,1.27 0.31,0.32 0.61,0.64 0.92,0.96 0.24,0.26 0.49,0.51 0.73,0.77 0.18,0.18 0.34,0.37 0.53,0.55 0.02,0.01 0.03,0.03 0.05,0.04 0.02,-0.03 0.01,-0.07 0.01,-0.09 0,-2.19 0,-4.37 0,-6.56 0,-0.1 -0.01,-0.1 0.11,-0.1 1.05,0 2.09,0 3.14,0 0.14,0 0.12,0 0.12,0.12 0,1.46 0,2.92 0,4.39 0,0.73 0,1.46 0,2.19 0,0.02 -0.01,0.04 0.02,0.07 z"
     id="path12" />
  <path
     class="cls-1"
     d="m 101.58,13.08 c 2.86,0 5.71,0 8.57,0 0.37,0 0.73,0 1.1,0.02 0.1,0 0.1,0 0.1,0.1 0,0.69 0,1.38 0,2.07 0,0.11 0,0.11 -0.11,0.11 -0.11,0 -0.23,0 -0.34,0 -1.87,0 -3.74,0 -5.6,0 -0.65,0 -1.3,0 -1.95,0 -0.02,0 -0.04,0 -0.06,0 -0.04,0 -0.06,0 -0.06,0.05 0,0.03 0,0.07 0,0.1 0,3.74 0,7.49 0,11.23 0,0.19 0,0.16 -0.16,0.16 -1.01,0 -2.02,0 -3.04,0 -0.13,0 -0.12,0.01 -0.12,-0.13 0,-2.37 0,-4.74 0,-7.11 0,-1.39 0,-2.79 0,-4.18 0,-0.15 0.02,-0.13 -0.13,-0.13 -2.61,-0.01 -5.22,0 -7.83,0 q -0.16,0 -0.16,-0.17 c 0,-0.66 0,-1.31 0,-1.97 0,-0.02 0,-0.05 0,-0.07 0,-0.1 0,-0.1 0.09,-0.1 0.05,0 0.11,0 0.16,0 3.17,0 6.35,0 9.52,0 z"
     id="path14" />
  <path
     class="cls-1"
     d="m 31.34,24.68 c 0,-0.71 0,-1.42 0,-2.12 0,-0.1 0,-0.1 0.1,-0.1 1.05,0 2.11,0 3.16,0 0.11,0 0.11,0 0.11,0.12 0,1.36 0,2.72 0,4.08 0,0.07 0,0.14 0,0.22 0,0.04 -0.01,0.06 -0.05,0.05 -0.02,0 -0.05,0 -0.07,0 -1.04,0 -2.08,0 -3.11,0 -0.15,0 -0.13,0.01 -0.13,-0.13 0,-0.7 0,-1.41 0,-2.11 z"
     id="path16" />
</svg>
