<svg width="55" height="39" viewBox="0 0 55 39" fill="none" xmlns="http://www.w3.org/2000/svg">
<path d="M54.8301 14.625C54.8301 14.1806 54.6268 13.7362 54.3017 13.413C53.9765 13.0898 53.5294 12.9282 53.0417 12.9282C52.554 12.9282 52.1475 13.0898 51.7817 13.413C51.4565 13.7362 51.2533 14.1806 51.2533 14.625C51.2533 14.625 51.2533 14.625 51.2533 14.7058L44.8721 19.0691L42.9211 7.95891C42.9211 7.95891 42.8398 7.83771 42.8398 7.79731C43.1243 7.67611 43.3682 7.4741 43.5308 7.2317C43.6934 6.9893 43.8153 6.66609 43.8153 6.38329C43.8153 6.14088 43.8153 5.89848 43.6934 5.69648C43.6121 5.45407 43.4901 5.25207 43.3276 5.09047C43.165 4.92887 42.9618 4.76726 42.7585 4.68646C42.5553 4.60566 42.3114 4.52486 42.0676 4.52486C41.8237 4.52486 41.5798 4.56526 41.3766 4.68646C41.1734 4.76726 40.9701 4.92887 40.8076 5.09047C40.645 5.25207 40.523 5.45407 40.4417 5.69648C40.3605 5.93888 40.3198 6.14088 40.3198 6.38329C40.3198 6.74689 40.4824 7.1105 40.7669 7.4337L33.8166 16.0794L28.045 2.86844C28.2889 2.58564 28.4515 2.22203 28.4921 1.85843C28.4921 1.61602 28.4921 1.37362 28.3702 1.17162C28.2889 0.929213 28.167 0.72721 28.0044 0.565608C27.8418 0.404006 27.6386 0.242403 27.4354 0.161602C27.2321 0.0808011 26.9883 0 26.7444 0C26.5005 0 26.2567 0.0404006 26.0534 0.161602C25.8502 0.242403 25.647 0.404006 25.4844 0.565608C25.3218 0.72721 25.1999 0.929213 25.1186 1.17162C25.0373 1.41402 24.9967 1.61602 24.9967 1.85843C24.9967 2.10083 25.0373 2.34323 25.1592 2.58564C25.2812 2.82804 25.4031 2.98964 25.6063 3.15124L20.1193 15.7158L13.4535 7.4741C13.4535 7.4741 13.3722 7.4741 13.3722 7.3933C13.6161 7.1105 13.7786 6.78729 13.7786 6.42369C13.7786 6.18128 13.7786 5.93888 13.6567 5.73688C13.5754 5.49448 13.4535 5.29247 13.2909 5.13087C13.1283 4.96927 12.9251 4.80767 12.7219 4.72686C12.5186 4.64606 12.2748 4.56526 12.0309 4.56526C11.787 4.56526 11.5432 4.60566 11.3399 4.72686C11.1367 4.80767 10.9335 4.96927 10.7709 5.13087C10.6083 5.29247 10.4864 5.49448 10.4051 5.73688C10.3238 5.97928 10.2832 6.18128 10.2832 6.42369C10.2832 6.74689 10.4051 7.0701 10.6083 7.3125C10.8116 7.5549 11.0554 7.79731 11.3399 7.87811C11.3399 7.91851 11.2587 7.95891 11.2587 7.99931L9.34834 18.6651L3.49546 14.625C3.49546 14.625 3.41417 14.625 3.37353 14.625C3.37353 14.5038 3.49546 14.423 3.49546 14.3018C3.49546 14.0594 3.49546 13.817 3.37353 13.615C3.29224 13.3726 3.1703 13.1706 3.00772 13.009C2.84514 12.8474 2.64192 12.6858 2.43869 12.605C2.23547 12.5242 1.99161 12.4434 1.74774 12.4434C1.50387 12.4434 1.25999 12.4838 1.05676 12.605C0.853538 12.6858 0.650315 12.8474 0.487736 13.009C0.325156 13.1706 0.20322 13.3726 0.12193 13.615C0.04064 13.8574 0 14.0594 0 14.3018C0 14.7462 0.162576 15.1502 0.487736 15.4734C0.77225 15.7966 1.1787 15.9986 1.62579 16.039C1.62579 16.039 1.62579 16.1198 1.62579 16.1602L5.73094 28.5228C5.81223 28.7652 5.97481 29.0076 6.21868 29.1692C6.4219 29.3308 6.70641 29.4116 6.99093 29.4116H48.0424C48.2862 29.4116 48.5708 29.3308 48.774 29.1692C48.9772 29.0076 49.1398 28.8056 49.2617 28.5632L53.6514 16.443C54.0578 16.4026 54.195 15.6813 54.4795 15.3581C54.764 15.0349 54.4795 14.7867 54.4795 14.3827L54.8301 14.625ZM46.7011 26.7452H7.51932L4.91804 18.8671L9.26705 21.8567C9.26705 21.8567 9.63286 22.0587 9.87673 22.0587C10.08 22.0587 10.3238 22.0587 10.4864 21.9779C10.6896 21.8971 10.8522 21.7759 10.9741 21.6143C11.0961 21.4527 11.1774 21.2507 11.218 21.0487L12.9657 11.191L19.1844 18.9075C19.1844 18.9075 19.5096 19.2307 19.7128 19.3115C19.916 19.3923 20.1599 19.4327 20.3631 19.3923C20.5664 19.3923 20.8102 19.2711 20.9728 19.1499C21.1354 19.0287 21.298 18.8267 21.3793 18.6247L26.7038 6.42369L32.1908 18.9883C32.2721 19.1903 32.4347 19.3519 32.5973 19.5135C32.7599 19.6347 33.0037 19.7155 33.2069 19.7559C33.4102 19.7559 33.654 19.7559 33.8573 19.6751C34.0605 19.5943 34.2637 19.4731 34.3857 19.2711L40.8888 11.191L42.7179 21.4527C42.7179 21.6547 42.8398 21.8567 42.9618 22.0183C43.0837 22.1799 43.2869 22.3011 43.4495 22.3819C43.6527 22.4627 43.8559 22.5031 44.0592 22.4627C44.2624 22.4627 44.4656 22.3819 44.6688 22.2607L49.5056 18.9479L46.6604 26.7048L46.7011 26.7452ZM47.6359 30.8256H6.58448C6.25932 30.8256 5.93416 30.9468 5.69029 31.1892C5.44642 31.4316 5.32448 31.7548 5.32448 32.078V36.9261C5.32448 37.2493 5.44642 37.5725 5.69029 37.8149C5.93416 38.0573 6.25932 38.1785 6.58448 38.1785H47.5953C47.9204 38.1785 48.2456 38.0573 48.4895 37.8149C48.7333 37.5725 48.8553 37.2493 48.8553 36.9261V32.078C48.8553 32.078 48.8553 31.7548 48.774 31.5932C48.6927 31.4316 48.6114 31.3104 48.4895 31.1892C48.3675 31.068 48.2456 30.9872 48.083 30.9064C47.9204 30.8256 47.7579 30.8256 47.5953 30.8256H47.6359ZM46.3353 35.6737H7.88512V33.3709H46.3353V35.6737Z" fill="black"/>
</svg>
