<?xml version="1.0" encoding="UTF-8" standalone="no"?>
<svg
   id="Vrstva_1"
   data-name="Vrstva 1"
   viewBox="0 0 125 40"
   version="1.1"
   sodipodi:docname="apollo_online.svg"
   inkscape:version="1.1.2 (0a00cf5339, 2022-02-04)"
   xmlns:inkscape="http://www.inkscape.org/namespaces/inkscape"
   xmlns:sodipodi="http://sodipodi.sourceforge.net/DTD/sodipodi-0.dtd"
   xmlns="http://www.w3.org/2000/svg"
   xmlns:svg="http://www.w3.org/2000/svg">
  <sodipodi:namedview
     id="namedview51"
     pagecolor="#ffffff"
     bordercolor="#666666"
     borderopacity="1.0"
     inkscape:pageshadow="2"
     inkscape:pageopacity="0.0"
     inkscape:pagecheckerboard="0"
     showgrid="false"
     inkscape:zoom="8.86"
     inkscape:cx="74.943567"
     inkscape:cy="19.977427"
     inkscape:window-width="1920"
     inkscape:window-height="1008"
     inkscape:window-x="0"
     inkscape:window-y="0"
     inkscape:window-maximized="1"
     inkscape:current-layer="Vrstva_1" />
  <defs
     id="defs18">
    <style
       id="style2">
      .cls-1 {
        fill: url(#linear-gradient-2);
      }

      .cls-2 {
        fill: #a4a3a4;
      }

      .cls-3 {
        fill: #12100b;
      }

      .cls-4 {
        fill: url(#linear-gradient);
      }
    </style>
    <linearGradient
       id="linear-gradient"
       x1="32.59"
       y1="15.4"
       x2="38.38"
       y2="29.13"
       gradientUnits="userSpaceOnUse"
       gradientTransform="translate(-14)">
      <stop
         offset="0"
         stop-color="#fbb811"
         id="stop4" />
      <stop
         offset=".46"
         stop-color="#e69000"
         id="stop6" />
      <stop
         offset="1"
         stop-color="#e38306"
         id="stop8" />
    </linearGradient>
    <linearGradient
       id="linear-gradient-2"
       x1="28.95"
       y1="10.09"
       x2="40.82"
       y2="30.69"
       gradientUnits="userSpaceOnUse"
       gradientTransform="translate(-14)">
      <stop
         offset="0"
         stop-color="#fdee64"
         id="stop11" />
      <stop
         offset=".46"
         stop-color="#ffd900"
         id="stop13" />
      <stop
         offset="1"
         stop-color="#f7a500"
         id="stop15" />
    </linearGradient>
  </defs>
  <path
     class="cls-4"
     d="m 18.51,19.75 1.8,-1.8 c 0,0 -0.46,0.32 -4.54,-3.28 -4.08,-3.61 -5.3,-4.59 -5.3,-4.59 0,0 0.72,0.79 4.69,5.22 3.25,3.63 3.41,4.32 3.36,4.46 z m 7.36,-4.48 c 3.59,-4.1 4.57,-5.32 4.57,-5.32 0,0 -0.78,0.72 -5.19,4.7 -3.62,3.26 -4.31,3.42 -4.44,3.37 l 1.79,1.8 c 0,0 -0.32,-0.46 3.27,-4.56 z M 20.81,18.03 20.78,18 c 0,0 0,0.02 0.03,0.03 z m -5.62,6.68 c -3.59,4.1 -4.57,5.32 -4.57,5.32 0,0 0.79,-0.72 5.2,-4.7 3.61,-3.26 4.31,-3.42 4.44,-3.37 l -1.8,-1.8 c 0,0 0.32,0.46 -3.27,4.56 z m 5.07,-2.76 0.03,0.03 c 0,0 0,-0.02 -0.03,-0.03 z m 5.8,2.68 C 22.81,21 22.65,20.31 22.7,20.17 l -1.8,1.8 c 0,0 0.46,-0.32 4.55,3.28 4.08,3.61 5.3,4.59 5.3,4.59 0,0 -0.72,-0.79 -4.68,-5.22 z"
     id="path20"
     style="fill:url(#linear-gradient)" />
  <path
     class="cls-1"
     d="m 40.56,19.88 c 0,0 -3.85,-0.05 -9.77,-0.37 -3.36,-0.18 -5.67,-0.41 -7.05,-0.59 -1.43,-0.24 -1.82,-0.67 -2.02,-2.03 -0.19,-1.46 -0.47,-3.88 -0.67,-7.08 -0.35,-5.45 -0.51,-9.82 -0.51,-9.82 0,0 -0.05,3.88 -0.37,9.83 -0.16,3.1 -0.37,5.31 -0.54,6.72 -0.2,1.76 -0.56,2.18 -2.42,2.43 -1.48,0.19 -3.75,0.44 -6.69,0.63 -5.43,0.35 -9.76,0.51 -9.76,0.51 0,0 3.85,0.05 9.77,0.37 3.34,0.18 5.64,0.41 7.02,0.58 1.46,0.24 1.85,0.67 2.05,2.03 0.01,0.09 0.48,4.12 0.67,7.08 0.35,5.45 0.51,9.82 0.51,9.82 0,0 0.05,-3.88 0.36,-9.83 0.19,-3.5 0.43,-5.87 0.6,-7.23 0.22,-1.33 0.69,-1.7 2.35,-1.93 1.48,-0.19 3.76,-0.44 6.7,-0.63 5.43,-0.35 9.76,-0.52 9.76,-0.52 z"
     id="path22"
     style="fill:url(#linear-gradient-2)" />
  <g
     id="g36"
     transform="translate(-14)">
    <path
       class="cls-3"
       d="m 64.55,13.06 c 0,0 -0.07,-0.07 -0.11,-0.07 h -1.58 c 0,0 -0.09,0.02 -0.11,0.07 l -6.01,10.41 c 0,0 -0.02,0.09 0,0.13 0.02,0.04 0.07,0.06 0.11,0.06 h 1.62 c 0,0 0.09,-0.02 0.11,-0.06 0,0 1.02,-1.73 1.09,-1.85 h 7.96 c 0.07,0.12 1.08,1.85 1.08,1.85 0.02,0.04 0.07,0.06 0.11,0.06 h 1.63 c 0,0 0.09,-0.02 0.11,-0.06 0.02,-0.04 0.02,-0.09 0,-0.13 L 64.54,13.06 Z m 2.12,7.02 h -6.05 c 0.2,-0.35 2.82,-4.87 3.02,-5.22 0.2,0.35 2.82,4.87 3.02,5.22 z"
       id="path24" />
    <path
       class="cls-3"
       d="M 81.29,13.39 C 80.4,13.13 79.08,13 77.36,13 h -5.48 c -0.07,0 -0.13,0.06 -0.13,0.13 v 10.41 c 0,0.07 0.06,0.13 0.13,0.13 h 1.42 c 0.07,0 0.13,-0.06 0.13,-0.13 v -4.36 h 3.92 c 1.73,0 3.05,-0.13 3.94,-0.39 1.61,-0.46 2.43,-1.37 2.43,-2.7 0,-1.33 -0.82,-2.25 -2.43,-2.7 z m 0.76,2.7 c 0,0.94 -1.4,1.41 -4.15,1.41 h -4.46 v -2.83 h 4.35 c 1.45,0 2.54,0.13 3.25,0.38 0.68,0.24 1.01,0.58 1.01,1.04 z"
       id="path26" />
    <path
       class="cls-3"
       d="M 95.94,14.08 C 94.86,13.36 93.28,13 91.26,13 c -2.02,0 -3.6,0.36 -4.68,1.08 -1.29,0.88 -1.95,2.31 -1.95,4.27 0,1.96 0.66,3.4 1.95,4.27 1.08,0.7 2.65,1.06 4.68,1.06 2.03,0 3.6,-0.35 4.68,-1.05 1.3,-0.88 1.95,-2.32 1.95,-4.27 0,-1.95 -0.66,-3.39 -1.95,-4.27 z m -1.17,7.29 c -0.74,0.43 -1.92,0.65 -3.51,0.65 -1.59,0 -2.77,-0.22 -3.52,-0.65 -0.95,-0.55 -1.44,-1.57 -1.44,-3.02 0,-1.45 0.48,-2.48 1.44,-3.03 0.73,-0.42 1.92,-0.64 3.52,-0.64 1.6,0 2.77,0.22 3.51,0.65 0.96,0.56 1.45,1.57 1.45,3.01 0,1.44 -0.49,2.47 -1.45,3.02 z"
       id="path28" />
    <path
       class="cls-3"
       d="m 109.98,22.02 h -8.88 v -8.89 c 0,-0.07 -0.06,-0.13 -0.13,-0.13 h -1.42 c -0.07,0 -0.13,0.06 -0.13,0.13 v 10.41 c 0,0.07 0.06,0.13 0.13,0.13 h 10.43 c 0.07,0 0.13,-0.06 0.13,-0.13 v -1.39 c 0,-0.07 -0.06,-0.13 -0.13,-0.13 z"
       id="path30" />
    <path
       class="cls-3"
       d="m 121.89,22.02 h -8.88 v -8.89 c 0,-0.07 -0.06,-0.13 -0.13,-0.13 h -1.42 c -0.07,0 -0.13,0.06 -0.13,0.13 v 10.41 c 0,0.07 0.06,0.13 0.13,0.13 h 10.43 c 0.07,0 0.13,-0.06 0.13,-0.13 v -1.39 c 0,-0.07 -0.06,-0.13 -0.13,-0.13 z"
       id="path32" />
    <path
       class="cls-3"
       d="M 133.3,14.08 C 132.22,13.36 130.64,13 128.62,13 c -2.02,0 -3.6,0.36 -4.68,1.08 -1.3,0.88 -1.95,2.31 -1.95,4.27 0,1.96 0.66,3.4 1.95,4.27 1.08,0.7 2.65,1.06 4.68,1.06 2.03,0 3.6,-0.35 4.68,-1.05 1.29,-0.88 1.95,-2.32 1.95,-4.27 0,-1.95 -0.66,-3.39 -1.95,-4.27 z m -1.17,7.29 c -0.74,0.43 -1.92,0.65 -3.51,0.65 -1.59,0 -2.78,-0.22 -3.52,-0.65 -0.95,-0.55 -1.44,-1.57 -1.44,-3.02 0,-1.45 0.49,-2.48 1.44,-3.03 0.74,-0.42 1.92,-0.64 3.52,-0.64 1.6,0 2.77,0.22 3.51,0.65 0.96,0.56 1.44,1.57 1.44,3.01 0,1.44 -0.49,2.47 -1.44,3.02 z"
       id="path34" />
  </g>
  <g
     id="g48"
     transform="translate(-14)">
    <path
       class="cls-2"
       d="m 66.37,29.32 h -3.99 c 0,0 -0.09,0.04 -0.09,0.09 v 0.95 c 0,0 0.04,0.09 0.09,0.09 h 2.95 v 0.97 c -0.3,0.38 -0.73,0.65 -1.3,0.79 -0.2,0.05 -0.43,0.08 -0.69,0.11 -0.26,0.02 -0.57,0.04 -0.91,0.04 -1.06,0 -1.85,-0.15 -2.36,-0.44 -0.64,-0.37 -0.96,-1.05 -0.96,-2.02 0,-0.97 0.32,-1.65 0.96,-2.02 0.5,-0.29 1.29,-0.44 2.36,-0.44 0.72,0 1.29,0.06 1.69,0.17 0.61,0.16 1.05,0.47 1.32,0.91 0.02,0.04 0.07,0.05 0.11,0.03 l 0.86,-0.42 c 0,0 0.04,-0.03 0.05,-0.05 0,-0.02 0,-0.05 0,-0.07 -0.64,-1.13 -1.99,-1.7 -4.03,-1.7 -1.36,0 -2.41,0.24 -3.14,0.72 -0.87,0.59 -1.31,1.55 -1.31,2.86 0,1.31 0.44,2.27 1.31,2.85 0.72,0.48 1.78,0.72 3.14,0.72 1.21,0 2.19,-0.2 2.91,-0.59 v 0.51 c 0,0 0.04,0.09 0.09,0.09 h 0.95 c 0,0 0.09,-0.04 0.09,-0.09 v -3.96 c 0,0 -0.04,-0.09 -0.09,-0.09 z"
       id="path38" />
    <path
       class="cls-2"
       d="m 76.32,33.32 -4.03,-6.98 c 0,0 -0.05,-0.04 -0.08,-0.04 h -1.06 c 0,0 -0.06,0.02 -0.08,0.04 l -4.02,6.98 c 0,0 -0.02,0.06 0,0.09 0.02,0.03 0.04,0.04 0.07,0.04 h 1.08 c 0,0 0.06,-0.02 0.07,-0.04 0,0 0.68,-1.16 0.73,-1.24 h 5.34 c 0.05,0.08 0.73,1.24 0.73,1.24 0.02,0.03 0.04,0.04 0.07,0.04 h 1.09 c 0,0 0.06,-0.02 0.08,-0.04 0.02,-0.03 0.02,-0.06 0,-0.09 z m -2.61,-2.28 h -4.05 c 0.14,-0.23 1.89,-3.27 2.02,-3.5 0.14,0.23 1.89,3.27 2.03,3.5 z"
       id="path40" />
    <path
       class="cls-2"
       d="m 85.77,26.3 h -0.94 c 0,0 -0.06,0.02 -0.07,0.04 0,0 -3.24,5.62 -3.38,5.87 -0.15,-0.25 -3.39,-5.87 -3.39,-5.87 -0.02,-0.03 -0.04,-0.04 -0.07,-0.04 h -0.93 c 0,0 -0.09,0.04 -0.09,0.09 v 6.98 c 0,0 0.04,0.09 0.09,0.09 h 0.95 c 0,0 0.09,-0.04 0.09,-0.09 v -4.72 c 0.29,0.5 2.75,4.77 2.75,4.77 0.02,0.03 0.04,0.04 0.08,0.04 h 1.05 c 0,0 0.06,-0.02 0.08,-0.04 0,0 2.46,-4.27 2.75,-4.77 v 4.72 c 0,0 0.04,0.09 0.09,0.09 h 0.95 c 0,0 0.09,-0.04 0.09,-0.09 v -6.98 c 0,0 -0.04,-0.09 -0.09,-0.09 z"
       id="path42" />
    <path
       class="cls-2"
       d="m 94.4,27.42 c 0,0 0.09,-0.04 0.09,-0.09 v -0.95 c 0,0 -0.04,-0.09 -0.09,-0.09 h -6.99 c 0,0 -0.09,0.04 -0.09,0.09 v 6.98 c 0,0 0.04,0.09 0.09,0.09 h 6.99 c 0,0 0.09,-0.04 0.09,-0.09 v -0.94 c 0,0 -0.04,-0.09 -0.09,-0.09 h -5.95 v -1.9 h 5.95 c 0,0 0.09,-0.04 0.09,-0.09 v -0.95 c 0,0 -0.04,-0.09 -0.09,-0.09 h -5.95 v -1.9 h 5.95 z"
       id="path44" />
    <path
       class="cls-2"
       d="m 102.79,29.58 c -0.59,-0.18 -1.48,-0.27 -2.65,-0.27 l -1.25,-0.02 c -0.34,-0.02 -0.61,-0.04 -0.8,-0.06 -0.95,-0.13 -1.43,-0.42 -1.43,-0.86 0,-0.64 1.02,-0.96 3.03,-0.96 l 1.23,0.02 c 0.33,0.01 0.6,0.03 0.79,0.06 0.89,0.11 1.42,0.36 1.57,0.72 0.02,0.04 0.06,0.06 0.1,0.05 l 0.92,-0.23 c 0,0 0.04,-0.02 0.06,-0.04 0,-0.02 0.01,-0.04 0,-0.07 -0.2,-0.72 -0.84,-1.21 -1.9,-1.44 -0.55,-0.12 -1.39,-0.18 -2.49,-0.18 -1.23,0 -2.15,0.08 -2.74,0.24 -1.13,0.3 -1.71,0.92 -1.71,1.84 0,0.92 0.54,1.48 1.61,1.8 0.61,0.18 1.48,0.27 2.59,0.27 l 1.29,0.02 c 0.35,0.01 0.61,0.03 0.8,0.06 0.97,0.13 1.47,0.43 1.47,0.87 0,0.64 -1.01,0.96 -3.01,0.96 l -1.2,-0.02 c -0.33,-0.01 -0.59,-0.03 -0.79,-0.06 -0.9,-0.11 -1.44,-0.35 -1.61,-0.7 -0.02,-0.04 -0.06,-0.06 -0.1,-0.05 l -0.93,0.26 c 0,0 -0.04,0.02 -0.05,0.04 -0.01,0.02 -0.02,0.04 0,0.07 0.22,0.7 0.86,1.17 1.91,1.39 0.54,0.11 1.37,0.16 2.47,0.16 1.22,0 2.14,-0.08 2.73,-0.22 1.14,-0.3 1.71,-0.92 1.71,-1.83 0,-0.91 -0.55,-1.5 -1.64,-1.81 z"
       id="path46" />
  </g>
</svg>
