<?xml version="1.0" encoding="UTF-8" standalone="no"?>
<svg
   id="Vrstva_1"
   data-name="Vrstva 1"
   viewBox="0 0 100 40"
   version="1.1"
   sodipodi:docname="kajot_online.svg"
   inkscape:version="1.1.2 (0a00cf5339, 2022-02-04)"
   xmlns:inkscape="http://www.inkscape.org/namespaces/inkscape"
   xmlns:sodipodi="http://sodipodi.sourceforge.net/DTD/sodipodi-0.dtd"
   xmlns="http://www.w3.org/2000/svg"
   xmlns:svg="http://www.w3.org/2000/svg">
  <sodipodi:namedview
     id="namedview19"
     pagecolor="#ffffff"
     bordercolor="#666666"
     borderopacity="1.0"
     inkscape:pageshadow="2"
     inkscape:pageopacity="0.0"
     inkscape:pagecheckerboard="0"
     showgrid="false"
     inkscape:zoom="11.075"
     inkscape:cx="59.954853"
     inkscape:cy="19.954853"
     inkscape:window-width="1920"
     inkscape:window-height="1048"
     inkscape:window-x="0"
     inkscape:window-y="1080"
     inkscape:window-maximized="1"
     inkscape:current-layer="Vrstva_1" />
  <defs
     id="defs4">
    <style
       id="style2">
      .cls-1 {
        fill: #1d1d1b;
      }
    </style>
  </defs>
  <g
     id="g14"
     transform="translate(-10)">
    <polyline
       class="cls-1"
       points="88.04 12.51 109.37 12.51 107.15 15.98 104.86 15.98 104.86 14.59 102.12 14.59 102.12 26.66 104.86 26.66 103.94 28.85 93.6 28.85 92.63 26.66 96.07 26.66 96.07 14.59 93.09 14.59 93.09 15.98 90.34 15.98 88.04 12.51"
       id="polyline6" />
    <path
       class="cls-1"
       d="m 46.29,18.34 1.68,-3.75 1.52,3.75 h -3.21 m 11.67,8.32 -1.81,-5.24 v -3.08 h -1.13 l -1.19,-3.75 h 1.92 L 54.09,12.5 H 41.75 l -1.58,2.09 h 1.3 L 37.02,26.65 H 36.1 l 0.1,2.19 h 7.7 l 1.13,-2.19 h -1.95 l 2.25,-5.26 h 4.9 l 2.02,5.26 H 49.3 l 1.26,2.19 h 8.38 l 0.98,-2.19 h -1.95"
       id="path8" />
    <path
       class="cls-1"
       d="m 82.23,24.36 c -2.86,0 -5.21,-1.88 -5.21,-4.17 0,-2.29 2.35,-4.2 5.21,-4.2 2.86,0 5.21,1.88 5.21,4.2 0,2.32 -2.35,4.17 -5.21,4.17 m -1.2,-11.85 c -5.67,0 -10.28,3.66 -10.28,8.17 0,4.51 4.61,8.17 10.28,8.17 5.67,0 10.28,-3.68 10.28,-8.17 0,-4.49 -4.61,-8.17 -10.28,-8.17"
       id="path10" />
    <path
       class="cls-1"
       d="M 55.46,12.51 H 72.2 c -3.64,9.43 -2.6,19.47 -17.32,22.98 -0.41,0.06 -0.66,-0.36 -0.33,-0.75 6.86,-3.97 8.28,-11.79 9.88,-20.15 h -4.51 v 1.39 H 57.8 L 55.46,12.5"
       id="path12" />
  </g>
  <path
     class="cls-1"
     d="M 8.41,14.59 7.24,12.5 H 18.5 l -0.97,2.09 h -0.99 l -1.23,3.75 h 1.21 l 5.97,-5.83 h 8.1 l -11.55,5.83 h 3.69 l 0.51,8.32 h 2.11 l -1.3,2.19 h -8.54 l -1.28,-2.19 h 2.82 v -5.38 h -2.7 C 12.73,25.1 10.08,29.56 1.4,32.43 0.8,32.7 0.34,32 0.86,31.67 8.46,26.66 8.19,20.75 9.72,14.6 h -1.3"
     id="path16" />
</svg>
