<?xml version="1.0" encoding="UTF-8" standalone="no"?>
<svg
   id="Vrstva_1"
   data-name="Vrstva 1"
   viewBox="0 0 95 40"
   version="1.1"
   sodipodi:docname="pragmatic_online.svg"
   inkscape:version="1.1.2 (0a00cf5339, 2022-02-04)"
   xmlns:inkscape="http://www.inkscape.org/namespaces/inkscape"
   xmlns:sodipodi="http://sodipodi.sourceforge.net/DTD/sodipodi-0.dtd"
   xmlns="http://www.w3.org/2000/svg"
   xmlns:svg="http://www.w3.org/2000/svg">
  <sodipodi:namedview
     id="namedview39"
     pagecolor="#ffffff"
     bordercolor="#666666"
     borderopacity="1.0"
     inkscape:pageshadow="2"
     inkscape:pageopacity="0.0"
     inkscape:pagecheckerboard="0"
     showgrid="false"
     inkscape:zoom="11.075"
     inkscape:cx="59.954853"
     inkscape:cy="19.954853"
     inkscape:window-width="1920"
     inkscape:window-height="1048"
     inkscape:window-x="0"
     inkscape:window-y="1080"
     inkscape:window-maximized="1"
     inkscape:current-layer="Vrstva_1" />
  <defs
     id="defs4">
    <style
       id="style2">
      .cls-1 {
        fill: #f28c1c;
      }

      .cls-2 {
        fill: #050606;
      }
    </style>
  </defs>
  <path
     class="cls-1"
     d="m 78.052598,40 c -0.08,-0.03 -0.16,-0.02 -0.24,-0.03 -3.23,-0.15 -6.11,-1.16 -8.62,-3.07 -2.6,-1.97 -4.29,-4.5 -5.1,-7.54 -0.22,-0.83 -0.35,-1.68 -0.4,-2.54 -0.14,-2.4 0.32,-4.7 1.44,-6.86 1.78,-3.4 4.57,-5.76 8.35,-7.08 1.12,-0.39 2.28,-0.63 3.47,-0.75 0.85,-0.08 1.7,-0.11 2.54,-0.05 2.96,0.19 5.64,1.1 8.01,2.79 2.65,1.89 4.44,4.35 5.37,7.36 0.23,0.75 0.37,1.51 0.46,2.28 0.02,0.22 0,0.45 0.05,0.67 v 1.9 c 0,0 -0.03,0.09 -0.03,0.13 0,0.12 0,0.24 -0.02,0.35 -0.11,0.98 -0.32,1.93 -0.65,2.87 -0.94,2.63 -2.56,4.83 -4.88,6.55 -2.49,1.86 -5.34,2.85 -8.52,3 -0.1,0 -0.2,0 -0.3,0.03 h -0.94 z m 13.79,-13.97 c 0.03,-6.88 -5.95,-12.43 -13.17,-12.49 -7.22,-0.06 -13.36,5.37 -13.42,12.38 -0.06,7 5.93,12.53 13.16,12.59 7.53,0.07 13.46,-5.68 13.43,-12.48 z"
     id="path6" />
  <path
     class="cls-1"
     d="m 70.962598,9.52 c 0.02,-0.15 -0.02,-0.26 -0.04,-0.37 -0.22,-1.09 -0.42,-2.18 -0.58,-3.28 -0.17,-1.23 -0.29,-2.46 -0.32,-3.7 -0.02,-0.62 0,-1.24 0.02,-1.87 0,-0.1 0.02,-0.2 0.03,-0.31 0.1,0.02 0.15,0.09 0.2,0.16 0.81,0.97 1.51,2 2.15,3.07 0.95,1.57 1.78,3.2 2.52,4.87 0.04,0.09 0.07,0.2 0.18,0.27 0,-0.11 0,-0.23 0,-0.34 0,-0.86 0.14,-1.69 0.45,-2.5 0.47,-1.23 1.24,-2.25 2.33,-3.07 0.03,-0.03 0.06,-0.06 0.11,-0.05 0.04,0.04 0,0.08 -0.01,0.11 -0.4,0.86 -0.68,1.75 -0.84,2.67 -0.12,0.74 -0.17,1.48 -0.14,2.23 0.04,1.04 0.22,2.05 0.48,3.06 0,0.03 0.01,0.06 0.02,0.09 0,0.01 0,0.02 0,0.04 -0.28,0.02 -0.57,0.05 -0.85,0.07 -1.66,0.15 -3.25,0.55 -4.77,1.2 -0.49,0.21 -0.96,0.45 -1.42,0.7 -0.16,0.09 -0.19,0.08 -0.25,-0.08 -0.16,-0.47 -0.37,-0.92 -0.6,-1.36 -0.71,-1.39 -1.66,-2.62 -2.87,-3.66 -0.5,-0.43 -1.04,-0.81 -1.61,-1.14 -0.06,-0.04 -0.13,-0.07 -0.19,-0.16 0.84,0.06 1.61,0.22 2.36,0.49 0.75,0.28 1.43,0.67 2.04,1.16 0.62,0.49 1.13,1.07 1.61,1.72 z"
     id="path8" />
  <path
     class="cls-2"
     d="m 33.692598,28.74 c 0.08,-0.06 0.1,-0.13 0.13,-0.19 0.77,-1.78 1.54,-3.56 2.31,-5.34 0.02,-0.04 0.03,-0.08 0.05,-0.11 q 0.08,-0.2 0.32,-0.2 c 0.37,0 0.74,0 1.11,0 0.2,0 0.23,0.02 0.23,0.21 0,2.35 0,4.71 0,7.06 0,0.14 -0.02,0.16 -0.18,0.16 -0.32,0 -0.64,0 -0.96,0 -0.17,0 -0.19,-0.02 -0.19,-0.19 0,-1.66 0,-3.31 0,-4.97 0,-0.06 0.01,-0.13 -0.01,-0.2 -0.07,0.02 -0.08,0.08 -0.11,0.13 -0.43,1.05 -0.87,2.11 -1.3,3.16 -0.26,0.63 -0.52,1.27 -0.78,1.9 -0.04,0.11 -0.11,0.16 -0.23,0.16 -0.26,0 -0.51,0 -0.77,0 -0.18,0 -0.23,-0.04 -0.3,-0.21 -0.14,-0.35 -0.29,-0.7 -0.43,-1.05 -0.54,-1.31 -1.08,-2.62 -1.62,-3.93 -0.03,-0.06 -0.04,-0.13 -0.1,-0.19 -0.06,0.06 -0.03,0.13 -0.03,0.19 0,1.62 0,3.24 0,4.86 0,0.37 0.03,0.32 -0.36,0.33 -0.24,0 -0.49,0 -0.73,0 -0.2,0 -0.22,-0.02 -0.22,-0.2 0,-2.34 0,-4.68 0,-7.03 0,-0.03 0,-0.07 0,-0.11 0.01,-0.06 0.04,-0.1 0.12,-0.1 0.44,0 0.87,0 1.31,0 0.11,0 0.17,0.06 0.2,0.15 0.2,0.46 0.4,0.91 0.6,1.36 0.61,1.39 1.23,2.78 1.84,4.17 0.02,0.05 0.05,0.11 0.08,0.17 z"
     id="path10" />
  <path
     class="cls-2"
     d="m 26.682598,26.22 c 0.61,0 1.22,0 1.84,0 0.17,0 0.19,0.01 0.2,0.14 0.01,0.53 0.03,1.07 -0.13,1.59 -0.13,0.43 -0.34,0.82 -0.65,1.16 -0.84,0.9 -1.89,1.35 -3.18,1.29 -0.49,-0.02 -0.97,-0.11 -1.42,-0.28 -1.08,-0.39 -1.75,-1.14 -2.12,-2.14 -0.24,-0.65 -0.28,-1.32 -0.2,-2 0.07,-0.62 0.27,-1.19 0.64,-1.71 0.66,-0.93 1.59,-1.43 2.77,-1.54 0.62,-0.06 1.24,-0.03 1.83,0.15 1.12,0.33 1.88,1.01 2.25,2.06 0.09,0.25 0.08,0.25 -0.19,0.25 -0.29,0 -0.59,0 -0.88,0 -0.16,0 -0.25,-0.04 -0.32,-0.18 -0.29,-0.53 -0.74,-0.89 -1.36,-1.05 -0.53,-0.14 -1.06,-0.16 -1.59,-0.01 -0.8,0.22 -1.36,0.72 -1.63,1.45 -0.3,0.79 -0.3,1.59 0.03,2.38 0.35,0.86 1.04,1.33 2,1.47 0.54,0.08 1.07,0.04 1.58,-0.17 0.83,-0.36 1.3,-0.98 1.46,-1.81 0.02,-0.1 0,-0.12 -0.11,-0.14 -0.06,0 -0.11,0 -0.17,0 -0.81,0 -1.61,0 -2.42,0 -0.01,0 -0.02,0 -0.04,0 -0.18,0 -0.18,0 -0.18,-0.18 0,-0.19 0,-0.38 0,-0.56 0,-0.14 0.02,-0.16 0.17,-0.16 0.61,0 1.22,0 1.84,0 z"
     id="path12" />
  <path
     class="cls-2"
     d="m 12.822598,30.32 c -0.45,0 -0.88,0 -1.31,0 -0.13,0 -0.19,-0.07 -0.24,-0.16 -0.39,-0.59 -0.79,-1.18 -1.18,-1.77 -0.1999999,-0.3 -0.4099999,-0.6 -0.5999999,-0.91 -0.07,-0.11 -0.16,-0.17 -0.3,-0.16 -0.19,0.01 -0.37,0 -0.56,0 -0.12,0 -0.14,0.02 -0.15,0.13 0,0.05 0,0.09 0,0.14 v 2.46 c 0,0 0,0.08 0,0.12 0,0.11 -0.03,0.13 -0.15,0.13 -0.34,0 -0.67,0 -1.01,0 -0.12,0 -0.14,-0.02 -0.15,-0.14 0,-0.04 0,-0.07 0,-0.11 v -7.04 c 0,-0.26 0,-0.26 0.28,-0.26 0.89,0 1.77,0 2.6599999,0 0.47,0 0.94,0.07 1.37,0.25 0.77,0.33 1.19,0.9 1.31,1.68 0.06,0.42 0.03,0.83 -0.13,1.23 -0.21,0.54 -0.62,0.9 -1.17,1.12 -0.17,0.07 -0.35,0.12 -0.53,0.16 -0.17,0.03 -0.18,0.05 -0.09,0.19 0.62,0.91 1.24,1.81 1.86,2.72 0.04,0.05 0.08,0.1 0.1,0.19 z M 8.4625981,25.13 c 0,0.38 0,0.75 0,1.13 0,0.14 0.03,0.18 0.14,0.18 0.58,0 1.16,0.03 1.7399999,-0.03 0.55,-0.06 0.92,-0.36 1.05,-0.85 0.09,-0.32 0.07,-0.64 -0.04,-0.95 -0.11,-0.29 -0.31,-0.49 -0.6,-0.62 -0.22,-0.09 -0.45,-0.14 -0.69,-0.15 -0.4599999,0 -0.9199999,0 -1.3899999,0 -0.19,0 -0.22,0.02 -0.22,0.2 0,0.36 0,0.73 0,1.09 z"
     id="path14" />
  <path
     class="cls-2"
     d="m 62.362598,27.77 c 0,0.12 -0.05,0.21 -0.08,0.3 -0.35,0.91 -0.95,1.6 -1.91,1.99 -0.61,0.24 -1.24,0.35 -1.9,0.33 -0.54,-0.02 -1.05,-0.13 -1.54,-0.34 -0.82,-0.34 -1.42,-0.89 -1.77,-1.66 -0.5,-1.13 -0.57,-2.28 -0.11,-3.44 0.12,-0.3 0.28,-0.58 0.47,-0.84 0.41,-0.55 0.94,-0.95 1.62,-1.17 0.93,-0.3 1.87,-0.34 2.81,-0.06 1.23,0.36 2,1.15 2.38,2.29 0.05,0.14 0.04,0.15 -0.12,0.15 -0.34,0 -0.67,0 -1.01,0 -0.15,0 -0.23,-0.04 -0.3,-0.17 -0.32,-0.64 -0.85,-1.04 -1.57,-1.23 -0.55,-0.14 -1.09,-0.11 -1.62,0.06 -0.56,0.19 -0.96,0.54 -1.23,1.03 -0.53,0.99 -0.54,1.99 -0.03,2.98 0.44,0.85 1.18,1.24 2.17,1.23 0.26,0 0.52,-0.03 0.78,-0.1 0.62,-0.16 1.08,-0.51 1.41,-1.03 0.04,-0.07 0.08,-0.14 0.12,-0.22 0.04,-0.07 0.1,-0.11 0.19,-0.11 0.41,0 0.81,0 1.23,0 z"
     id="path16" />
  <path
     class="cls-2"
     d="m 13.362598,30.32 c 0.14,-0.36 0.27,-0.7 0.4,-1.03 0.82,-2.06 1.64,-4.12 2.47,-6.18 0.02,-0.04 0.03,-0.08 0.05,-0.11 0.03,-0.08 0.08,-0.1 0.17,-0.1 0.4,0 0.8,0 1.2,0 0.17,0 0.17,0 0.23,0.15 0.61,1.54 1.22,3.08 1.83,4.63 0.32,0.82 0.65,1.63 0.98,2.45 0.01,0.03 0.03,0.07 0.03,0.1 0.01,0.06 0,0.1 -0.08,0.1 -0.39,0 -0.77,0 -1.16,0 -0.11,0 -0.15,-0.08 -0.17,-0.15 -0.09,-0.24 -0.18,-0.47 -0.27,-0.71 -0.07,-0.18 -0.14,-0.36 -0.21,-0.55 -0.08,-0.21 -0.09,-0.22 -0.32,-0.22 -0.88,0 -1.76,0 -2.64,0 -0.11,0 -0.21,0 -0.32,0 -0.13,0 -0.19,0.05 -0.23,0.16 -0.14,0.4 -0.3,0.8 -0.44,1.19 -0.02,0.05 -0.04,0.1 -0.06,0.15 -0.04,0.08 -0.1,0.13 -0.2,0.13 h -1.25 z m 2.39,-2.61 h 2.62 c -0.43,-1.15 -0.86,-2.27 -1.29,-3.4 -0.01,0 -0.03,0 -0.04,0 -0.43,1.13 -0.85,2.26 -1.29,3.41 z"
     id="path18" />
  <path
     class="cls-2"
     d="m 42.492598,22.89 c 0.16,0 0.32,0 0.49,0 0.23,0 0.28,0.03 0.36,0.23 0.23,0.58 0.46,1.16 0.69,1.75 0.67,1.7 1.35,3.39 2.02,5.09 0.03,0.09 0.07,0.18 0.1,0.26 0.02,0.06 0,0.1 -0.07,0.1 -0.39,0 -0.77,0 -1.16,0 -0.12,0 -0.15,-0.08 -0.18,-0.17 -0.13,-0.35 -0.26,-0.71 -0.4,-1.06 -0.03,-0.09 -0.07,-0.18 -0.1,-0.26 -0.03,-0.1 -0.1,-0.14 -0.21,-0.14 -0.27,0 -0.55,0 -0.82,0 -0.71,0 -1.41,0 -2.12,0 -0.25,0 -0.29,0.02 -0.37,0.24 -0.14,0.39 -0.29,0.79 -0.43,1.18 -0.06,0.17 -0.12,0.21 -0.32,0.21 -0.32,0 -0.64,0 -0.96,0 -0.2,0 -0.21,-0.02 -0.14,-0.19 0.36,-0.9 0.72,-1.81 1.08,-2.71 0.57,-1.44 1.15,-2.87 1.72,-4.31 0.08,-0.21 0.09,-0.21 0.32,-0.22 0.17,0 0.34,0 0.51,0 0,0 0,0 0,0 z m 0.02,1.43 c 0,0 -0.03,0 -0.05,0 -0.43,1.13 -0.86,2.27 -1.29,3.41 h 2.62 c -0.43,-1.15 -0.86,-2.28 -1.29,-3.41 z"
     id="path20" />
  <path
     class="cls-2"
     d="m 0.53259814,26.53 c 0,-1.12 0,-2.23 0,-3.35 0,-0.08 0,-0.16 0,-0.25 0,-0.12 0.04,-0.16 0.17,-0.16 0.92999996,0 1.85999996,0 2.78999996,0 0.39,0 0.77,0.07 1.13,0.2 0.7,0.25 1.15,0.72 1.34,1.41 0.12,0.45 0.14,0.9 0.02,1.36 -0.21,0.77 -0.73,1.26 -1.53,1.5 -0.3,0.09 -0.61,0.14 -0.92,0.14 -0.47,0 -0.94,0 -1.41,0 -0.04,0 -0.09,0 -0.13,0 -0.13,0 -0.14,0.02 -0.15,0.15 0,0.03 0,0.06 0,0.09 0,0.83 0,1.67 0,2.5 0,0.17 -0.02,0.18 -0.19,0.19 -0.31,0 -0.61,0 -0.91999996,0 -0.16,0 -0.2,-0.03 -0.21,-0.19 0,-0.12 0,-0.23 0,-0.35 0,-1.09 0,-2.17 0,-3.26 z M 1.8325981,25.1 c 0,0.37 0,0.74 0,1.11 0,0.17 0.01,0.18 0.19,0.18 0.32,0 0.65,0 0.97,0 0.25,0 0.5,0 0.74,-0.06 0.45,-0.1 0.77,-0.34 0.91,-0.77 0.07,-0.19 0.07,-0.39 0.06,-0.59 -0.03,-0.63 -0.41,-1.04 -1.07,-1.14 -0.56,-0.08 -1.12,-0.03 -1.68,-0.04 -0.08,0 -0.11,0.04 -0.12,0.11 0,0.03 0,0.07 0,0.11 0,0.36 0,0.73 0,1.09 z"
     id="path22" />
  <path
     class="cls-2"
     d="m 48.162598,27.03 c 0,-1.03 0,-2.07 0,-3.1 0,-0.12 -0.03,-0.16 -0.16,-0.16 -0.19,0 -0.39,0 -0.58,0 -0.44,0 -0.87,0 -1.31,0 -0.14,0 -0.17,-0.02 -0.17,-0.15 0,-0.23 0,-0.46 0,-0.69 0,-0.15 0.01,-0.16 0.18,-0.16 0.46,0 0.91,0 1.37,0 1.34,0 2.69,0 4.03,0 0.18,0 0.21,0.03 0.21,0.19 0,0.21 0,0.41 0,0.62 0,0.15 -0.03,0.19 -0.19,0.19 -0.58,0 -1.16,0 -1.74,-0.01 -0.03,0 -0.06,0 -0.09,0 -0.16,0 -0.23,0.07 -0.22,0.22 0.05,1.74 0.01,3.47 0.02,5.21 0,0.31 0,0.62 0,0.93 0,0.18 -0.01,0.19 -0.2,0.19 -0.31,0 -0.62,0 -0.94,0 -0.17,0 -0.19,-0.03 -0.19,-0.19 0,-1.03 0,-2.07 0,-3.1 v 0 z"
     id="path24" />
  <path
     class="cls-2"
     d="m 52.412598,26.56 c 0,-1.12 0,-2.24 0,-3.36 0,-0.11 0,-0.21 0,-0.32 0,-0.08 0.04,-0.11 0.13,-0.11 0.34,0 0.67,0 1.01,0 0.14,0 0.16,0.02 0.16,0.16 0,0.18 0,0.35 0,0.53 0,2.21 0,4.41 0,6.62 q 0,0.23 -0.24,0.23 c -0.29,0 -0.57,0 -0.86,0 -0.18,0 -0.19,-0.02 -0.19,-0.18 v -3.57 0 z"
     id="path26" />
  <path
     class="cls-1"
     d="m 80.842598,15.53 c 1.56,0 2.89,0.52 3.95,1.6 0.49,0.49 0.82,1.06 0.92,1.74 0.11,0.73 -0.14,1.33 -0.78,1.77 -0.4,0.27 -0.86,0.4 -1.33,0.48 -0.97,0.15 -1.92,0.07 -2.84,-0.24 -0.99,-0.34 -1.79,-0.91 -2.35,-1.75 -0.28,-0.42 -0.45,-0.87 -0.49,-1.37 -0.04,-0.72 0.23,-1.31 0.87,-1.73 0.43,-0.28 0.92,-0.42 1.44,-0.46 0.2,-0.02 0.41,-0.02 0.62,-0.03 z"
     id="path28" />
  <path
     class="cls-2"
     d="m 78.212598,30.32 c 0.07,-0.19 0.13,-0.35 0.19,-0.5 0.89,-2.24 1.79,-4.49 2.68,-6.73 0.08,-0.2 0.08,-0.2 0.31,-0.2 0.36,0 0.71,0 1.07,0 0.2,0 0.2,0 0.27,0.18 0.91,2.3 1.82,4.6 2.74,6.9 0.03,0.08 0.07,0.16 0.1,0.25 0.02,0.07 0,0.11 -0.09,0.11 -0.37,0 -0.75,0 -1.12,0 -0.13,0 -0.17,-0.07 -0.21,-0.17 -0.11,-0.28 -0.21,-0.56 -0.32,-0.84 -0.06,-0.15 -0.12,-0.31 -0.18,-0.46 -0.04,-0.11 -0.11,-0.16 -0.24,-0.15 -0.24,0 -0.49,0 -0.73,0 -0.74,0 -1.47,0 -2.21,0 -0.25,0 -0.25,0 -0.33,0.22 -0.14,0.38 -0.29,0.76 -0.43,1.14 -0.1,0.26 -0.1,0.26 -0.4,0.26 -0.36,0 -0.71,0 -1.1,0 z m 3.71,-6.04 c -0.37,0.75 -1.22,3.1 -1.25,3.44 h 2.55 c -0.43,-1.15 -0.86,-2.28 -1.3,-3.44 z"
     id="path30" />
  <path
     class="cls-2"
     d="m 67.142598,26.54 v -3.49 c 0,0 0,-0.08 0,-0.12 0,-0.14 0.02,-0.15 0.16,-0.15 0.21,0 0.41,0 0.62,0 0.69,0 1.39,0 2.08,0 0.43,0 0.85,0.06 1.25,0.21 0.87,0.33 1.33,0.94 1.4,1.81 0.03,0.39 0.02,0.77 -0.12,1.15 -0.27,0.73 -0.83,1.15 -1.61,1.34 -0.36,0.09 -0.74,0.11 -1.11,0.11 -0.37,0 -0.74,0 -1.11,0 -0.04,0 -0.09,0 -0.13,0 -0.08,0 -0.13,0.04 -0.13,0.12 0,0.06 0,0.13 0,0.19 0,0.8 0,1.6 0,2.39 0,0.03 0,0.06 0,0.09 0,0.08 -0.04,0.12 -0.12,0.12 -0.35,0 -0.7,0 -1.05,0 -0.09,0 -0.14,-0.05 -0.13,-0.13 0,-0.04 0,-0.08 0,-0.12 z m 1.31,-1.46 c 0,0.38 0,0.76 0,1.14 0,0.14 0.02,0.16 0.16,0.16 0.34,0 0.69,0.02 1.03,0.01 0.28,0 0.56,-0.02 0.83,-0.09 0.42,-0.12 0.69,-0.36 0.8,-0.76 0.1,-0.34 0.08,-0.67 -0.04,-1 -0.12,-0.32 -0.35,-0.53 -0.7,-0.64 -0.21,-0.07 -0.44,-0.1 -0.66,-0.1 -0.41,0 -0.81,0 -1.22,0 -0.19,0 -0.21,0.02 -0.21,0.2 0,0.36 0,0.73 0,1.09 z"
     id="path32" />
  <path
     class="cls-2"
     d="m 84.192598,22.78 c 0.46,0 0.9,0 1.34,0 0.11,0 0.15,0.06 0.19,0.14 0.24,0.46 0.48,0.91 0.72,1.37 0.3,0.57 0.6,1.15 0.9,1.72 0.03,0.06 0.07,0.12 0.11,0.18 0.08,-0.02 0.1,-0.07 0.13,-0.12 0.54,-1.02 1.07,-2.04 1.61,-3.06 0.08,-0.16 0.2,-0.24 0.39,-0.23 0.39,0.01 0.77,0 1.16,0 0.04,0.09 0,0.15 -0.04,0.21 -0.8,1.43 -1.59,2.86 -2.39,4.28 -0.12,0.21 -0.18,0.43 -0.18,0.67 0,0.7 0,1.41 0,2.11 0,0.05 0,0.09 0,0.14 0,0.09 -0.05,0.13 -0.14,0.13 -0.17,0 -0.35,0 -0.52,0 -0.15,0 -0.3,0 -0.45,0 -0.2,0 -0.2,0 -0.2,-0.19 0,-0.11 0,-0.22 0,-0.33 0,-0.64 0,-1.28 0,-1.92 0,-0.22 -0.06,-0.41 -0.17,-0.6 -0.69,-1.22 -1.37,-2.45 -2.06,-3.67 -0.12,-0.21 -0.23,-0.41 -0.35,-0.62 -0.03,-0.06 -0.06,-0.12 -0.05,-0.2 z"
     id="path34" />
  <path
     class="cls-2"
     d="m 73.592598,26.51 v -3.43 c 0,0 0,-0.06 0,-0.09 q 0,-0.21 0.23,-0.21 c 0.29,0 0.59,0 0.88,0 0.19,0 0.2,0.01 0.2,0.19 0,0.63 0,1.27 0,1.9 v 4.22 c 0,0 0,0.07 0,0.11 0,0.16 0,0.16 0.19,0.16 0.18,0 0.36,0 0.54,0 h 1.78 c 0,0 0.09,0 0.13,0 0.08,0 0.12,0.03 0.12,0.1 0.01,0.25 0.01,0.49 0,0.74 0,0.07 -0.04,0.11 -0.12,0.11 -0.05,0 -0.1,0 -0.15,0 -1.15,0 -2.3,0 -3.45,0 -0.34,0 -0.35,0 -0.35,-0.34 0,-1.16 0,-2.31 0,-3.47 z"
     id="path36" />
</svg>
